<mxfile host="Electron" modified="2024-03-13T09:13:48.270Z" agent="Mozilla/5.0 (X11; Linux x86_64) AppleWebKit/537.36 (KHTML, like Gecko) draw.io/24.0.4 Chrome/120.0.6099.109 Electron/28.1.0 Safari/537.36" etag="FNYKGpf3jDh2ktdOgYOo" version="24.0.4" type="device">
  <diagram name="第 1 页" id="34UhgVEW0im66hXtFUMA">
    <mxGraphModel dx="1012" dy="581" grid="1" gridSize="5" guides="1" tooltips="1" connect="1" arrows="1" fold="1" page="1" pageScale="1" pageWidth="827" pageHeight="1169" math="1" shadow="0">
      <root>
        <mxCell id="0" />
        <mxCell id="1" parent="0" />
        <mxCell id="XvH5OOQSZUMB8_Yw51Nm-1" value="" style="shape=image;verticalLabelPosition=bottom;labelBackgroundColor=default;verticalAlign=top;aspect=fixed;imageAspect=0;image=data:image/svg+xml,PHN2ZyB4bWxucz0iaHR0cDovL3d3dy53My5vcmcvMjAwMC9zdmciIHhtbG5zOnhsaW5rPSJodHRwOi8vd3d3LnczLm9yZy8xOTk5L3hsaW5rIiB2aWV3Qm94PSIwIDAgMzQuMTMzNDIzIDM0LjEzMzM5MiIgaGVpZ2h0PSIzNC4xMzMzOTIiIHdpZHRoPSIzNC4xMzM0MjMiIGlkPSJzdmcxIiB2ZXJzaW9uPSIxLjEiPiYjeGE7ICA8ZGVmcyBpZD0iZGVmczEiPiYjeGE7ICAgIDxjbGlwUGF0aCBpZD0iY2xpcFBhdGg3OCIgY2xpcFBhdGhVbml0cz0idXNlclNwYWNlT25Vc2UiPiYjeGE7ICAgICAgPHBhdGggaWQ9InBhdGg3OCIgdHJhbnNmb3JtPSJtYXRyaXgoMC4wMDE1NjI1LDAsMCwtMC4wMDE1NjI1LC05Ljc2NTYwOTdlLTcsNC4yMjI0MDEyKSIgZD0ibSAwLDIwNjIgaCA2NDAgdiA2NDEgSCAwIFoiLz4mI3hhOyAgICA8L2NsaXBQYXRoPiYjeGE7ICA8L2RlZnM+JiN4YTsgIDxnIHRyYW5zZm9ybT0idHJhbnNsYXRlKC0xMTM5LjMyNjIsLTEyNi4yNzI0OCkiIGlkPSJnNTMiPiYjeGE7ICAgIDxnIGlkPSJnMzc0Ij4mI3hhOyAgICAgIDxpbWFnZSBpZD0iaW1hZ2UyMzkiIGNsaXAtcGF0aD0idXJsKCNjbGlwUGF0aDc4KSIgdHJhbnNmb3JtPSJtYXRyaXgoMzQuMTMzMzg3LDAsMCwzNC4xMzMzODcsMTEzOS4zMjY3LDEyNi4yNzI0OCkiIHhsaW5rOmhyZWY9ImRhdGE6aW1hZ2UvcG5nO2Jhc2U2NCxpVkJPUncwS0dnb0FBQUFOU1VoRVVnQUFBUjhBQUFFZkNBWUFBQUI0VjhKTkFBQUFCSE5DU1ZRSUNBZ0lmQWhraUFBQUJraEpSRUZVZUp6dDNDRnIxbTBid09IN2RtSjgwT2JBc3JaVmt3b2lhakNaTkFxeTZvTEJJbGdFMDhCbWxvbjRBVFFxUTRSOUFiVXN6bUlRUmNSbTBEM2g1UzN2NDRNWDg1Ni83ZDF4NUpQL2RhWGZ6bkRkbTA0bWsrMEp3QjkyZURLWlRKNDhlVEpaV2xxcTd3SWNBSnVibTVOcjE2NzlKejVMUzB1VGt5ZFAxbmNDRHBCRDlRV0FnMGw4Z0lUNEFBbnhBUkxpQXlURUIwaUlENUFRSHlBaFBrQkNmSUNFK0FBSjhRRVM0Z01reEFkSWlBK1FFQjhnSVQ1QVFueUFoUGdBQ2ZFQkV1SURKTVFIU0lnUGtCQWZJQ0UrUUVKOGdJVDRBQW54QVJMaUF5VEVCMGlJRDVBUUh5QWhQa0JDZklDRStBQUo4UUVTNGdNa3hBZElpQStRRUI4Z0lUNUFRbnlBaFBnQUNmRUJFdUlESk1RSFNJZ1BrQkFmSUhHNHZnRHNwbnYzN2czTjNiMTdkK1pudjN6NWNtanUzTGx6TXo5N1A3RDVBQW54QVJMaUF5VEVCMGlJRDVBUUh5QWhQa0JDZklDRStBQUpMNXpabHg0OWVqUTB0N3E2T2pSMzZORFkzK0VmUDM0TXpmRnJOaDhnSVQ1QVFueUFoUGdBQ2ZFQkV1SURKTVFIU0lnUGtCQWZJT0dGTS92U3UzZnZodWErZmZ1MnV4ZGh4MncrUUVKOGdJVDRBQW54QVJMaUF5VEVCMGlJRDVBUUh5QWhQa0RDQzJmMmxQWDE5YUc1Qnc4ZXpQVGNwYVdsb2Jsbno1NE5mM04rZm42bjF6a1FiRDVBUW55QWhQZ0FDZkVCRXVJREpNUUhTSWdQa0JBZklDRStRRUo4Z0lTZlY3RHJOalkyaG1lWGw1ZUg1cjUrL1RvME41MU9oK1p1M2JvMU5MZXdzREEweDYvWmZJQ0UrQUFKOFFFUzRnTWt4QWRJaUErUUVCOGdJVDVBUW55QWhCZk83TmoyOXZiUTNPUEhqNGUvK2Y3OSs1MWU1NmZPbno4L05IZjkrdldabnN1djJYeUFoUGdBQ2ZFQkV1SURKTVFIU0lnUGtCQWZJQ0UrUUVKOGdJUVh6dXpZcDArZmh1WWVQbnc0L00yNXVibWh1V1BIamczTjNibHpaL2hzL2l5YkQ1QVFIeUFoUGtCQ2ZJQ0UrQUFKOFFFUzRnTWt4QWRJaUErUThNS1pmOWphMmhxYXUzcjE2aTdmNU4rdHJLd016VjI0Y0dHWGI4Sk8yWHlBaFBnQUNmRUJFdUlESk1RSFNJZ1BrQkFmSUNFK1FFSjhnSVQ0QUFrL3IrQWZuajkvUGpUMzl1M2JtWjk5OGVMRm9ibWJOMi9PL0d6K0xKc1BrQkFmSUNFK1FFSjhnSVQ0QUFueEFSTGlBeVRFQjBpSUQ1RHd3dmtBZWZyMDZkRGM3ZHUzWjNydTJiTm5oMmZYMXRhRzVvNGVQYnJUNjdCSDJIeUFoUGdBQ2ZFQkV1SURKTVFIU0lnUGtCQWZJQ0UrUUVKOGdJUVh6dnZjMXRiVzhPeVZLMWVHNXJhM3QzZDZuWjlhV0ZnWW5wMmZuNS9wMmV4ZE5oOGdJVDVBUW55QWhQZ0FDZkVCRXVJREpNUUhTSWdQa0JBZklPR0Y4eDQxK3NwNGRYVjErSnVIRHMzMmI4MTBPaDJhbS9YL2hPYi9nODBIU0lnUGtCQWZJQ0UrUUVKOGdJVDRBQW54QVJMaUF5VEVCMGg0NGJ4SHZYbnpabWp1eFlzWHUzeVRmM2Y1OHVXaHVjWEZ4VjIrQ2Z1UnpRZElpQStRRUI4Z0lUNUFRbnlBaFBnQUNmRUJFdUlESk1RSFNJZ1BrUER6aWo5czlCL0RYN3AwYVdqdTgrZlB2M09kbnpwMTZ0VFEzTnJhMnN6UDV1Q3crUUFKOFFFUzRnTWt4QWRJaUErUUVCOGdJVDVBUW55QWhQZ0FDUytjOTZpUEh6OE96YzNOelExL2N6cWREczNkdUhGamFPNnZ2LzRhUGh2K2w4MEhTSWdQa0JBZklDRStRRUo4Z0lUNEFBbnhBUkxpQXlURUIwaDQ0VHdqby8rYmVYbDVlYWJmKy83OSs5RGNaREwrd3ZuMDZkUEQzNFNkc3ZrQUNmRUJFdUlESk1RSFNJZ1BrQkFmSUNFK1FFSjhnSVQ0QUFrdm5HZms5ZXZYUTNQcjYrdERjNk92a1k4Y09USTBONWxNSmlzckswTnp4NDhmSC80bTdKVE5CMGlJRDVBUUh5QWhQa0JDZklDRStBQUo4UUVTNGdNa3hBZElpQStROFBPS0dmbnk1Y3ZRM0ljUEgyWjY3b2tUSjRabjc5Ky9QelEzK3RNTytCMDJIeUFoUGtCQ2ZJQ0UrQUFKOFFFUzRnTWt4QWRJaUErUUVCOGc0WVh6QWVMbE1udUp6UWRJaUErUUVCOGdJVDVBUW55QWhQZ0FDZkVCRXVJREpNUUhTSGpoUENPTGk0dERjMmZPbkJtYTI5alkrSjNyd0o1bjh3RVM0Z01reEFkSWlBK1FFQjhnSVQ1QVFueUFoUGdBQ2ZFQkVsNDR6OGo4L1B6UTNLdFhyM2IzSXJCUDJIeUFoUGdBQ2ZFQkV1SURKTVFIU0lnUGtCQWZJQ0UrUUVKOGdJUVh6bi9ZZERxdHJ3QjdnczBIU0lnUGtCQWZJQ0UrUUVKOGdJVDRBQW54QVJMaUF5VEVCMGlJRDVBUUh5QWhQa0JDZklDRStBQUo4UUVTNGdNa3hBZElpQStRRUI4Z2NYZ3ltVXcyTnpmcmV3QUh4SDk3TTUxTUp0dnRWWUNENkc4Q21wTE1Tb3F5UlFBQUFBQkpSVTVFcmtKZ2dnPT0iIHByZXNlcnZlQXNwZWN0UmF0aW89Im5vbmUiIGhlaWdodD0iMSIgd2lkdGg9IjEiLz4mI3hhOyAgICA8L2c+JiN4YTsgIDwvZz4mI3hhOzwvc3ZnPg==;fillColor=none;fontFamily=Times New Roman;fontSize=10.5;" parent="1" vertex="1">
          <mxGeometry x="30" y="55.5" width="59" height="59" as="geometry" />
        </mxCell>
        <mxCell id="XvH5OOQSZUMB8_Yw51Nm-2" value="" style="rounded=0;whiteSpace=wrap;html=1;strokeWidth=2;fillColor=#B9E0A5;fontFamily=Times New Roman;fontSize=10.5;" parent="1" vertex="1">
          <mxGeometry x="110" y="35" width="15" height="100" as="geometry" />
        </mxCell>
        <mxCell id="XvH5OOQSZUMB8_Yw51Nm-3" value="" style="shape=image;verticalLabelPosition=bottom;labelBackgroundColor=default;verticalAlign=top;aspect=fixed;imageAspect=0;image=data:image/svg+xml,PHN2ZyB4bWxucz0iaHR0cDovL3d3dy53My5vcmcvMjAwMC9zdmciIHhtbG5zOnhsaW5rPSJodHRwOi8vd3d3LnczLm9yZy8xOTk5L3hsaW5rIiB2aWV3Qm94PSIwIDAgMjIuNzk1MTY2IDIyLjE4NjY2MSIgaGVpZ2h0PSIyMi4xODY2NjEiIHdpZHRoPSIyMi43OTUxNjYiIGlkPSJzdmcxIiB2ZXJzaW9uPSIxLjEiPiYjeGE7ICA8ZGVmcyBpZD0iZGVmczEiPiYjeGE7ICAgIDxjbGlwUGF0aCBpZD0iY2xpcFBhdGgxMjYiIGNsaXBQYXRoVW5pdHM9InVzZXJTcGFjZU9uVXNlIj4mI3hhOyAgICAgIDxwYXRoIGlkPSJwYXRoMTI2IiB0cmFuc2Zvcm09Im1hdHJpeCgxMC4wMDAwMDEsMCwwLDEwLjAwMDAwMSwtNi4yNTAwMDA0ZS00LC02LjI1MDAwMDRlLTUpIiBkPSJNIDAsMCBIIDY3NiBWIDMyNyBIIDAgWiIvPiYjeGE7ICAgIDwvY2xpcFBhdGg+JiN4YTsgICAgPGNsaXBQYXRoIGlkPSJjbGlwUGF0aDEyNyIgY2xpcFBhdGhVbml0cz0idXNlclNwYWNlT25Vc2UiPiYjeGE7ICAgICAgPHBhdGggaWQ9InBhdGgxMjciIHRyYW5zZm9ybT0ibWF0cml4KDAuMDAzNTc5MzIsMCwwLC0wLjAwNDU3NTA3LC0xMi42OTIwMDEsNC4wNDgyOTQzKSIgZD0ibSAzNTQ1Ljk0LDY2Ni4yNSBoIDI3OS4zNzkgViA4ODQuODQgSCAzNTQ1Ljk0IFoiLz4mI3hhOyAgICA8L2NsaXBQYXRoPiYjeGE7ICA8L2RlZnM+JiN4YTsgIDxnIHRyYW5zZm9ybT0idHJhbnNsYXRlKC0xMzI0LjYzMDksLTIxOC4xODMzNikiIGlkPSJnNTMiPiYjeGE7ICAgIDxnIGlkPSJnMzc0Ij4mI3hhOyAgICAgIDxwYXRoIGlkPSJwYXRoMjg2IiBjbGlwLXBhdGg9InVybCgjY2xpcFBhdGgxMjYpIiB0cmFuc2Zvcm09Im1hdHJpeCgwLjA1MzMzMzMzLDAsMCwtMC4wNTMzMzMzMywxMTM5LjMyNjcsMjcwLjM5NzMzKSIgc3R5bGU9ImZpbGw6bm9uZTtzdHJva2U6IzAwMDAwMDtzdHJva2Utd2lkdGg6MTY7c3Ryb2tlLWxpbmVjYXA6YnV0dDtzdHJva2UtbGluZWpvaW46bWl0ZXI7c3Ryb2tlLW1pdGVybGltaXQ6NDtzdHJva2UtZGFzaGFycmF5Om5vbmU7c3Ryb2tlLW9wYWNpdHk6MSIgZD0ibSAzODkzLjg3LDc3MS4wMTIgYyAwLC0xMTAuNDY5IC05Mi4wNywtMjAwIC0yMDUuNzEsLTIwMCAtMTEzLjU5LDAgLTIwNS43LDg5LjUzMSAtMjA1LjcsMjAwIDAsMTEwLjQyOSA5Mi4xMSwyMDAgMjA1LjcsMjAwIDExMy42NCwwIDIwNS43MSwtODkuNTcxIDIwNS43MSwtMjAwIHoiLz4mI3hhOyAgICAgIDxpbWFnZSBpZD0iaW1hZ2UyODYiIGNsaXAtcGF0aD0idXJsKCNjbGlwUGF0aDEyNykiIHRyYW5zZm9ybT0ibWF0cml4KDE0LjkwMDQyNywwLDAsMTEuNjU3Mzg3LDEzMjguNDQyOSwyMjMuMjA0OCkiIHhsaW5rOmhyZWY9ImRhdGE6aW1hZ2UvcG5nO2Jhc2U2NCxpVkJPUncwS0dnb0FBQUFOU1VoRVVnQUFBS29BQUFDRkNBWUFBQURMakdOaEFBQUFCSE5DU1ZRSUNBZ0lmQWhraUFBQUlBQkpSRUZVZUp6dFhXbFRHMWNXUFMyMUpDUWtGZ05tRTVzUlN6QUc0N0RFQzg3WVNXV21wbXArYmpJZlVuR0NIV09DMlRkak5nSEdJQ0FTMm5lMTVnTnpINjhmTFJZYmJFQjlxaWhiVW05cW5iNzd2VS82NzMvL20rM3Q3VVY1ZVRrSW1Vd0dBQ0JKRWlSSll2L1BkMlN6V1dTeldRRHFleE1JQkxDeHNZSFhyMS9qNTU5L3hvY1BIMkF3R05EVjFZWHZ2LzhlejU4L1IyTmpJeFJGZ2NGZ1FDcVZndEZvQkFBWURJYXY5bjNPQy9ydXdObjVrTTFtVDl4V1VSVDJPZjJmN2trMm0wVW1rOEhtNWlia2UvZnVvYlMwRk5sc0Z1bDBtbTFrTUJoMGNwNEJpcUpBVVJTRVFpRzQzVzRzTEN6Z3c0Y1BBSUJVS29YMjluYUVRaUZrczFsMmI5UHBOSXhHNDdVaUtmQnB3dXEwZmZoN1lEQVltRERJWnJOUUZBV3lMS09xcWdweVRVME5KRWxTU1ZFQ1NRRGcwNTZtZkFIZDRHUXlpVmdzaG5RNkRlQ1FrUEY0SEpsTVJuWFBlTWw4MWNGTFBQRjMvNXp2b0tXWitIUFNuOUZvaE0xbWcwdzNUWklreUxMTU5wWWtDWXFpZlBLRjVBdm9Qa21TQkt2VkNwdk54ajZ6Misyd1dxMHdtVXlxZmZpSC8yczk5RHhSVHNKSlV2OXpybDJTcEdQZm4waXJSV0taTHRwb05FSlJGR1F5R1VaWW85RjQ1aStVcjZBSDNHUXl3V2F6d1c2M3MvdG50Vm9oeXpLNythVCs2ZThxUVpTTzlIdlQrMXBhNEZNNXdSL3p0R3NoVFMvekc1QUV2U2hET1IrUVRxZVJ5V1NRVHFlUlNDU1FUQ2JaZmN4a01wb20xWmQ4K005NkxsR1M4ZnZ6Sk9XM09ZdnFGNC9KNzBQOEVUVTN2MDg2blQ0VUJvcWlzQ2Rka2lUbWpmSzJ5VWxmTHQ4aHl6TE1aak83Yi93UG04bGtWQS96VmIxZnVTUWM3NEZmMW5tMUhoQmVZREt6bEZRK1hSUnRuTWxrVkxhVjdreHBnNklsSkRsRkwxWkxrdkt2TC90ZThtVFFPaGM1ZnJuVU90bUpXazdQNTE1L3JnZVl2NGYwbVlFK0VHMFJXWmFQa1ZQclluVWNna2hKR2dyUXRzRys5RDNrZjF2K21uZ25VSlpscGhGSVlHbjk5aUxPOHoxRUUwTHJjOTRFRU8raHJCUHZldU1rTzFIMHFJRkRDVXJ4U1hLV1NUTHlHcFJYKzRxaUlCYUxJUjZQSTVWS3FaekNrODdQU0NiTE1CZ01TS2ZUQ0FhRENBYURTQ1FTcW0zSW9hZUVTQ2FUZ2RGb2hOVnFSWGw1dWRxWjBuSDljSkpwUWNoa01zZGk0aVM5ZU51YUI2OStRNkVROXZiMnNMKy9qMUFveEVna3l6SXpIZmpyRVowdmk4VUNXWllSQ29Xd3ZyNE90OXVOZzRNREtJb0NrOG5Fcm9XaUpiRllETWxrRWthakVjM056ZWpwNlRtTW8rYjY0anF1TnJUaWtLSjZKZFhPYjBldkthaWVTcVdRU0NTWUpNdG1zMGlsVW9qSDR3aUZRdkQ1Zk5qYTJzTE96ZzRDZ1FETHJJbkhGYStOcnM5c05zTmdNTUR2OTJObFpRWEx5OHZ3ZXIxTXN0TzI5TkRFNDNFa2swa1lEQWJjdjMvL01Nd25mbGs5NUhUMXdST1I3RXllcER4WlNXcng0RU5GT3pzNzJON2V4dTd1TGlLUkNPTHhPTUxoTUE0T0R1RDMrNUZLcFJDSlJPRHorUkFJQkJDTHhaaDBOaHFOeklrVWo4dkhqWTFHSXlSSlFqd2V4LzcrUHZiMjloQ0x4VlQ3RWU4TUJvUEt6dC9lM2tZNEhGYmJxRHBCcno1T0M4d1RhZW5ISmpWUDBSMVM2ZkY0SEY2dkYzTnpjNWlZbU1DN2QrOFFDb1VRRG9maDgvbmc4L2tRQ29WWUVvaitlRWtKNU01YzhVVGwzMHVsVWprem51S3hlUWRlZDZhdU9YaFM4ZzRRT1Vxa1drbEtCZ0lCaEVJaDdPL3Z3K1B4WUhsNUdYTnpjM0M3M1FpSHc0aEdvNGhHbzBnbWt5ZG1vajRuejY5VmtNT0hTUGs4UDJYM2RHZnFHa0dMSEh3QkI0WEl4UGhrSkJMQjF0WVdwcWVuTVRVMWhmWDFkWGk5WHBYMGpFUWlTS1ZTU0tWU0FJN0NXaGRCVHI0cWlsNlR1aWRpVXRUQmFEUWltVXdDQUl0TUtJcWlFL1dxUWt3ajhnNlFHTmNrYjVuMnlXUXlTQ2FUU0tWU0NBYURXRnRidytMaUlxYW5wL0htelJzc0x5OGpFb2tjeXd5Ukxja1hLZkVtaEtoOXRadzNyYzlGVlU4UEEyMUQxeTVHRU5McE5NTGg4R0g5eWJudm9JNHZEcDZJdkpORVlTSStXSjlJSk9EeGVMQ3hzWUd0clMxc2JXMWhZMk1ENit2citQRGhBelkzTnhFT2g5bXhlV0x5WVNLU2dtSVFuaWYyYVJMMlBMVUF1UkFLaFJBS2hYU2lYaVdJam9Rb3lmaWFEUDQxY0NSRnQ3ZTNNVE16ZzRtSkNjek96bUpsWlFVK253L0JZSkRWeGdKUTJZSjBMSG9mZ09vejBadm5YMnM1NDJJazRyVHZmQklLQ3d0MUcvVXFnWmRTUEZsSmF2S0VJb0tTcEkxR295ek10TEN3Z0ttcEtieDc5dzVMUzB2d2VEekg0cXBrQzJZeUdhYUcrZlB6S3RocXRjTGhjTUJzTnJOcktTb3FndDF1Wnc3YmVhdnVSR2p0UjlmamNybmdjcmwwb2w1MThCS08vNWVJRTQxR3NiYTJob21KQ2N6TXpHQjJkaGJyNitzSUJBTHdlcjBxU1Vra3A0NERQcTh2cW5PRHdZREN3a0xVMTllanFxb0twYVdsa0NRSmhZV0ZhR3hzaE5QcGhNMW1nNklvTEMzTEZ6WjlUbFNBajhPV2xwYWlzYkZSSitwVmdWYUZrL2hqVTFpSHRqazRPTURLeWdyR3g4Y3hNaktDNmVscHJLMnRJUnFOc3VQeGhkc2tLZms2V1RxdXhXS0J5V1NDMVdxRnhXSkJTVWtKeXN2TDBkYldocHFhR3R5NmRRdEdveEhGeGNWd3VWeG9hR2hBWVdFaHE4VVZHL1BPQ3ZFN2lzVlJWSkN1RS9VS1FZdWtwRzdGNnJYOS9YMk1qWTFoYUdnSTA5UFRjTHZkMk43ZVJpUVNZZnZ6VXBQQ1Y2S1hYbEJRZ05yYVdsUlZWZUhXclZ1b3FLaGcvMVpVVktDeXNoTEZ4Y1d3Mld3d0dBeXNTS1NrcE9SWVA1MVc4dUUweVhwV2MwRW42alVBTDZteTJTeWkwU2pjYmplR2hvYnc4ODgvWTNWMVZWVVRTL1lucVhsQTdSd0JoNnJkWXJHZ3JxNE9YVjFkNk96c1JGMWRIWnhPSnlvcksxRldWc2E2ay9rQVBlWDQ2VnI0YXlTSWR2WkpPR3V0aVU3VUx3QXRpY09IZW5pbkNZQktMUk1wTXBrTXZGNHZQQjRQZG5aMjhOZGZmK0hObXpkNC8vNDlVcW1VU25wU2VJblNsYnhhdm4zN05pb3JLK0Z3T0ZCV1ZvYW1waWEwdGJVeEZWOVJVYUdTbGxyZmhXS3JaK2tDK1Z6UWRlaEUvY29RSlU4Nm5VWXFsVG9NeVhBazNkM2R4ZXpzTEFzN0xTNHVZbk56ODFpY2s5UTczNnRGRDBaMWRUVUdCd2ZSMjl1TG1wb2FsSlNVb0tTa0JHVmxaU2dySzRQTlprTkJRY0dwbmFkaUVjbVhnRTdVUzhaWlZCK2Z3YUdRajhsa1lnVHorWHlZbjUvSDBOQVFYcjkramZuNWVmaDhQblo4dmhDRmQ1VE1aak1qZkdGaElicTd1L0dQZi93RFQ1NDhnZFBwaE1WaVVmVjdFZWdZa2lRZDYwVCswa1ZNZEc2ZHFGOFFZbVpIZERiUzZUUk1KaE1yeTVNa0NWdGJXNWlmbjhkdnYvMkdseTlmWW5sNUdYNi9YN1cveVdSaUZmUjhnVXBGUlFVYUdoclExTlFFcDlPSmpvNE9QSGp3QUkyTmpiRGI3Y2V1alk1Si81SVRKbDcvUlJXbm5BYzZVYjh5Nk1jM0dvM01waVF5QkFJQnpNek00T1hMbC9qOTk5L3gvdjE3aEVJaGxvZW5WbUk2RGsrYTI3ZHZvNk9qQTArZlBzV0RCdy9RM055TTh2SnlGQlVWcVV3SzRIaXBIaDhHRStPcm9xbWlFL1VHUXV0SDV1MUpxaGFLUkNMNCtQRWpscGFXTURRMHBDb2tvZjE1bGN3WGVWaXRWbFJVVktDenN4T1BIei9HNE9BZ1dsdGJVVkZSb1lvY3BOUHBuQ2xSVWVwcmZZZGNyeThMT2xFdkdXZVJPRlFkUmJiaXlzb0svdnp6VHd3UEQyTm1aZ1lmUDM1RUlCQlFPUzgwMFlaSUtra1Npb3FLNEhLNTBOM2RqYjYrUHZUMjlzTGxjcUdvcUFnR2cwRVZrNlZrQU5taW9sb1hWWHl1NzNiWlJOVnQxQ3NDSWgvbDgvZjI5akF4TVlHaG9TRU1EdytyY3ZVVTA2UnNFTVZLWlZsR1NVa0pHaG9hOFBEaFF6eDU4Z1JkWFYxb2JtNW1UaG50dzRmQVRDYlRzWGxqQUppZHl6dFpXb1Q4RXRLVXpxRVQ5UXRBakpObXM0Y3RHZVFFa1pUYzJ0ckMzTndjM3I1OWk5SFJVV3h2Yng5SmxQL1hobEtHaVVnS0FLV2xwUmdZR01EVHAwL1IxZFVGbDh1RjJ0cGFtTTFtMVhVWWpVYVdScVh1VHkzSFNBeEJYUVhvUlAwQ0lKdVN3Qk9BUWtyQllCQnpjM040OWVvVnhzYkdqbFU5OFlGN0hpYVRDUjBkSGZqM3YvK05IMzc0QWJXMXRiQllMRXhDODl1TFR0TlZJZUZab0JQMWtrRkVKRWtvVmhtbDAybDR2VjRzTFMzaDVjdVgrUFBQUDdHNnVvcEVJbkdNNExTdjJXeUd3K0ZBWldVbG5FNG5CZ2NIOGVqUkk5eTVjNGYxU05HMnVXS2d3UFhxT05hSmVza1E1MDhaREFhWVRDWm1EdXp1N21KK2ZoNXYzcnpCSDMvOHdiejdYQVVkQm9NQkpTVWx1SGZ2SGdZR0J0RFgxNGM3ZCs2Z3NiRXg1ekNKWExndUpBVjBvbjRSOE40NnI0NFRpUVRjYmpmZXZIbURseTlmNHYzNzl5eVlEeHpsK2ZrKzk1S1NFblIyZHVMWnMyZDQ4dVFKZW5wNlVGaFl5SWdQSEhXZ25sWTJTTmQySGFBVDlaTEJaM2JJQkNCUFBKRklZSE56RTFOVFUxaFlXRUF3R0ZSSlV0NUR6MllQUitNME56ZmorZlBuK09HSEgrQnl1VlFaSm9vRThIVUNYem93ZjFuUWlYcko0RlUvTDFWOVBoK1dsNWRaMjhqZTNwNHF0a21SQVNKdVFVRUJtcHFhME5mWGg4ZVBINk9qb3dOV3E1VTVXYklzdzJLeHNBZERUSDllZDhKZXJmbmNOeERwZEpybDRBbWhVQWlMaTR2NC9mZmZNVFUxeFR4OGNuZ29oY25Ya0ZaVlZhR25wd2Q5Zlgxb2JXMkYzVzVuMjhUamNjVGpjWFo4UG1ndnBsYkZBdXpyQWwyaVhoRDRQaDhDa1k1R0xOTHI5ZlYxdkhqeEFyLzg4Z3RXVjFjUkRvZFZGVlFBV0hncG04Mml1TGdZRHg0OHdJOC8vb2lIRHgraXZMeGNSV3hhNEVJcnUzUVNyaE5aZGFKZUFISlZ1dk1UUUVqdFJ5SVJ2SC8vSHNQRHczajc5aTByeitNWCt3Q09Na2VGaFlXNGQrOGVIajU4aUlHQkFUUTFOVUdXWlNRU0NaWU9wZlBtQ3Q3ZkJPaEV2U0JvWlhVVVJZSEZZb0hENFFBQUJJTkJ6TS9QWTJ4c0RLdXJxNm8yWTdQWnpJcW02YjJxcWlwMGQzZmoyYk5uZVB6NE1Sb2FHbFFwVDdKblQ3b21uYWc2R0U2eStjaEJBZzVIS0E0TkRXRjBkQlE3T3p0c1g2cG00cXZ5Q3dzTDBkcmFpbi85NjEvNDZhZWZVRk5UZzhMQ1FwWTQ0QXRLcnFQTmVWN29SUDFNaUNxV2ozbFNjRjlSRkFTRFFiamRib3lNakdCdGJRM0paSkxWbGFaU0tkWFFCNXZOaHJxNk90eS9meCs5dmIxb2FXbGg1MHFuMHpDYnpTeHVTa1hXMXpsR2VoYm9SUDFNaVBXY29na1FqOGV4czdPRDNkMWRURXhNWUhKeUV0dmIyd0RBNWtiUkdyUVVLeVdWMzkzZGpkcmFXZ0JIUmM0VXRxSkYySExoSnBFVTBJbjYyZUJKeXJlQjBQdGVyeGNyS3l1SVJDSllYRnlFMys5WFZkYnpCRlFVQlRhYkRXMXRiWGo4K0RHKytlWWIyTzEyUm1TK0hQQWtJdDQwa2dJNlVUOGJmS3hTbEthU0pHRm5ad2VLb3VEang0K1luWjFsVmZxQXRtZGVWRlNFOXZaMjlQWDFvYW1waWRtbFJHU3lVYldXMkJHaE8xTTZWQVNnQ24xK0dvbkJZRUE0SE1iMjlqWTJOalp3Y0hBQWo4ZHpMQmlmU3FWZ05wdVJUQ1pSWGw2T3UzZnZvck96RTYydHJTZ3FLbUttQVpHT2FrelBFbjY2S1NRRmRLSmVDSWgwbEZFaXB5Y1FDQ0NSU0NBV2l5RVNpU0FTaVRDbmlTOU1UcWZUS0NvcXd0MjdkekV3TUlDMnRqWkcwcFBLOUc0U0VVK0RUdFJQaE5qNlRFRjduancrbnc4bWswbEZVQUFxUXRPZjArbkVqei8raVAvODV6OW9hbXBTbGV5ZFZnR1ZEOUNKK3BuZzdVY3hVeFNKUkdBMm0xVkJmTnFIbDZnV2l3VnRiVzBZR0JoQVYxY1hnS01hQVFwRjViTTBCWFNpWGdpMFNFTWVQUzJjd0lOdmthNnVya1pUVXhOTGovSlpMVkw5WDJwc3psV0dUdFRQaExpT1VxN1ArYkFWMytYWjFOU0U1OCtmNDd2dnZrTlpXWm5LYVJJakNUY3RmMzhlNkkvcUdTRldSbWw5SmhaSkEycDdsUC9jYkRhanFxb0s3ZTN0ZVBqd0lacWJtMkcxV3BGTUpsazlxcmhLQ0hCeGF6MWROK2hFUFNkRWN2Q0JmbkdXdlppSDUwZENscGFXb3FXbEJWMWRYZWpvNkVCRlJRVUtDZ3BVQ1FSK3RaTjhoMDdVTTREVXNUaGhtZXhIczlrTXM5bk1tdmI0ei9uY2Z6YWJSVEtaaE5WcVJYMTlQUjQ4ZUlCNzkrNmh0TFNVVmVkVDNKVHZWT1dsK1dsQi9wc0tuYWhuUUs1Y1ByMG55ektzVml0c05oc2I0MGlma3dTbGJRR2d1TGdZYlcxdHJPQ2txS2lJSFpQUE9tbXRHWnBQNU9TaEUvVU0wRXFQMHYvSmcwOGtFbXo1Ym42S2lWWm9xYnk4SEIwZEhmajIyMjlSVTFNRDRLaUJqN1lYMjZ6ekhUcFJUOEZKQzRPUld2ZjVmTmpjM0ZRdDlrRGI4dWxQV1paUlhGeU11cm82TkRjM283YTJsdlU5OGNQS2NubjMrVXhjbmFpblFKUnVvdDBaajhleHZyNk84ZkZ4VmgxRit3RkhSQVVBdTkyT2hvWUdkSFIwc0lJVElpWnZqNHFESlBLaE1QbzA2RVE5QmJuSytNaVdUS2ZUV0Y5ZngrVGs1TEVCRXJRZnFmVmJ0MjZ4b3BQS3lrclY4WUhqZzNXL3hHSU8xd1U2VWM4QVVSM3p6bEVnRU1DSER4K3d0cmJHNXVvRFVJMTB6R1lQeDVjM05EU2d0N2NYZCsvZVJVbEp5YkYrSnpHdnI1UDBDSHBtNmd3UTQ2SlVucGRNSnVGMnUrRjJ1N0c3dTR0VUtzWFVOdDlSS2trU3JGWXI2dXJxME5IUmdjYkdSamdjRGxWOEZWQVRsUjlUcVVNbjZxblZTYnpqUlAxUFJxTVJvVkFJVTFOVEdCb2F3c3JLQ3FMUktOdUh0aUdZVENZNG5VN2N1WE1ITHBlTGtaU1Bsd0pnNlZYZytJaklmRWZlRS9VMDlVcUU0YjMzYkRhTHpjMU52SHIxQ2ovLy9EUFcxOWVSU3FWVWtwSHNXYlBaak5yYVduUjBkS0MxdFJXM2I5OCtObUJYTHp3NUhYbFBWQkZpWm9rbkVSRTFrVWhnYlcwTnIxNjl3c1RFaENxdlR4S1J3azBPaHdQdDdlM283ZTNGblR0M1VGQlFvQXBGMFRuNTgvUG4xdTNVUStpUGNRN3dCZEhBa1ZvT2g4UFkydHBpaStRUzZVU0pTQVN2cjY5SGYzOC9IajE2aFByNmVqYURINERLUEJCTkRqMGtwWVl1VVU4QUwwMUpBbm84SGt4TlRXRnhjVkUxY0pla0h6OHp5bXExb3FHaEFkM2QzZWpxNm9MZGJtZWZVNzJxcnZMUEJwMm8wQzcwNE50RUpFbGlNMDMvL3Z0dlRFMU5ZWDUrbmkycHcwdGZ5dFBMc294YnQyNmh1cm9hTlRVMUtDNHVadHVRUnkvYXB2bGNiM29hOHY1eFBxbW1VeXdNaWNWaTJOemN4TXpNREZaV1ZoQUtoVml2UFJHV2FrZ3RGZ3ZLeTh2WllyaUEyb3lnbEtxdTRzOEdYYUwrSDJLekhrbFRJbUV5bWNUZTNoNldsNWZ4L3YxN2VEd2V0cTlXVHQ1c05xT3dzSkJWNnZOMktkOHZKWUtYNkZySHpsZmtQVkg1bENpUmcxUXoyWnJ4ZUJ5Ym01dVluSnpFd3NJQ2ZENmZLaS9QeDBSSm5SdU5SbGJpUjM4a1ViV2t1RjZBY2pMeVh2VnJCZnVKVUZRSTdmUDVzTEN3Z0wvKytvdmw4MFhKeTRNeVY3RllMR2MxVkQ2MWtWd0VkS0lLTGN4OGRvaTgrSU9EQTh6TnplSE5temZZMk5oZ1UvU29ING9xbjNnaThuT2k2Rmg4S2hiUXlYb2U1RFZSUlduSUU0aituMHdtc2JXMWhjWEZSU3d2THlNWURBSTRhb2ZtQzU3RjQ1NUVTTjJKT2gveTBrYlZJbzRZaWdLT2FrM241K2V4dXJxcXFvNFNwL0NKTVZkK0c1R1F1aVE5UC9KT29tcGxnT2g5K295ZkVEMDZPb3JKeVVsc2JXM2xMUGNqb3ZMMXBEVDdWSmVhRjRPOGxLZ2krT0ErMlpUQllCQlRVMU40OGVJRnhzZkhzYmUzcDlxSHJ5V2w0TDBrU2N3YzREOFhiVk1kNTBkZUVWVkw1ZktyTnZQTmVsNnZGd3NMQzVpZG5jWEd4Z2FTeVNSTUpoTmJmWTgzRmV4Mk82eFdLNEJEZ2tlalVaWDlldFpyMFpFYk41Nm9vbE1qRXBMU25lbDBtczJKOG5nOG1KNmV4dExTRXRiWDE5bGlZMlNIaW4xT0xwY0w5ZlgxQ0lWQ21KdWJRendlUnlLUllNczlpdUJib25VcGV6YmtoWTJhcTJTT24yUmlNcGxRVUZDQWFEU0tsWlVWVEU1T1lubDVHYUZRU0JXb0ovdVRYaGNYRjZPNXVSbjM3OTlIYTJzckhBNEhGRVZodzMyMWlLaEwwL01qTHlRcW9BNEg4VlgwOFhpY1NUZ0EyTi9meDlqWUdGNjllb1cxdFRWV0VNM0hWNmtIcXJTMEZNM056Ymg3OXk3YTJ0b2dTWklxcjg5TGNOcFBsNkNmaGh0TlZERi96NzhQSEpLWDVqMHBpb0pZTEliVjFWVk1UazVpZG5ZV2ZyOWZsUVRnUTFGRlJVVzRjK2NPK3Z2NzBkYldodExTVWxVQ2dLU3FMbEV2QmplU3FGcEJmSzB3RkVGUkZCYlUvK09QUDFnK0g0Q3FCb0EzRlNvcUt0RFYxWVZIang2aHJhME44WGhjRmFMU09yZU9UOGVOSTJxdUxCQ2ZteGRKNi9WNk1UbzZpbDkrK1FVakl5UDQ4T0VEMjQ4YTlXaDRHUzBiMmREUWdPKysrdzRQSHo1RVNVa0pscGVYRVl2RmtFcWxqdVgyZFFuNitiaHhSTTBGWHBMeVBWREpaQktycTZzWUdSbkIwTkFRM0c0M2M1cG93QVFmampLWlRHaHFhc0tEQnc5dy8vNTkxTlhWQVRocy9vdkZZc2RtbXVva3ZSamNLSy8vcE5Rb2NMeHdHUURXMXRZd1BqNnV5ajRCUjZ2cVVYaUpZcTJOalkxNDlPZ1IrdnI2ME5qWXFDcXM1c2Z5MEhtMG9Kc0M1OGUxbDZoYWd4cEVJcEJUSXpwVzI5dmJHQjhmeCt2WHIxbFZGSUgzMnZuQWZsZFhGd1lIQnpFd01BQzczUTZEd2NCQ1dCYUxSWFZlMGV2WDhlbTQ5a1RsZTQ3NFJqcytIY29YUmhzTUJpU1RTWGc4SG95UGorUFBQLy9FL1B3ODl2ZjNvU2dLWkZsbSt4cU5ScmFpaWNsa1FuVjFOVG82T3REZDNZMmFtaHBtdC9MbWdZN0x3YlVucXRqV0ljWXNFNG1FcXRvZUFIWjNkekV5TW9JWEwxNWdlSGdZR3hzYnJNaVpwSE15bVdSRXQxZ3NxS3lzUkdkbko5cmIyK0YwT2xuYk01OVMxYVhuNWVIYUVwVzNBMFdia0MrN296aXBKRWxJcFZJNE9EakErUGc0ZnZ2dE53d1BEMk50YlEyeFdJenRtMHFsV01jcGthK2lvZ0ozNzk3Rm8wZVA0SEs1WUxQWkdLbXA4NVFQWGZHU1hjZkY0Rm9TVmF0VWoxZjMxQy9QbCtKbHMxbHNiMjlqWm1ZR0wxNjh3T2pvS0RZM054R0x4UUNvVjNvbVNXbzJtMUZUVTRQNzkrOWpjSEFRVDU4K1JWTlRFMncybTJyeFhIRTZ0TjZZZC9HNGxrUVZJVXBWcWdQbEM1aTlYaThtSmlZd05EU0UxNjlmWTNWMWxiVTc4d1hUbVV3R3FWUUtraVF4a2o1NzlnelBuajFEUzB1TGFrRUpjWUNFTGtVdkQxZWVxRnJTazVkVTRvSU1mQVJBVVJRRWcwRnNiVzFoWVdFQnYvLytPOTYrZmN0Njh2bmpVL2lKamxkZVhvN3U3bTQ4ZmZvVWZYMTlhRzV1Wm5PanFPSks2L3c2TGdkWG5xZ2l4TUlPY1YxUkFpM3ZPRDQranJkdjMySnNiQXpUMDlQd2VEeU1wTFIwT1pHTzVraVZsSlNndGJVVi9mMzkrT21ubjFCYlc4dnNVdjdCMGJKUGRWd09yaVJSYzdXTEVERm9HN0pCeWI0azV5YVZTaUVTaVdCeGNSSER3OFA0OWRkZk1UTXpBNy9mZjJ3V2FUYWJaZUVsU1RvY3VOdlUxSVQrL242MkpEbUZyQktKQkRzdm1SZDgxb3FPcTFVSW8rUHo4TldKZWxJQkNYQWs1Zmp0TTVrTVMxVlMySWxVdnQvdngrYm1KcGFXbGpBMU5ZV1JrUkVzTGk0aUVBaW96a2VaSno0M244MW1jZnYyYlR4NDhBQ1BIajNDTjk5OG95STIzLzVNNyttTzA1ZkJWeWZxYVQ4d1Ayb2NPSktrL053bWttaCt2eCtMaTRzWUd4dkRtemR2TUQwOWpZOGZQN0lXWi9FQkVBdFY3SFk3T2pvNjhPVEpFL1QzOTZPbXBrYjFJSW1ybytqVlVWOE84bFZSVVR4cHRONmpXay8rTTRxVnh1TnhlTDFlek03T1ltUmtCSk9UazVpWm1jSFcxaFlMT1pHM1RqMVMvSXg5cTlXS21wb2F0TFMwNEljZmZrQlBUdytxcTZ0VjJTMUFtNUI2dmVtWGdYeVZ2Rll0c2dKSDBvK2tLKy9BWkRJWjdPenNZR3BxQ3IvKytpdEdSMGV4dmIyTnYvLytXMVhKeE51M3BNSkpuVHVkVGhZbjdlL3ZoOVBwWlBQNjZYcDQ2Wm1ydFVYSDVVRys2b05raVV6OExIMWFrU1FjRG1Oblp3ZExTMHQ0L2ZvMVcvaUI3RTdlRHVWVG5jQWgyUjBPQjV4T0o3Nzk5bHY4K09PUEdCd2NoTlBwUExHTlJDZm8xNEY4MVcrNlNJeFFLSVNkblIwc0x5OWphV2tKSHo1OFlLK3ByWmxBdGl6ZmNRb2NaWnphMjlzeE1EQ0FucDRlZEhaMm9ycTZtdTFMWmdIZlJYcGV6MTQzQVM0T1g5MlpFcUVWbWlJcDZ2UDU0SGE3c2JDd2dOSFJVWXlOaldGemMxTlZ0TXdUaUJiVDVXZVRaaklabEpXVm9idTdHOCtmUDhmZzRDQmFXbHBnczlsWXJ4TmZOQzEyQk5BMTBiODZHYjhNWkZLTHBDSnBQYVdML0FHMCtwWDQwanRLV3lZU0NjUmlNVVFpRWRiV2tVNm5FWTFHNGZmNzRmUDVzTHU3aTZXbEpVeE1UR0J4Y2ZGWWlJaE1CVG91bnhBb0xpNUdkWFUxT2pzN01UZzRpRysvL1JhZG5aMHNna0RuNDZNS2ZOa2cvd0R3WmtFNm5WYWRpeDRJSWptVkFsS0NnYTlIdUVvK3dtV0FuNE1BcUxXUnFDM0ZwQW5QUWRuajhTQ1JTQUE0cWpvaWRYbFJ1ZXVUaUVvWnBIQTRESy9YaTcyOVBlenY3eU1RQ0NBZWp5TVdpMkZ2Ync5Ly8vMDNZckVZNHZFNGZENGZhNzdMRlNVUUhTR0h3NEd1cmk3MDkvZWpwNmNIMzN6ekRlcnE2bFRKQko0MDRvQXpMZW5KcDF5SnFKUThBTUJxWCtsNlNCQ1FwTTZIMlZRaWo4VHZ5NzhXaDh6eDkxeCs5KzRkdkY0dnk3cndPNGovLzlRTEZWVW5YUVM5bjBna0VBd0c0ZkY0OFBIalIrenM3T0RnNEFEeGVCekJZQkFIQndkc1pUeGVDcEg5U0JLTXZId2ltZGxzaHRGb3hLMWJ0K0J5dWZEUGYvNFQzMy8vUGRyYTJsQlVWS1N5UDZrb2hmL09Xc2tJa2F5S29zQnF0Y0ppc2NCc05xdnVsOUZvaE5WcVpTUFNxUmc3bjJiMzU3cHZ2SUE0NlQ3UVovTEl5QWpXMTlmaDkvczF4eWRldEEwbXFnQ1NRTEZZakpFeUVBZ3dtNU9rUGI4L2J6THdxb1ZQYlRvY0RsUldWcUt4c1JGdGJXM283dTdHd01BQUdoc2IyWndvc1kxRkpNOVo0cVpFUmlLcmVEeVR5Y1FlZ0h3aHB4WnlmZSt6Q2tKNWVIZ1lKRlcxRG42Uk50Uko2VkkrTlNxdXVrdy92amgwakxkRGViVnZNcGx3NjlZdE5EVTFvYWVuQnowOVBiaDM3eDdxNit0Vnl6dHE5VnFKeDlkYVhvZS9ibExqaVVRQ3lXUlNkWTNVQVVEdExBUittWjk4Sks1WTJIT1dvaDQ1SEE0akVBZ2dFb2xvYm5DUk4xTHJoOUZTQ1h5cWtuOU56b2lXWFVvL3Z0bHNoc1BoUUhsNU9Tb3FLbEJWVlFXNzNZNUVJb0dkblIwa0Vna214UlZGZ2Rsc1BoWXYxUXJ3aTlkSyt5aUt3bHF1ZVh2ZllEQWdIQTVqYzNNVDc5NjlRektaVkExajQxdGo4Z2wwUC9tMVlrMG1Fek9SQ2dvS1ZETzdtSTNLRy9SYXF2NnlWTDk0NGVMblJCZ2lKOWwyZkxVVGJVY3EzMmcwd21LeG9MaTRHQTZIQXdhREFXNjNHejZmancxQjQrZVhpayt6VmdTQjF5aTViTlo0UEE2UHg0T2xwU1hWQTArTFZFaVNoTG01T1poTUptYk9rRG1RRCtCOUg3ckhwRGx0Tmh0S1MwdFJWMWVIeHNaR1ZGZFh3K0Z3cVBZREFMbWdvT0RZYXNmQTVjVUl4U2RGNnh6OGUyUUc4UGFxR01JUXcwUTJtdzFlcjVjRi96T1pETUxoTUhPZWFCOHRDYTExVGFjWis4bGtFb2xFQW42L0grRndHTUNoaFBmNy9aaWZuOGZ1N2k2VEhPVDFrd09ZRDZxZkp5by9seXVWU3FHNHVCaDFkWFhvNmVtQnhXSkJhV2twSXlxL3J4eUpSTmpONWFVSjc3UmNCczc3QTUxMSszUTZEWS9IQTcvZkQ3UFp6RlE5MllsYWt2S3M1OWU2Ri95OUVvOFpqVVlSajhmeDhlUEhuTjd2VGNkcEFrK1NKSFIyZHFLNHVCaU5qWTBzY3NQYitRYUQ0VERYYnphYldmaUhQL2hGeFZFdkczeGVudXlmYURTS2FEU2EwN1M0eUhNRDZpa3NXdStmSmRSMUUzSFN3ODF2dy9zSldwRVh1YVdsQmNEaFNHKytTb2tQL1Z3blVDU0EvcWlnSlZmbzZiemZUM1MwQURBSEtSUUtJUndPczZLWWdvSUNPQndPT0J3T0ZoSzc2Wm1vazZEbFNCdU5ScmhjTHJiem03Y1dBQUFDcFVsRVFWU3djUzdiWFg3MjdCbmEyOXZaM0htK2gwanI0RmNSb3VRbnFjcG5pSEt0NG53ZW9vcU9GdTJmU0NUZzlYcngvdjE3RnVxVEpBbGxaV1ZvYVdsQmUzczdhbXRyWVRBWWtFZ2trRWdrRHRYWi81M0RmSUdXZnlMTE1tN2Z2bzM2K25yVTFOU2dvS0RnMkQ2U0pFSHU3ZTFGT0J4bThVRHlzT2xIdUE1RUJiUW5TNU10ZWxLbzZhd2hJcTE4dFNRZDFzTkdvMUc0M1c1a01obHNiR3pBNi9YQ1lEQ2d0TFFVSFIwZCtQNzc3OUhlM2c1WmxoR1B4eEdOUmxrbzdhWVROWmV6VEg5R294RTJtdzEydXgwT2grT1lZODlVdjlQcFBEWWM3RHBsVUVUN2hnY3Y5YlJ5emVkNUVITVJOWnZOSWhnTVFsRVV2SHYzVGpYQjJtdzJvN0t5RW5mdTNJSEw1V0p4MUZnc3hzSnBOeDI1UXA0OFVmbDF1VVROeDRoYVdGaDQ0Z211T21GRkFwNUZRbjJLZlNxYUZ5SlpDd3NMWWJGWVZIVUNGTmUxMiswb0tDaGdVbFNXNVdNL3lrM0ZTZmRheTk0WDQ5WjBqMlIrQS9IR1hYV1NBc2NscE5aN3ViN0hlYjZmZU1QNTEzejJqQ2MwMmFEaXlCOHgrM2JUb1JYeG9QK2ZKQ3g0UHNwYWIxNVg1RkwvRjRYVHBDb1JrTURYbkdwRkhQSUZweVZNZU9UaTRhbk5mZmwyVTBXY2xyWGl3MkZpVFN2WnF2UkhwRDFySVVZK1FpdUVCUWl0S0xsVXA0NURhQ1ZBaUhpNWtpTzg0eUQrNlZEakpMOUlzN2xQZjhwUEIwbERjZlNrZU8vRW9oZXR2M3pHYVU0V1FjNW4yK2x6d0JNdEYwbHBPejdoSU82WDc4Z1ZGUkMxdTZ5bDdyVTIxS0VOWFkxZkRFNHpOdzFhNVhZbmxlRHAwTVpKaEQzSmZ0VnhIR0kwSlp2TlhyMisvdXNHUG1DdGE1L3o0N1RhWDVicUZrTXEvTWFuMlZDNlJEajdQZUE5MnV1UThmdFNPTTJ4WkZ5a043U0MyZlMrRGgxZkN5UklaWjdKNTNXZ2RLbWc0eUlnYWhpdElpS1p4dC93ZjZMSzExV1Zqc3NDNzdocmtaVnFvdzJBOXNnZEhUcStKcWcybXZBLzZqK3lKcHpWWGxNQUFBQUFTVVZPUks1Q1lJST0iIHByZXNlcnZlQXNwZWN0UmF0aW89Im5vbmUiIGhlaWdodD0iMSIgd2lkdGg9IjEiLz4mI3hhOyAgICA8L2c+JiN4YTsgIDwvZz4mI3hhOzwvc3ZnPg==;fillColor=none;fontFamily=Times New Roman;fontSize=10.5;" parent="1" vertex="1">
          <mxGeometry x="315" y="170" width="52.27" height="50" as="geometry" />
        </mxCell>
        <mxCell id="XvH5OOQSZUMB8_Yw51Nm-4" value="" style="rounded=0;whiteSpace=wrap;html=1;strokeWidth=2;fillColor=#B9E0A5;fontFamily=Times New Roman;fontSize=10.5;" parent="1" vertex="1">
          <mxGeometry x="140" y="35" width="15" height="100" as="geometry" />
        </mxCell>
        <mxCell id="XvH5OOQSZUMB8_Yw51Nm-5" value="" style="endArrow=classicThin;html=1;rounded=0;entryX=0;entryY=0.5;entryDx=0;entryDy=0;exitX=1;exitY=0.5;exitDx=0;exitDy=0;endFill=1;fontFamily=Times New Roman;fontSize=10.5;" parent="1" source="XvH5OOQSZUMB8_Yw51Nm-2" target="XvH5OOQSZUMB8_Yw51Nm-4" edge="1">
          <mxGeometry width="50" height="50" relative="1" as="geometry">
            <mxPoint x="40" y="220" as="sourcePoint" />
            <mxPoint x="90" y="170" as="targetPoint" />
          </mxGeometry>
        </mxCell>
        <mxCell id="XvH5OOQSZUMB8_Yw51Nm-6" value="" style="rounded=0;whiteSpace=wrap;html=1;strokeWidth=2;fillColor=#E6D0DE;fontFamily=Times New Roman;fontSize=10.5;" parent="1" vertex="1">
          <mxGeometry x="240" y="35" width="15" height="100" as="geometry" />
        </mxCell>
        <mxCell id="XvH5OOQSZUMB8_Yw51Nm-7" value="" style="rounded=0;whiteSpace=wrap;html=1;strokeWidth=2;fillColor=#E6D0DE;fontFamily=Times New Roman;fontSize=10.5;" parent="1" vertex="1">
          <mxGeometry x="270" y="35" width="15" height="100" as="geometry" />
        </mxCell>
        <mxCell id="XvH5OOQSZUMB8_Yw51Nm-8" value="" style="endArrow=classicThin;html=1;rounded=0;entryX=0;entryY=0.5;entryDx=0;entryDy=0;exitX=1;exitY=0.5;exitDx=0;exitDy=0;endFill=1;fontFamily=Times New Roman;fontSize=10.5;" parent="1" source="XvH5OOQSZUMB8_Yw51Nm-6" target="XvH5OOQSZUMB8_Yw51Nm-7" edge="1">
          <mxGeometry width="50" height="50" relative="1" as="geometry">
            <mxPoint x="170" y="220" as="sourcePoint" />
            <mxPoint x="220" y="170" as="targetPoint" />
          </mxGeometry>
        </mxCell>
        <mxCell id="XvH5OOQSZUMB8_Yw51Nm-9" value="" style="rounded=0;whiteSpace=wrap;html=1;strokeWidth=2;fillColor=#999999;fontFamily=Times New Roman;fontSize=10.5;" parent="1" vertex="1">
          <mxGeometry x="190" y="52.5" width="15" height="65" as="geometry" />
        </mxCell>
        <mxCell id="XvH5OOQSZUMB8_Yw51Nm-10" value="" style="endArrow=classicThin;html=1;rounded=0;entryX=0;entryY=0.5;entryDx=0;entryDy=0;exitX=1;exitY=0.5;exitDx=0;exitDy=0;endFill=1;fontFamily=Times New Roman;fontSize=10.5;" parent="1" source="XvH5OOQSZUMB8_Yw51Nm-9" target="XvH5OOQSZUMB8_Yw51Nm-6" edge="1">
          <mxGeometry width="50" height="50" relative="1" as="geometry">
            <mxPoint x="295" y="90" as="sourcePoint" />
            <mxPoint x="310" y="90" as="targetPoint" />
          </mxGeometry>
        </mxCell>
        <mxCell id="XvH5OOQSZUMB8_Yw51Nm-11" value="" style="endArrow=classicThin;html=1;rounded=0;entryX=0;entryY=0.5;entryDx=0;entryDy=0;exitX=1;exitY=0.5;exitDx=0;exitDy=0;endFill=1;fontFamily=Times New Roman;fontSize=10.5;" parent="1" source="XvH5OOQSZUMB8_Yw51Nm-4" target="XvH5OOQSZUMB8_Yw51Nm-9" edge="1">
          <mxGeometry width="50" height="50" relative="1" as="geometry">
            <mxPoint x="215" y="90" as="sourcePoint" />
            <mxPoint x="255" y="90" as="targetPoint" />
          </mxGeometry>
        </mxCell>
        <mxCell id="XvH5OOQSZUMB8_Yw51Nm-12" value="" style="endArrow=classicThin;html=1;rounded=0;entryX=0;entryY=0.5;entryDx=0;entryDy=0;exitX=1;exitY=0.5;exitDx=0;exitDy=0;endFill=1;fontFamily=Times New Roman;fontSize=10.5;" parent="1" source="XvH5OOQSZUMB8_Yw51Nm-1" target="XvH5OOQSZUMB8_Yw51Nm-2" edge="1">
          <mxGeometry width="50" height="50" relative="1" as="geometry">
            <mxPoint x="160" y="90" as="sourcePoint" />
            <mxPoint x="195" y="90" as="targetPoint" />
          </mxGeometry>
        </mxCell>
        <mxCell id="XvH5OOQSZUMB8_Yw51Nm-13" value="" style="shape=image;verticalLabelPosition=bottom;labelBackgroundColor=default;verticalAlign=top;aspect=fixed;imageAspect=0;image=data:image/svg+xml,PHN2ZyB4bWxucz0iaHR0cDovL3d3dy53My5vcmcvMjAwMC9zdmciIHhtbG5zOnhsaW5rPSJodHRwOi8vd3d3LnczLm9yZy8xOTk5L3hsaW5rIiB2aWV3Qm94PSIwIDAgMzQuMTMzNDIzIDM0LjEzMzM5MiIgaGVpZ2h0PSIzNC4xMzMzOTIiIHdpZHRoPSIzNC4xMzM0MjMiIGlkPSJzdmcxIiB2ZXJzaW9uPSIxLjEiPiYjeGE7ICA8ZGVmcyBpZD0iZGVmczEiPiYjeGE7ICAgIDxjbGlwUGF0aCBpZD0iY2xpcFBhdGg3OCIgY2xpcFBhdGhVbml0cz0idXNlclNwYWNlT25Vc2UiPiYjeGE7ICAgICAgPHBhdGggaWQ9InBhdGg3OCIgdHJhbnNmb3JtPSJtYXRyaXgoMC4wMDE1NjI1LDAsMCwtMC4wMDE1NjI1LC05Ljc2NTYwOTdlLTcsNC4yMjI0MDEyKSIgZD0ibSAwLDIwNjIgaCA2NDAgdiA2NDEgSCAwIFoiLz4mI3hhOyAgICA8L2NsaXBQYXRoPiYjeGE7ICA8L2RlZnM+JiN4YTsgIDxnIHRyYW5zZm9ybT0idHJhbnNsYXRlKC0xMTM5LjMyNjIsLTEyNi4yNzI0OCkiIGlkPSJnNTMiPiYjeGE7ICAgIDxnIGlkPSJnMzc0Ij4mI3hhOyAgICAgIDxpbWFnZSBpZD0iaW1hZ2UyMzkiIGNsaXAtcGF0aD0idXJsKCNjbGlwUGF0aDc4KSIgdHJhbnNmb3JtPSJtYXRyaXgoMzQuMTMzMzg3LDAsMCwzNC4xMzMzODcsMTEzOS4zMjY3LDEyNi4yNzI0OCkiIHhsaW5rOmhyZWY9ImRhdGE6aW1hZ2UvcG5nO2Jhc2U2NCxpVkJPUncwS0dnb0FBQUFOU1VoRVVnQUFBUjhBQUFFZkNBWUFBQUI0VjhKTkFBQUFCSE5DU1ZRSUNBZ0lmQWhraUFBQUJraEpSRUZVZUp6dDNDRnIxbTBid09IN2RtSjgwT2JBc3JaVmt3b2lhakNaTkFxeTZvTEJJbGdFMDhCbWxvbjRBVFFxUTRSOUFiVXN6bUlRUmNSbTBEM2g1UzN2NDRNWDg1Ni83ZDF4NUpQL2RhWGZ6bkRkbTA0bWsrMEp3QjkyZURLWlRKNDhlVEpaV2xxcTd3SWNBSnVibTVOcjE2NzlKejVMUzB1VGt5ZFAxbmNDRHBCRDlRV0FnMGw4Z0lUNEFBbnhBUkxpQXlURUIwaUlENUFRSHlBaFBrQkNmSUNFK0FBSjhRRVM0Z01reEFkSWlBK1FFQjhnSVQ1QVFueUFoUGdBQ2ZFQkV1SURKTVFIU0lnUGtCQWZJQ0UrUUVKOGdJVDRBQW54QVJMaUF5VEVCMGlJRDVBUUh5QWhQa0JDZklDRStBQUo4UUVTNGdNa3hBZElpQStRRUI4Z0lUNUFRbnlBaFBnQUNmRUJFdUlESk1RSFNJZ1BrQkFmSUhHNHZnRHNwbnYzN2czTjNiMTdkK1pudjN6NWNtanUzTGx6TXo5N1A3RDVBQW54QVJMaUF5VEVCMGlJRDVBUUh5QWhQa0JDZklDRStBQUpMNXpabHg0OWVqUTB0N3E2T2pSMzZORFkzK0VmUDM0TXpmRnJOaDhnSVQ1QVFueUFoUGdBQ2ZFQkV1SURKTVFIU0lnUGtCQWZJT0dGTS92U3UzZnZodWErZmZ1MnV4ZGh4MncrUUVKOGdJVDRBQW54QVJMaUF5VEVCMGlJRDVBUUh5QWhQa0RDQzJmMmxQWDE5YUc1Qnc4ZXpQVGNwYVdsb2Jsbno1NE5mM04rZm42bjF6a1FiRDVBUW55QWhQZ0FDZkVCRXVJREpNUUhTSWdQa0JBZklDRStRRUo4Z0lTZlY3RHJOalkyaG1lWGw1ZUg1cjUrL1RvME41MU9oK1p1M2JvMU5MZXdzREEweDYvWmZJQ0UrQUFKOFFFUzRnTWt4QWRJaUErUUVCOGdJVDVBUW55QWhCZk83TmoyOXZiUTNPUEhqNGUvK2Y3OSs1MWU1NmZPbno4L05IZjkrdldabnN1djJYeUFoUGdBQ2ZFQkV1SURKTVFIU0lnUGtCQWZJQ0UrUUVKOGdJUVh6dXpZcDArZmh1WWVQbnc0L00yNXVibWh1V1BIamczTjNibHpaL2hzL2l5YkQ1QVFIeUFoUGtCQ2ZJQ0UrQUFKOFFFUzRnTWt4QWRJaUErUThNS1pmOWphMmhxYXUzcjE2aTdmNU4rdHJLd016VjI0Y0dHWGI4Sk8yWHlBaFBnQUNmRUJFdUlESk1RSFNJZ1BrQkFmSUNFK1FFSjhnSVQ0QUFrL3IrQWZuajkvUGpUMzl1M2JtWjk5OGVMRm9ibWJOMi9PL0d6K0xKc1BrQkFmSUNFK1FFSjhnSVQ0QUFueEFSTGlBeVRFQjBpSUQ1RHd3dmtBZWZyMDZkRGM3ZHUzWjNydTJiTm5oMmZYMXRhRzVvNGVQYnJUNjdCSDJIeUFoUGdBQ2ZFQkV1SURKTVFIU0lnUGtCQWZJQ0UrUUVKOGdJUVh6dnZjMXRiVzhPeVZLMWVHNXJhM3QzZDZuWjlhV0ZnWW5wMmZuNS9wMmV4ZE5oOGdJVDVBUW55QWhQZ0FDZkVCRXVJREpNUUhTSWdQa0JBZklPR0Y4eDQxK3NwNGRYVjErSnVIRHMzMmI4MTBPaDJhbS9YL2hPYi9nODBIU0lnUGtCQWZJQ0UrUUVKOGdJVDRBQW54QVJMaUF5VEVCMGg0NGJ4SHZYbnpabWp1eFlzWHUzeVRmM2Y1OHVXaHVjWEZ4VjIrQ2Z1UnpRZElpQStRRUI4Z0lUNUFRbnlBaFBnQUNmRUJFdUlESk1RSFNJZ1BrUER6aWo5czlCL0RYN3AwYVdqdTgrZlB2M09kbnpwMTZ0VFEzTnJhMnN6UDV1Q3crUUFKOFFFUzRnTWt4QWRJaUErUUVCOGdJVDVBUW55QWhQZ0FDUytjOTZpUEh6OE96YzNOelExL2N6cWREczNkdUhGamFPNnZ2LzRhUGh2K2w4MEhTSWdQa0JBZklDRStRRUo4Z0lUNEFBbnhBUkxpQXlURUIwaDQ0VHdqby8rYmVYbDVlYWJmKy83OSs5RGNaREwrd3ZuMDZkUEQzNFNkc3ZrQUNmRUJFdUlESk1RSFNJZ1BrQkFmSUNFK1FFSjhnSVQ0QUFrdm5HZms5ZXZYUTNQcjYrdERjNk92a1k4Y09USTBONWxNSmlzckswTnp4NDhmSC80bTdKVE5CMGlJRDVBUUh5QWhQa0JDZklDRStBQUo4UUVTNGdNa3hBZElpQStROFBPS0dmbnk1Y3ZRM0ljUEgyWjY3b2tUSjRabjc5Ky9QelEzK3RNTytCMDJIeUFoUGtCQ2ZJQ0UrQUFKOFFFUzRnTWt4QWRJaUErUUVCOGc0WVh6QWVMbE1udUp6UWRJaUErUUVCOGdJVDVBUW55QWhQZ0FDZkVCRXVJREpNUUhTSGpoUENPTGk0dERjMmZPbkJtYTI5alkrSjNyd0o1bjh3RVM0Z01reEFkSWlBK1FFQjhnSVQ1QVFueUFoUGdBQ2ZFQkVsNDR6OGo4L1B6UTNLdFhyM2IzSXJCUDJIeUFoUGdBQ2ZFQkV1SURKTVFIU0lnUGtCQWZJQ0UrUUVKOGdJUVh6bi9ZZERxdHJ3QjdnczBIU0lnUGtCQWZJQ0UrUUVKOGdJVDRBQW54QVJMaUF5VEVCMGlJRDVBUUh5QWhQa0JDZklDRStBQUo4UUVTNGdNa3hBZElpQStRRUI4Z2NYZ3ltVXcyTnpmcmV3QUh4SDk3TTUxTUp0dnRWWUNENkc4Q21wTE1Tb3F5UlFBQUFBQkpSVTVFcmtKZ2dnPT0iIHByZXNlcnZlQXNwZWN0UmF0aW89Im5vbmUiIGhlaWdodD0iMSIgd2lkdGg9IjEiLz4mI3hhOyAgICA8L2c+JiN4YTsgIDwvZz4mI3hhOzwvc3ZnPg==;fillColor=none;fontFamily=Times New Roman;fontSize=10.5;" parent="1" vertex="1">
          <mxGeometry x="315" y="55.5" width="59.5" height="59.5" as="geometry" />
        </mxCell>
        <mxCell id="XvH5OOQSZUMB8_Yw51Nm-14" value="" style="endArrow=classicThin;html=1;rounded=0;entryX=0;entryY=0.5;entryDx=0;entryDy=0;exitX=1;exitY=0.5;exitDx=0;exitDy=0;endFill=1;fontFamily=Times New Roman;fontSize=10.5;" parent="1" source="XvH5OOQSZUMB8_Yw51Nm-7" target="XvH5OOQSZUMB8_Yw51Nm-13" edge="1">
          <mxGeometry width="50" height="50" relative="1" as="geometry">
            <mxPoint x="89" y="90" as="sourcePoint" />
            <mxPoint x="115" y="90" as="targetPoint" />
          </mxGeometry>
        </mxCell>
        <mxCell id="XvH5OOQSZUMB8_Yw51Nm-15" value="&lt;font style=&quot;font-size: 10.5px;&quot;&gt;Input&lt;/font&gt;" style="rounded=0;whiteSpace=wrap;html=1;fontFamily=Times New Roman;fontSize=10.5;" parent="1" vertex="1">
          <mxGeometry x="175" y="185" width="45" height="20" as="geometry" />
        </mxCell>
        <mxCell id="XvH5OOQSZUMB8_Yw51Nm-16" value="" style="endArrow=classicThin;html=1;rounded=0;entryX=0.5;entryY=0;entryDx=0;entryDy=0;exitX=0.5;exitY=1;exitDx=0;exitDy=0;endFill=1;fontFamily=Times New Roman;fontSize=10.5;" parent="1" source="XvH5OOQSZUMB8_Yw51Nm-9" target="XvH5OOQSZUMB8_Yw51Nm-15" edge="1">
          <mxGeometry width="50" height="50" relative="1" as="geometry">
            <mxPoint x="160" y="90" as="sourcePoint" />
            <mxPoint x="195" y="90" as="targetPoint" />
          </mxGeometry>
        </mxCell>
        <mxCell id="XvH5OOQSZUMB8_Yw51Nm-17" value="" style="rounded=0;whiteSpace=wrap;html=1;strokeWidth=2;fillColor=#B9E0A5;fontFamily=Times New Roman;fontSize=10.5;" parent="1" vertex="1">
          <mxGeometry x="240" y="145" width="15" height="100" as="geometry" />
        </mxCell>
        <mxCell id="XvH5OOQSZUMB8_Yw51Nm-18" value="" style="rounded=0;whiteSpace=wrap;html=1;strokeWidth=2;fillColor=#B9E0A5;fontFamily=Times New Roman;fontSize=10.5;" parent="1" vertex="1">
          <mxGeometry x="270" y="145" width="15" height="100" as="geometry" />
        </mxCell>
        <mxCell id="XvH5OOQSZUMB8_Yw51Nm-19" value="" style="endArrow=classicThin;html=1;rounded=0;entryX=0;entryY=0.5;entryDx=0;entryDy=0;exitX=1;exitY=0.5;exitDx=0;exitDy=0;endFill=1;fontFamily=Times New Roman;fontSize=10.5;" parent="1" source="XvH5OOQSZUMB8_Yw51Nm-17" target="XvH5OOQSZUMB8_Yw51Nm-18" edge="1">
          <mxGeometry width="50" height="50" relative="1" as="geometry">
            <mxPoint x="170" y="330" as="sourcePoint" />
            <mxPoint x="220" y="280" as="targetPoint" />
          </mxGeometry>
        </mxCell>
        <mxCell id="XvH5OOQSZUMB8_Yw51Nm-20" value="" style="endArrow=classicThin;html=1;rounded=0;entryX=0;entryY=0.5;entryDx=0;entryDy=0;exitX=1;exitY=0.5;exitDx=0;exitDy=0;endFill=1;fontFamily=Times New Roman;fontSize=10.5;" parent="1" source="XvH5OOQSZUMB8_Yw51Nm-18" edge="1">
          <mxGeometry width="50" height="50" relative="1" as="geometry">
            <mxPoint x="89" y="200" as="sourcePoint" />
            <mxPoint x="315" y="195" as="targetPoint" />
          </mxGeometry>
        </mxCell>
        <mxCell id="XvH5OOQSZUMB8_Yw51Nm-21" value="" style="endArrow=classicThin;html=1;rounded=0;exitX=1;exitY=0.5;exitDx=0;exitDy=0;endFill=1;entryX=0;entryY=0.5;entryDx=0;entryDy=0;fontFamily=Times New Roman;fontSize=10.5;" parent="1" source="XvH5OOQSZUMB8_Yw51Nm-15" target="XvH5OOQSZUMB8_Yw51Nm-17" edge="1">
          <mxGeometry width="50" height="50" relative="1" as="geometry">
            <mxPoint x="210" y="90" as="sourcePoint" />
            <mxPoint x="240" y="195" as="targetPoint" />
          </mxGeometry>
        </mxCell>
        <mxCell id="XvH5OOQSZUMB8_Yw51Nm-22" value="" style="endArrow=classicThin;html=1;rounded=0;entryX=0;entryY=0.5;entryDx=0;entryDy=0;exitX=1;exitY=0.5;exitDx=0;exitDy=0;endFill=1;fontFamily=Times New Roman;fontSize=10.5;" parent="1" edge="1">
          <mxGeometry width="50" height="50" relative="1" as="geometry">
            <mxPoint x="140" y="194.86" as="sourcePoint" />
            <mxPoint x="175" y="194.86" as="targetPoint" />
          </mxGeometry>
        </mxCell>
        <mxCell id="XvH5OOQSZUMB8_Yw51Nm-26" value="$$\mathbf{+}$$" style="text;html=1;strokeColor=none;fillColor=none;align=center;verticalAlign=middle;whiteSpace=wrap;rounded=0;fontStyle=0;fontFamily=Times New Roman;fontSize=10.5;" parent="1" vertex="1">
          <mxGeometry x="145" y="175" width="20" height="15" as="geometry" />
        </mxCell>
        <mxCell id="XvH5OOQSZUMB8_Yw51Nm-27" value="$$\mathbf{-}$$" style="text;html=1;strokeColor=none;fillColor=none;align=center;verticalAlign=middle;whiteSpace=wrap;rounded=0;fontStyle=0;fontFamily=Times New Roman;fontSize=10.5;" parent="1" vertex="1">
          <mxGeometry x="175" y="145" width="20" height="15" as="geometry" />
        </mxCell>
        <mxCell id="XvH5OOQSZUMB8_Yw51Nm-28" value="&lt;span style=&quot;color: rgb(0, 0, 0); font-size: 10.5px; font-style: normal; font-variant-ligatures: normal; font-variant-caps: normal; font-weight: 400; letter-spacing: normal; orphans: 2; text-align: center; text-indent: 0px; text-transform: none; widows: 2; word-spacing: 0px; -webkit-text-stroke-width: 0px; background-color: rgb(251, 251, 251); text-decoration-thickness: initial; text-decoration-style: initial; text-decoration-color: initial; float: none; display: inline !important;&quot;&gt;`\mathbf{x}`&lt;/span&gt;" style="text;whiteSpace=wrap;html=1;fontSize=10.5;verticalAlign=middle;fontFamily=Times New Roman;" parent="1" vertex="1">
          <mxGeometry x="52" y="40" width="15" height="12.5" as="geometry" />
        </mxCell>
        <mxCell id="XvH5OOQSZUMB8_Yw51Nm-29" value="&lt;span style=&quot;color: rgb(0, 0, 0); font-size: 10.5px; font-style: normal; font-variant-ligatures: normal; font-variant-caps: normal; font-weight: 400; letter-spacing: normal; orphans: 2; text-align: center; text-indent: 0px; text-transform: none; widows: 2; word-spacing: 0px; -webkit-text-stroke-width: 0px; background-color: rgb(251, 251, 251); text-decoration-thickness: initial; text-decoration-style: initial; text-decoration-color: initial; float: none; display: inline !important;&quot;&gt;`\mathbf{\hat{x}}`&lt;/span&gt;" style="text;whiteSpace=wrap;html=1;fontSize=10.5;verticalAlign=middle;fontFamily=Times New Roman;" parent="1" vertex="1">
          <mxGeometry x="340" y="40.5" width="12.88" height="15" as="geometry" />
        </mxCell>
        <mxCell id="XvH5OOQSZUMB8_Yw51Nm-30" value="&lt;div style=&quot;text-align: center; font-size: 10.5px;&quot;&gt;&lt;span style=&quot;background-color: initial; font-size: 10.5px;&quot;&gt;`\mathbf{z}~q(\mathbf{z})`&lt;/span&gt;&lt;/div&gt;" style="text;whiteSpace=wrap;html=1;fontSize=10.5;verticalAlign=middle;fontFamily=Times New Roman;" parent="1" vertex="1">
          <mxGeometry x="175" y="35" width="45" height="15" as="geometry" />
        </mxCell>
        <mxCell id="XvH5OOQSZUMB8_Yw51Nm-31" value="&lt;div style=&quot;text-align: center; font-size: 10.5px;&quot;&gt;&lt;span style=&quot;background-color: initial; font-size: 10.5px;&quot;&gt;`q(\mathbf{z}|\mathbf{x})`&lt;/span&gt;&lt;/div&gt;" style="text;whiteSpace=wrap;html=1;fontSize=10.5;verticalAlign=middle;fontFamily=Times New Roman;" parent="1" vertex="1">
          <mxGeometry x="115" y="15" width="40" height="15" as="geometry" />
        </mxCell>
        <mxCell id="XvH5OOQSZUMB8_Yw51Nm-32" value="" style="group;verticalAlign=top;fontFamily=Times New Roman;fontSize=10.5;" parent="1" vertex="1" connectable="0">
          <mxGeometry x="65" y="160" width="75.5" height="70" as="geometry" />
        </mxCell>
        <mxCell id="XvH5OOQSZUMB8_Yw51Nm-24" value="" style="rounded=0;whiteSpace=wrap;html=1;strokeWidth=2;fillColor=none;fontFamily=Times New Roman;fontSize=10.5;" parent="XvH5OOQSZUMB8_Yw51Nm-32" vertex="1">
          <mxGeometry width="74.92366412213741" height="70" as="geometry" />
        </mxCell>
        <mxCell id="XvH5OOQSZUMB8_Yw51Nm-23" value="" style="shape=image;verticalLabelPosition=bottom;labelBackgroundColor=default;verticalAlign=top;aspect=fixed;imageAspect=0;image=data:image/svg+xml,PHN2ZyB4bWxucz0iaHR0cDovL3d3dy53My5vcmcvMjAwMC9zdmciIHhtbG5zOnhsaW5rPSJodHRwOi8vd3d3LnczLm9yZy8xOTk5L3hsaW5rIiB2aWV3Qm94PSIwIDAgNTYuNDY0NiAzMC4xMTAxNjgiIGhlaWdodD0iMzAuMTEwMTY4IiB3aWR0aD0iNTYuNDY0NiIgaWQ9InN2ZzEiIHZlcnNpb249IjEuMSI+JiN4YTsgIDxkZWZzIGlkPSJkZWZzMSI+JiN4YTsgICAgPGNsaXBQYXRoIGlkPSJjbGlwUGF0aDc3IiBjbGlwUGF0aFVuaXRzPSJ1c2VyU3BhY2VPblVzZSI+JiN4YTsgICAgICA8cGF0aCBpZD0icGF0aDc3IiB0cmFuc2Zvcm09Im1hdHJpeCg5LjQ0NTQ1NzNlLTQsMCwwLC0wLjAwMTc3MTI1LC0wLjExMDc2NzQ3LDEuMzQyNjM4NCkiIGQ9Im0gMTE3LjI3LDE5My40NDEgaCAxMDU4LjcxIHYgNTY0LjU3IEggMTE3LjI3IFoiLz4mI3hhOyAgICA8L2NsaXBQYXRoPiYjeGE7ICA8L2RlZnM+JiN4YTsgIDxnIHRyYW5zZm9ybT0idHJhbnNsYXRlKC0xMTQ1LjU4MTEsLTIyOS45NzAxNSkiIGlkPSJnNTMiPiYjeGE7ICAgIDxnIGlkPSJnMzc0Ij4mI3hhOyAgICAgIDxpbWFnZSBpZD0iaW1hZ2UyMzgiIGNsaXAtcGF0aD0idXJsKCNjbGlwUGF0aDc3KSIgdHJhbnNmb3JtPSJtYXRyaXgoNTYuNDY0NTMzLDAsMCwzMC4xMTA1MDcsMTE0NS41ODExLDIyOS45Njk4MSkiIHhsaW5rOmhyZWY9ImRhdGE6aW1hZ2UvcG5nO2Jhc2U2NCxpVkJPUncwS0dnb0FBQUFOU1VoRVVnQUFBYmtBQUFEckNBWUFBQUQwWmVoZ0FBQUFCSE5DU1ZRSUNBZ0lmQWhraUFBQUlBQkpSRUZVZUp6c3ZYbVVMUGxWMy9tNTkvZjdSVVJtTGEvZTB0MVN0eFlFU0ZqQ0xBS003VE1DU2NnV2VNQWN3ZUd3RDRQQkxBTVNNcHNOQmdQMmdDVmhqUkFHaEZuTU1NZ3NNbUEyczhnc0Jwc1JDQmpBSU5DT2hMWld2KzUrcjE1VjVSTHhXKzc4OFl1c3F1NHgzUnJrNGxWM3gvZWNPRm1aR1prWkVWa1ozL2plKzczM2lwa1pFeVpNK01zaEw4RE5TQ2dwUXdja0YvSFpnU2ltUUM2SUtsWUtPTVVNMUlBQ2xFaHBsSVRnVUZ6TW9JSTVrSlFwR2pBWlVESEFRZmFZM2tEdEF1aDE0R0o5STFNd1FBdTVSRlJiTXVBS29HRGNnOW9WQUV6V3ZQd0hmNUp2K3FhdjU4MXZmUXNBVWpjR00wOHBvSzV1SGlURVBBcjEvWUZTTXVvVFJvdjhWUjNuQ1JQK2twQ0o1Q1pNK010akJjd1NMUHhBaThlanNBYnJJS2NCN3owQXVVU2NLbVlKRVNGWndjVGphUmlBSHRnZERGVFlkMnQycENNRDNnYVVCcVN3NnRkMFlVNldJeHpiWUdBQ0lwR1NRVXhSUHdBdFpnS3lqK1FPcEFGeFJHQVpqZHZhYjBlYUEvcmhWdUE2Y3p6WHkxY1Q1QWhzRGlnSW1FR2g0R1FGYkJHSE5hRUJyQ01sOE9HbUhQSUpFLzUvUVcvMkJreVk4RkJHQjJBd3AwRlNnbVQwWFZWQjNqV1VvbFhsMFVJT0hMM3hUdTc2dmRkeDc1dmVoc2VRSEZGZ3Q4QTZDTWtYOWtTSVpKbzFxQ2g5WDVYYXJCV1NEWWgwREFtSzlvakFhdWx3THFGK2plVVpWcFJTQ2xJdVlnNSs4MVZ2UjVvTHpQVkY3TFhmUWkrTzllQXdQMkM2dzRLV0xYMHByMys5UVZhUWUwaERSdVFJSjBEWm9yQWdOQjZ6RmdTOFFzbjlUVDMyRXlhOEo1aVUzSVFKN3dVR0VzNEtLb3BFUnc1U0djNHlUZ3Z2K0prZjVRLyt3eS95bWgvN1diWmlqME1JczhEQmFrVURmT0ovL1hubU8xZTQ5VU0raklUSEZ5QWxDRlVCRmxZb3MvcGhaaUFDc2lJWFE3VkRXRUxleG9BTVpBUG5JNy93eWwrZ0MwL2hZNS8xQ2xRNmlvSFM0b014eEIxZ0h6RFFIdWlRQW8wdWVNMWJ2b1QzdWYwUzNxOGd6a0NnNkJMVmpxRlhRZ081clBBdVFQSFRaZktFYzQrSjVDWk1lQzlnZ0F5QTlReHR3SzBpYmdaditJWnY1WlgvK3d0cGlVUUtDekxtSzMvTkZIeUJ6bm1XZVlzVmEvNzYwejZjOS92RWorY3BYL2w4Rm5Sc1pVZjBCUzhLck1pcHJYOXJJUzBWM3dIdUNPSTJoQlVHSkdhODVqVkhmTVp6Zm9BM3Zya2hhS1NuQTF1QkJXQWZZVTV3aFpRTFFnUU5GQ2xZdmd4eUQ5Z1dUM25pak45LzNXZlRXQVB1Q0NuYm1DYkFnNEZJVDg0SnRTM0UzOFNEUDJIQ2U0Q0o1Q1pNZUM4UXJSQk1XUXJNSlBHV3IvM24vTjh2L0dhY3dBMWdiZUJQdVROTXdKeVNjaUVWbUl1bk5jT1RVYUNJNXdsZi9Mazg0MlhmaWVTV0tPQjBYZk55UlVGWFFBdEUrbldnNlFySlBJMCtuWVpQSU5OaU1sQk1BRUdJaURpS2VaQnhBOGlJQnF4RTVteXpaQjkwQmxiQUNqNEVmRHppZGUvOGN1NjR2VVVvNUJSUkYvSFNBZ0hvWVF4ZFRwaHduakdSM0lRSjd3VWlrV0NCNjVKNDdiTS9nemY5MTU5aVo4amNVMkRsaEZtR0htTlFhRVFKdVpDcFJwUFVlTnlRMlBZTnZUcENYdEZtdUJLRTJVYzhnMmU5NnVjUmZGVmhNbktRUUc5TFB2K0x2NUQ5dDM0RzRsYjhwMTk2RThGZllKV3VFc0p0eE9oQTF1QUdKSFVZbWFhSkRFTUFCbURBenkrU2xnWFl4N3N0c2liTUNoUUJLWkFWNXhZODdXOThJSy84cmIrSFp4dFh3UFFBOGpaSnJ1TzRqRTdoeWdubkhCUEpUWmp3M3FDQTZWMzhQL0o0RHFUbnpjQ2V6VGh3eHNMV3JFWHBUQWtsNFhEMFpOUjdKR1U4bFhKMDlPYUx3cDUxT0V2TWcyTXI5and6RzJqQ3NzZGNKaUY4eUpPK2d6Zi9tUkpKa0R0d0NmSUJOUFA2aGhMQk1zbzJoU1UwSFF3ZVdPSjhRMDZiREo1QXN3M0RJYkFtY0lYSVBjQUZtdVlpdy9CMlBITWU4eWpoalhjK0R5MUxOTThoUk13Q2tUV05kRGZudUUrWThCNWlJcmtKRXg0SUJRYXF0YitKcGRhK2VSaktRQ01OV2Q3Szc4dUhjYUJMcm9hZTNSNnVCaVhFd29GQU1NV3dzZWFzd2piZUZETTgxVXVpZ0tNR0lodURoaG9VN0JRK2FqQis3bWYvaEUvL2pGOG45VU45RTE4Z3pZSDEyZTUvV0VHOG5aWkRqdXdMOGFYRlNGanhpRjhnMW9ISXVJZWVuQTNuZWdRSEpVekdsQWszSFJQSlRaandBQmpvU2JSMERLalZlcldJRUd3QWlieFczb2Q3T09SQUIzSUJqM0tFMEpNcFFFSXdUbjVpbTc5c3pHWEorSUFLZUt2RTFsSkp6Z043T1BZazh4UytoOGF1WTF3Z05qZHdRMHQyQStTekxWWlR0MFBKN3dBdTREbmdBNS80Rkg3dkRSOERaUStQcXp2a0VqRkZuTXhRMXdOS1REMUJ0eWVTbTNEVE1aSGNoQWtQQkN0QUQyVkdjb2swOUpUR00wOHRmeElDUjhHNDdqUE5Ddm9BTjFDNnFGeDNHYzJHUnlpblNPNCtpbTY4RmNBaEtGWFpOVlNpYzBBQ0x0SnhzVm56Wkw0RGhnTTZDbXQzaVpDdkVybHdwcnNmR0Vqc1lHNGZiQWVLNGxsd1pNK25LVUl1aW1qR3FkWVNoOVJRQUFsUTZIRzBaN3A5RXlZOEdLYnJyQWtUSGdoWldZbkRYTVJieGpjTjg5THlydURvZ1JzbDQxZlZRYmt3YURNVUVpVWJ1MDNBWXpSVXduSlVkUmFrS3JaTlNESUFEc01MaEJyb093NWZicytWRlpGRmdtdkQ4MURtck9jWEllOFRlY3laNzM0RWpPdUkzd1VTNkFGRlBKZmwrM25OR3c0UWI2ZzZjaFRHL21Gb3FDSFVTdGtUSnR4Y1RDUTNZY0lEd1dDV0d0WXNLVlQ3L0hVbnZKT0NENTdIWmJpMWJZbk9Jd2s2SEE1NGxQY3dSSUpJSlRZcWFRWGgrUDdweFFOK1ZITktEVitLd0d4Wm1IbkZ5aTUzMHBMZGwrT0dCQ0o0eVdlKyswNHZBd0hyRTVRR05GR3NZMEhpd3o3d0IvaUtML2xkZWp3YXFIdmhVdTFwUm1RNnZVdzRENWpDbFJNbVBBQldRRU1QcXhhbmNMQ3p4OVY0ZzY2QnV3YlB3aWR5Z3BhR29XdTRzVDZxb1VZdnJKTWhJbVNydG94TkhrNnB1VGpsMk9NSWdJamdSalBLaGd3elZmRjE1dkV1Y1h0V0x2czVMbjBONkVVb1o5MWFTOEFKcmpoRUQwaTVSZWtvNGtDdTB0Z3VnMTFqWmY4Q0R6Z2lncU5ZUkpucTZDYmNmRXlYV2hNbVBBQ1VJNVFXblFIZitLVmNqemNJd09FQU95UWVuWVNka2E1VzZ5TXVBSmRFV0NYakFxN20xMlFNVGRyOWJxbTlMN3R4bmRhTUJqbTFqdEtwY05rdTR6U1JNNnhVdUNjZDhZclpqekl2UjJlKy82NWRRbDVoSnFRc1FFSGFHMkQ3YUdnWUxOQ0VQUzZHbC9LbFgvZ0xERVNLS1NxaEpoUW5UTGpKbUpUY2hBa1BoQUxRcy9ySzU3TDZqaCtrdDB3cUxiMHJ4REt3c0hIQ2pXOVlwQUdudFpaNkVHRXdUeUJTcUlyc3ZrYVQrNG9jUTFBRXBkVCtsZ2hPakQzejNDc1IzOEE4TzBqQ1ZpdGN0TWh2YnorWloxLzdnalBkZlNIaFpVWTBxUnNjYnNBd3g3Tk5Jb0llamNkb0QrVmVQdjdaVCtVbmYvRmpDUnByWWJsT2Via0pOeGNUeVUxNFpNTWdsNHh6Q3haczQxblNsbTFNeHo3SkFQNU9rajZSaFM3UURMMXpETmxZU1dCdFBabHhOTnk0Mk1sYjA0K1BKZW81MzFzTlE5NC9pcWZqZWpLU1c0TVN6QWlNNm1uTTBhbEJhOEtPR0hNbnpOSjNVMWppcFNQWkNrZkFmRTlKaW04enFUOXJrcG5qL0ZWeXZnMzBUc2g3TkJxNWtiOEs0UWhOMjNoZm9DaWlZMzBkZ0taeHI2ZGcwb1N6eGZRZk51R1JEUU4xaDlEdnNoV1Z0dFRhTGhsdW9MNWdmaDgrK3gvakdaZ1Z3Y1FUcmRLWjk2bWFTVGd4anpqQUNTaUNzREdUbkxnbDNhallITldSdVhsOXZWVTh0ZXpBWXpoa1ZIVzFwS0JGYU1iN1lpREZ5STk2THJnOWtpV2NHc3FDRW1vZ05NV3pIL2ltRkhJS1lIZENmanpRa0VwaVQxN0N0LzZMTitFOXBLaFY4WkdSd3ZpM3gydzYvVXc0ZTB4S2JzSWpHcEdhLzdvdWNMRWtFRThlSUhsd0R2eExubzk5N2I4aDVZR0NjcStIclZnWURLSlZZNG9kRHhnVnNoZ0ZwV0JrTTdJSUNTT04yazBNR3F5U29GZ2RlbXAxNENuamUxV2lNNEpWUXF4bENJWVRRVXh4RkJxTVZxQzA4SzQ3THZHVU4vOWoxbTVBdzZNbzZ6dWh1VUE3ek9oWm5PMEJsSVRUQytSOEp5SzNJUllwSEFDM29Cemd1YzdDdmdGSGk1V0VpZ2VKNUJJd0hmQTBaN3Q5RXg3eG1FaHV3aU1hbVJVdUdhWnpKQ1pvbHd3RUFqT2tSUEtWQnFlTzlWRW1JeXdVdGdmb25iQWNDbmtrT0tnRWxhMTJPU2xqbzZzc1FqUWpqdkZKTjVwT3RJNEVPRzdwVlR1ZktDWUZzVTFKUVYydktrVWpBSW9pbEtvY0ZmeFdDMTNQN01aTFdHY2dKNWp0UUw1T0dCS1I3Yk05Z0g0SjZTSTFNTHZFNng2NUhLSGRtakpjUW90U09PS1hmdTFUZWRZem4wQ3RMb1EwdExnbWpuczNZY0xaWVNLNUNZOW9sTjZ3ZGczTXlDU2FETmRWMlJWd2ovY3NGOFo4RGFEMFV2dVZIRVJ3eGJGUVJWUEVyT2JLNmk5SmlGak53VkVOSjRuYU54bE93cHJLU1k1dEU4NDhYV2JnYkN3ZUZ5VllPWDZkaklzWGFCUldPeEM2bHVGU1pPdk4zOE5Xdng2MVcwUjBqcFhsR1IvQkFXZ1JOYXg0cWpZZUM4T2xINXRINzlEWXJmemNyMzAwejNybUxWajBlQTg1Z3B1RTNJUXp4aFFVbi9DSWhxb0FBUmV2MDBSUGoyY1BSYjczaTZGVm1yMDVGaUhPbEthRkl3OGFGRk1odUl6ekVGeXRhNnRsQWJYRHlhWkVZS1BJVGorMmFkdlYyQ2JYeGxnNk1PYmNwS28wMVRvZzNJMmhVL1VnYmx3VVRHRW1BUjk3NWxiNGt5ZStoTVV4cFY3SDNGa1RIS2k3REF5WUpjQUlyVVBkMkxQRkNiZ0xZUGVRMnJmd1B6L3JoNWpMTjBNb21DVGNKT0ltL0JWZ0lya0pqMmdjaElnYlBMaUxtRGRjRC8vcUpTOURYL1o5NUp6eFIwdnlsWVorWnBRQWF3ODcydEdHT3FYYkJjRjd4VHR3dWpHaHlFaG1sYkFhRlJxdHlxc1puL2RqUGR5bSs4bW1uczQ3d2F2aXZPQTlPQ2ZWaFI5QUd0QnV2QTJWN0E2MWRqMHhEKys3ZFJkUHZmamE2dERrQ1JDSHYyQ3YvOGVoNUVOODZNQThZWmFKL1Q0bDk3ajJFRWxBdndCNU5HVm95TTRUcFdFbTM4RXJmdnhOSkprSzZTYWNQYVp3NVlSSE5nN2hjQWNhRG5udTUvNDNqdXdHUDh3bm9HOFF1TzVJWlB5aFFYQ2tkU1lYcGF4YlZCSjN6U0piSzRkbVF4TklNaWhHdEpxTHkyWWtWWkpVQTRvYXVMTHBZVmwvZHM1c0RFRXFxSkNka0xVZ1lxUHBCSndVbkZaRkp3ak9GRjhLVWd5MjV0QXVXVjF3MkhabWZsdEFmdmE3YWJqT0lLVU9YRDFEaUt3dzg4QU1SSEEra09NYUowbzJ3Yk91OVhUY0J1NWV5QmRRdDRRc2ZONFhmQURmOTcwZmQ2YmJOMkhDUkhJVHpqV01TS0dNaG90QUdkczFxZ0Jhd0dvZlJ3Z2tEaEIyeVFtY0s2Z293b3FjRzV5NCtrS0JYQXgxUXFIZ3NpTCs3OFA4bWJobDVOZWY4eUtlZG5BZGJseGlXRjFEeCtJM0djQ2lVQklNeGNnSWVTUXF6YlhzeS9WMXZXSTFENWUwRGpGWWRUQTRhQWRvSWlnT3hYQVVISUNEN0tBNHlBTGlPUzYyNjdKREhPQUxxcldHVGpHY2pXWVZCOHhtREZzSnZ4M1JXK0hQTzgrVGZ1R2xEQ3VETHVMV0RlZ1NreFV1N3hCREEvRmVhcStWbXhzemZNeXRuaC83dVUvamIvNk5YYnkxOVFBNE1PM0p0SGdLbHJTR1owdFZyMGpDVWtSa1Z2ZC93b1FId0JTdW5IQ3VVWEtBMGlJRXpETHFDdW9BTFF4OVQ2RWg1UUFadk8yaUxHazhTTW1WQkd4V0NVNVhtQmFTRElUZExmN0xxL2E1MG4wUDRyK2RUajhGbGpNS0YzbGFteGhhV0hNTjZ3VFhnUGVLZWtGVkVWZERpTjVyWFJSMHpKSGhwRDYvcVg4clk4TVBkNUpYTzI3V0xIWk1jREkrTDhmckNjNEw2a0NEZ1MrSU04U1ZXdSt3S2N4cmhMZ0h5NTBWelZBWUd1Qnd6bU4zTXUrMzlXWm1DTzFheUVEV05TVmZJS0lRQlczbUlQT2I4cDJleGp1dmVwN3hOMytJUC94dmhhUUhFS0FVUTNLTE15aFpFYi9DZEkxNEtPTXNkWEV6TW1mZm9IckNReCtUa3B0d3ZsSGJnSXhkU1l5VVkrMkxpRWVsWHZnckNTdUtva0NQeFJacFY1UTBxOTAvRUlTR0JPekppNGxFVkxkSUplSXhrdXdqL2dLcmYvaU50Ty91U1gxQjF1RFdMYXdIaUliMVFobXNxamtSaXRRT0pwTHFoRzlMaWthUWRVR2lZU2FZR1gyckxMdUNxZENzamE2dmJiOFVxZHNmRFBFS0hxSVdqa2NRakdqS2FMLzBsVEMxUmpVclFScFFXdkpXajd0Y2o5WFFDZVdpMGQwTzhsMHZBR3Nnekt2VGNkaUI1bTdDQUpFOUhQM05Kd3FaZ3kxb213aUQ0N3A5QVIwWHNBZ2FEb0J0U2xaS0FSZFc0NHRtOU1rSVB1T21jVDRUSGdTVGtwdHdycEZzRFZKd1Rzalo4SzVGMVRQMDFiUWdCV0srcHhLYzlpQXQwaWFpelNoK24wakwrMXo2SGhyNWwyekx0NVA5QWhkdUlaVS9SOXNkY0pjUTIwSHlMaTBSbW9KRmNFZlV1T054S3hPcnJzWlFGWldPeXNxUHlrNkRnRE0wU0ZWNmFnUUI4VFlhVSt6WWhla0ZuQnFOMXZlWFVaMjVabFNPb1M3T1cxVnptODhZODNKNmVyTHE1YjZHVkpkMXdrMHpOM3pjZ3g3dXVKSkFJL000d0pDWWN3aldWbUpyVjJRdGY5RmgvNnVESlJDalQwcVBzaWMveEpwTktuR1hIQlYxOVhnSU00UlpiYmZtWlN6VW1ERGhnVEVwdVFubkhDc01UNzgydXJZQmdWSVNkUkMxSUpLb1ROUVRZNE42UjViRWM3L3lHL25CYjlzajJuV0NQbzZpbVp5V3dDNlFRU0pZRDY0ZytUYksxM3dlZGhlVTJLSFhIS1Vza0pXZzJXcnAxeHBzcUMrRmsvRTVHbXVuazVLcDVMZ0dIUXlYYTkzY1lnYXhnNkxRcmFCWlVYTjhWYnl4bkkrazVXdEpRRG5WbzlJTVFoN3ZlOEdDb1dNdk1Ca3ZUN00zbk8rSVhVSXVKSHdFOXVhd3ZhUmNoRnRlOHExY2F4M0ttdEp2Z1cvUXRBSXBCUFAwM055ZnYwb2t6S0ZmdEVDSGFxS1VQMk8zZlRSWDE4K25aUUZsRHd4U1dlTDlIS1RtYXEwRWRMcE1uL0FnbUVodXdqbEhvV1N0b2IxU2xRejBHRlk3UUZxZ3lKSlh2Zm9QS09uOStMM2ZmenRmKy96ZllyQUFzZ0t1Z0wwTlpLZXlFRHZBRVcyWU04UnJXTmpoalYvK2Riei9ZTEJhd1BVWmNiV3FUc2dleUNPNTlYV1JjWnpBcHRpN2toeFlwdWE2MW9hTFZXR0t3YXFCb1IxcjJsWVExcFc4Tmo2WVljN3h5SENyZzdWeDQ0bGJDdmlvb0ZiVm5oOU5LV0ZrUVJIV0dGMExSeGRxSnhiMllMR3pSYmkwUk5WWWZlQ2MzYy83ZW9RZGJMN0NEUjNaQnNnSlpYdk1jZDA4T0pSTW9zclNRNUFPVEduY25GdHVnMS8rOVkvblNVKzhIYk0xWG55dGxaQlNENks1S1JZMTRVRXhCYlFubkd1VVZGdGZWWis5VWFWVUFGUGlBTmJDdi8vUmQvQ0ZuL2ttVnZ3bVlKVko0cU5IaCtMQktKWHlLSDhPRUZINnVCcXIyUzd5L3FGQU03QTZVSHkzSWdod1JHV2JVVkpacm1iT3pmaUE0M09yZ3BnZzBaQml0Y0I1N0VkcFkxRjNDVUlScTZIR0JoQTlEaFZLQXpJNlZVenNaTm9BZ3BnaGV2SThJOUVSak9McThlaUtnamhhTS9wT2FJaHNEWkdENjl2c1hsNndjK2VhVDNueTYvanBQL3NJVWxSS010cEdHWEk3RmlqY1hKSXpCb1F0OEVkSWVqVEZydU5jWU1qR25lOWE4dFFuL1orODlsMy9oQ3UzWnJicEVJV2NFazRiaG54SW96czNkZnNubkg5TVNtN0MrWVpGRUllZG1zZ21wZUcyV3o2U2IvcjZmODF6ditJLzR0MHRESGtOYnF1dWsxdlFkNkRsTmdvREtyR2VIUE0yc0s1eXlESkJ0N2p6VzcrVTdad0kxenAwRGZuR0duZDRrY0oxMUdhMW9Ib29zTFRLQjNta056UEFpTGtLQzVLZ3ZhR1I2b1pCS3lHYXNXcU1JdEN0d1VWQUZITTFwMVJhRUtlWTJqSEpxY29KcHpNU3JTdVYyMGRucFhsQWhOSVlhWUN1Y3pXMnVTVU1Pd1k3U3BNTDVUTG9oWUQ4b3hlRFJXYmlXUlVQL3JBNldJYWIzRmRMREd3THVGRy9GdlloUFJidkQwakpBSSt5eThjK3UrT25mdWwvSWNnUndneXpna2d6RFI2ZjhLQ1lTRzdDR1dNSjFCQ1VXYXBrVXpKT0ExREFQS1dzVVZjN09wcFY4MGd5UlNUaUxaQVNTQ2drbE0vNHBKL2k5YTgvNFBWdnVKT2Myd2YvZUZkcWdWVVJ0dGhpd1Q2SVoyNkI1M3pNSC9QRG4vaURzQ3B3QUJ5QnJSUWJRR0tCT0lZbkIyQXRrS3h1OHFaR3JRQ2pPckpvU0FZMWhXSllIVXVBaUt2dVN6UDA5S0E1QURQU2JKeEdzQ2xGR00vYWNucmRNWnk1SVRkeEhOZUhsYkRKNlVtTitNMkFtZFVTdUVaZ1owN1pXdktDUDNnNi8vemxuMHlVSHJWRUNaZG80ZzJHOHg3TWtRR3NRNEZuZmR5aitabGYvRlE4ZHhPNERBV1NGZ1NQbGxGa2o4Y3ZwUjRmb0I2VUNZOWtUQ1EzNFV5Unl4S244K01UZXlsVlFCU3JkdmcwRHB6V0tvd1FqV0NCUElCcmowZ1VDcnUwOGcrWjhlRWtPU1JMeE1vVE1IZDNUZFE5QUJ5SndnNG11VHI1ZktJcE00YlM4OWFYZnoyUHYzY0phMnA0OGxDeGxTSERTR2k1RWhXOVlDdnFZMURKYXpNaE5Ta2xWMEtrZ0dZQkF5dFd5WkJLY25McVp5YW5mbkdwclNTSFZpZWxqY0lOMll3M0dQTnZtd0s3KzNWcUxwdGVsa0hIUnBpR3pRMXBnVlpZdDBaM3VTTmRYTFAxV1QvT0VONkdGc1ZsSWVvYXlubnZrT3h4cmlYbmU0QTFudHY1V3greHpYLytuYy9HU2YwZVNqSFUxeXpwYXBXWWRWc25MNStrM2lNZUU4bE5PRk5ZQVJTR2RJamlDYjdXc2tHQVBDTzdTSXFaeG5jVU9VVFpJWkg0bk0vNUxQNzROejZhMTc3dEdzRnRrM05MNG9ncVZhNkJtNDJPandmdTJPRm9nRFZaRTJ3VlpvY1hXUG5FUC9qYnIrTUh2dURmd28yaGt0d2hzQUJXcmhKV0FvcFJzcUVEMkZyR0J2dWxrdGRZS0NkRHdYSTFua2phRU5qSTRwc1JQTWNUQ3U1TGNHSlFuR0JxeDNrM0dRMGxtM096V1MxZHNBM0piU2F6YXVYQm1wTFRtcTlyQldzTlpvWjBJRjZ3SFVXYURKYzdmdlZ0Nzh2Zitib3ZRYVhIck5ZeVdEcm5QMy90NnpTRk5CRGFDOFQrQmgyMzhqNVBFSDc3alovT2hSVEdEaWtKVkNsanR0UnNDVVh4cnJ2Sk96RGhabU1pdVFsbmloUVp3MFlqVHYyM2xaeFIzR2k2U0dROEwvcVhyK1lGMy9USHhDSU0rVzNBSHFJN1dEa2F4N1pjd1lkQ1N2ZFVKMTU1a0dKbXY4Q2xTK1N4cW55YkpXdGE0bTg4bi80TjBBd2d2VlFsdHhCWTFZSnZLV05vTWhrUzVTUmNDV01vY2x5bloxeXYzZ3IxbHVQYldoUU85eVc0K2o3MStlUHc0MGFocVoxNm51T3g0ckxKeFowbU9WZkxDL0FDblVGck5jL1hBRUhxQ0p4ZGlMZEFFK0JsZi9STXZ2UmJQaGwwVlNmRG5udHNlcHdKc0FLZFErbFJ0NlJ4Mnl6N0x3ZU9FRnBLRHFnN3dqQ01iUVFiNTdKUGVDUmpJcmtKWjR4RWxVb09Ta2RNZ21qQyt4cTZGUFVzWTgvRjVoc1E3c0RhZThucHNaVDhiblI3QjFzN3JBd2pZYmd4UjdPWk5iUG13WE11SHR3U2NzSnpCMmwyRi9iR3I2SDhObWphZ1J1SGxhZ09xV08rVjFEUzZLVGNESU9MUUM5MUZQZ0dtM0RsaW5vT3p1TjlPMlZNR2ZOeW03dHlMTSs0ajhvN0pybVJ2TkRUcnprVnJ0d3NqaHJ6bFRGZWQ2bzQzTVpiMll3NDZCeTVkWlN0Z2JBRGZLZ2lUL3cybEJXbGM3QSszODBmaFVUdzJ3d3BnVHNZdzlONzFBUGVBQXMrN1RPZndNdGYvaWtFNnNXSGxZSTBrRXp4VTdqeUVZL3BNbWZDMlNKN0xHMERNNGF5cmhaNjc5bGZaTnc4b1BLdjJHNitnNnlQWTBDSi9hMlVmQjFRYk5GaXVZZXlSSnNsNnNiYUtPWW5jZEFIZ1hqQjUyMENGMG42Ymg1enkxM3dweDNhUUZ3ZW5wRExwaUI3UXhhaGxpY2M1OEhHWHBISG5VYU9GN252a0xqT29CdFZWVGMrM3dyU3lmSGY5WG01My92Y2Q3RUc1SmkwNU9TencxK3dqQVBycE5tb3VIR2ZhSEN6QVQvYkJvUDFPeHBlK0VVL1Q4SEQrbFR1NnB4Q3hSalNDdWYzYXhkcnVVQm82NVdIK2pWNCtQRlhYT05MdnVpWEdjb2EzQUdpQ2tVcGN2Yno5Q2FjZjB4S2JzSVpvNmVVRmxQNDFkLzhaVHhQNW5tZi94LzUwemNraEFRdVlBelZkdTh6S2gyYXdleUFZaGN4RE9lTW5LdGtjdDJDdkE2STdxQVN4c2NmQ0VzYTV1QzJHY0k5MlBVWHdhc0h1Tk5EZHdnSE5VVEpVUldHRXNlMkk3bFU0MGxrN0hnaVZUeHNZbzRiSmJldXR6WkdUVGZadEdMVmVPTFMvYVRFc2FHRVduOW5IRGQycmdydDVPZDRPbHhwbTBMd2NheTRiR1NoQTd5ZG5yNWFDYkoyZ1laZzVHMVB5WXE3MktFWGV2alFudTByMzhLNjdjajllWmM2YytBR3NJZHpoWndQZ1JuZUIxTHE2d2lJTXRESVl5bjJGbjd4MXorYnB6LzlJb0hkbTd6ZEU4NExKaVUzNFV4aHRLemltbGY4Nkd0NXprZjlOaC8zVWYrRlAzM0RBdGN0TUphUWoyaHlCeFRVSENYZUlKVUZSZmN3UFFTNVJzN1VxM08yeVAwdTRpNWk3SlB6d1lOdlFMdERRaGxLejVkOXpxL0FuOXlnanl1NGNsaEpSS3Q5MzNRTUd3WTVhVERwb1hnd3B4RDA1TGtnV0RONlhwb1Q5WGM4N3Z2VXlHOXI3SGloTldoS2RVQTJoclZnaldDaExpZVRWZVZFb2RWdVYrajRmdEtBdEtkVW9aZWFweHR2N2RpY0lyV1lmV3VHNWtTNE1CRDlJWm1FdlV0NDZiLythWEwvRURCbCtIY0RPK0I2Y3JrS3JqSi9TbXVrM1Vkc2hXakRZRzhsdVYwKzdsbXY0TVV2ZVBOWXhyaStxWnMrNFh4Z1VuS1BkR3krL1RINlYydlp4dUlzVTVCcndBN2tVTlAvQ2toa3lEM096WUdNcFlEM1l3K3NOQ2Rid2dYRnlWTXBmTzZaYnI3SGtUZ0ViZ0c5QVdXR0VQRWhrdUpsakJXNDYyemxPemk2OC9QaGJSZFk1Y2pzeHBMbEFQT0ZnMldHbFk3RjNxVzJLb2xhYzNCeExBS1BweFNZMklsNkczUTBxUmlucnhrdGcrUnlrcE1iVTJqSFNzNU92Wi9LeVh3ZXVaK3l5bm5zNkF6V0tNVVpJdU9pVkQrR2w5RmRTVjAyQk9uRys5ckJ6cHFsMzZQYjJrY3ZDcXNuR0UvK2dCZnk1emN1SXNPOUdHdEViNGV5Ukp4UThnellwOFpCenkvcWNOYUV5aTdGN2dFSFBqOGU3MS9IM2ZIcjJiYW10bUd6QmM3VjhLd1VRQStoN0p4OEwwQktCVlZGRlVvcGlNaUpZcDd3a01XazVCN2h5QmtRTURXUVNuQ0drWE1HZ1p3dlZYbWdnQzQyN1Qxb1pCc2JGRmNDM2tGT0xkLy84bi9MdXhadjVSOTg0VS9nNVBzUS9yY3ozLzQ2Vjd1MjY4SWFuRloxRXVNaEpsZnB3Z0x5UlY3NnNoK203NEg1RFdaeGljMWczZ0RlUmtWV29DMm5jbHlHTmVQOHRuYWp3ampKczIzeVg2MmRxS3IyaEdpa0xmZkx5WEZDUXFmeWM5WXd6b2dibDgxMk5JYUZjcEwzNnhScFFOdXhQR0RHbUlkelZXVWVLMEE5eWQ4MVF1NEE2dnMwOHdOMFhrc2t1Z1F2L1hmL0FSa0Vvd01laFpXN2FJS05odFdFZCtmYmxBS1FyUWRKRkJ0QVp5QTl1S3VzMHhXdTZJdjV5cS80RlpLQzB5MHNaWWhyMEVTTTgzb05kNHJEdk5mN05IeWVDTzdoZ1VuSlBjS1JTZU9WVHJYMUxROWhhd3RTQnU5SDQ2RHQ0N1JEckR0V2ZBQklJaGNQQ2ovekUvZnkxYy85QmY3OHJxdGtueUU1OEIya3MrNk51SS96VnhBeFVqd0NqVGkvUlI0NmNEdVEzMGJnVVJ6c2Z4WHQ0b2hodjlBZU5CUXllaTNBc0thc1FOZlVac3liV3Jjb2xHakl3RW5uazFIa2pRY09HU2NQSEJlRzE0TUMxR0p3U3EyZDI2aUZ6WVNCT3N4MXJLWGJIUHI3T1NzWjU5RUpISnRqYkJPYTFMR25wWXpqOXB6V2tUME5sWmhITlNjT2hpMW9pb05aSmpZUXRoeG9KbDRBLzllMnVDUmZ6V0c3VGJZT2hnWEtqTUpoVllmSmNiTW5oejg0ak5BNllsLy94am5JUndTOWhWSzJ5THlicDM3NE5xLyt2VThuMkU3TnJ6WUxzQzBXdzhCVzJ4Qmp4STJFUHFtM2h4OG1rbnVFWTRnWjV3MmhJSVJxbkJDQW5tUUx2T3hCVXZBSERNT2MwQ2laSlltTWxBdDA0WjlDdVV6MTJpL3dibytVVjJnREpUa29aOXhXS1RpSXZwcFlxSDU4TXdFNUFOWUV1NFUvZk1kMzhqamV3Yll0aUVjUWxpMzBtYkxPNkpGUmV0Qk5TSExUNVNRTDF0ZFFwYVF4TkhrYzBxMStoMDBCdUczNlYxSWp2RFoyUkxrL01XNlV3MmJkWTJJaW4vb1VBQUFnQUVsRVFWVGNrSnlNNWxHT1cyTldRandtdVhvcll6M2RadHlPQ2JVbUxsQ0x3VWRYcG5waEhUeWRqNkNRdDhGMUxXejEwQ2w1ZDg1d3k1cTVmRE5JaDFvSDdpNUt2akNHQVJ0cVc3YnpDMkdqNW5QTjErV2RldERzTGlRNHJPd2hza1NUWTJsZlNlMmZmWVNsN1pxRHZVOWg0d2Ixd0taVThINEtkajNVOFZDb0JwMXdobWpHSzloU0lxSVpxUGJySVRtYTVsSXR0bmFBN2VLYXhPUCsydnNqOTd5QS9jV2ZjN1FPME94Q3J2NTE1M1pJUThSem1UeEVISUhNZzdrZjMwdFlBRlk0T294RU5vQ0IwTTJJcTEwQ0hlKzdjNDJ1UkZodFFTcVU3UlY2SkZobnNCd05KMTdxdVMyTkN5RGVZYVVPZEJNbngwMHJCU0FKVXNlUzN5Y25OM2JiR3V2bTdMaEEzTlRRMHdwaFU4TytLYUFiaWV4NGpZMktnMUhsNmVpWXRCTVg1aWdMcXpQVEt0RWRseExVUEYzcnhoTjRJN2laVVZ5UE1vT3RGVGtlMGEwdjBwTG9tNEhTOTRoZEJDSXFNN0xkNEx5Zklvd0RSRzREV1NIaGlKSUh4TzBpdWtVWkRFZ1lPMlIzbFZhK2p4LzdtWS9ta3o3eGZXbDhnYVJreWFocWJhMjJlVTh6UkdRaXVJY0pKaVgzQ0VjdVBWSThxcFhzOGxCd25XTEFrQXRCbEdRSFJBMWMxTy9GTUJJSkZ4eVdkaWgyeEtianZrakd5aGk3azNES0EzK0djQUsyajVZTEZJYXhSbXlKTGZZSTlQemNxMytNajNuS254QmlZclVQczExSVY4RXZtdHFPNVFCc01DUzVHazlNdWFxNXdjRmcyRkNRelRUVHNVN0FqRXB3U1N0WjVYTEtsTEtaWmxwR29odXBTcTBhZHpaRVYwNGJUMDRSM2Vaa2U5cVlJbkppTHRtRU5ZOEx3c3ZKZlg4cUw5aHRIcVBHbkxlaHFGSzZVbk9CVzBacFBPSXVjUGN0Z2NmSVY2TnNVVGdhQysxN1FuT0JPSnh6aDZJWVRyZkplUi9vVWIxRUtUV3FBTHUwVGhseXdyeUJIQ0I1RjFkV0xPejVOTWNkcjJFWWhqRW5wN1cvNmpTTjlXR0Q2WnQ4cEVNTDZrY0pJZUM2U0NZU2diZTg3UWpYdkQ4WG0rL2pnbjRiNmhvU2lSRDJ5UEVHUmE3UnFnQTlYa3V0ejJhSDBHMkJIZFJCbjJlTlBNT3BSNlVBMjlpd2hTMGNzNkI4MTArOWtZLzgwSDBjRjZFb3MwYzdiTEdGSjlBM0kzRUZxNnFuSFEwZm5ZMGxBZVdrTUh3MGc5Z01Tc2RvS05tMDBNcGpPeTFPR2lRMzFYUmlYUTBmbHM2d3plczZxNS9SV1EwdGRveVRBLzc3aTdWVXhia3h4YlRqYXp2RHVrTFpGSXlQWnBsTlFidUZzZmV5UXBrcHFhbmxDajZBM3dMbmRvQkgwMnd2bWZXWjE5cVBVRkRhc0FWeUhURGljTVlxL0g4RXJDWG5JNXF1UTNTUFVpcXpxMjl3elpvK0h3RXJTQUh5RGxZeXpsMmdsVy9uOVc4L0pFYkFvR21hR3VhbVhvaVVVdjVLcnRFbW5EMG1KZmNJeHhpZ0JBcloxdnpCSDc2Qi9XdTM4dmYvN2dzeCsrc01DTWc3d1M3WHRWMFAyUkdhbGpnazZ0bDFVZWU5aUFFRDVBNHZPeVRiNSt6RFhZN2dJekdORTAxOUIwVm9DN3pCWHNTbFpXU2I2NkE5S1RyOGZxN2xFQ2tpOTJ4aGNZR2xjWHBBRVN5TkNtd1lpOE1MaU1uWWlxdlcxTW1tM1ZkMjFaNTZIK01KZ0dLNWpJYVVHbEk4THIrQWs3WmVvN21FVFkzZXBpU0ErejR2eDBxTmt3NHRvNUl6eHFHeU90YndqUVJkdWtyZzZvRm1seU5ic1gweDFoWm12c0gyQnBhQTJRNnpTdzF2ZGJzOEtYd2RKVjhGWnFBT0tWb0w5Yzh6TkNJRXJDeG9taGtwR3NVOFRqelpWaUFGSjVmSjVUcGVQR1lObVh2eDdSYXBiL21kMzM0R0gvVEJIMGpYYlk3bFpEcDV1R0VpdVljQlVsN2h4Njc4ZlEvdGpPb1VkR3N5SGJCR1NvZlRNZUxtOWhIYnJRTkFYY1FrOEN1L2VvMVBlODRQY25CMEM1bDd3QzhoZHllOUdNOHBuSXVVUEdmR2pLVy9FOFRqNGpaZjlJSlg4YysvNXRXMHc5M01tb2dtSlI5bGJPaVJWWXNjT1NRdWNhdnFKTEZzSitRVkdXdmpPTW1kYmJBaHJqUytiaWlqVzNMei9LWU9qcFBaYzhmbnpZMER4VTd1bXRZVngwNG0vNTlWN05UanluMG5FY2hvWnRsOFJSc2k3QlM2Y3R6dXl4eElveERxWThVTDJiY1UzN0FLamozZmNuMDI1N2Z1L2dBKy92YS9SOGhIUUlkcEpKWHo3cTU4NzZEMHRNelpMMTlHa0FXV1Bhb3RKdkY0blp3Q3pnTVVqRU9VT1NXR2VnRXhjZUs1eC9uT0trOTRVRmdCN3dMRmVrUTg3U3dCYlNVeWR2RXNJRzlSaUVBQXQ2S3dTeCtOcGxudzBSLzViL2pkMzEyaFBJcWtrZUxlQWZreWtuWXg5ODdxVmp2SHlEa2lzcy9TWENVZTNlV09ENy9PODc3bUtpNlBsbkxBS09TUktSUkFCQk53UWFyZFg4WXJlV1RNaDVWcS9TK256bUxqOUlFcWYzT2RSSEM2bS9LbUxNQTRKanN4eGxDd2NKL216YWN0bHBzbXpFcFZaR3hNZitON2lsVUhwUU1aTzdIZ3JPWkJuWTV5ay9wNno5aDFSZXJ0T0wyQVlNZmtLRTZQcmZMT05hd3NRN25CKzk3NmRpaWV6QjRpQitSeW1kcTUrdUdMQXFTd3BOVVg4U3YvK1RQNW1LYy9sbElBV2FGbGw2SUo3eE5XUEtJRnlSZXFpU2djZ1czZjdNMmY4QjVnVW5JUGRSaWpYWDRHQ0RrTHpnbkdRSWtkYm1QMWM0NCtEVWhvK0Y4LytUZlpYMTdsbDEvNWJqSUhWQW1RNmttd0NJMi95REQwNkRpZzVqekQrVnJTQUFHZkE5bldmUGNiLzRpLys5aTNjTGw5SzVSQ3EydDBnTHhNU0l6b0ttQkxCM0ZCVytwUTA1SXlVZ1JKaG95ZFRpeWYrRUNPcHdac1Nnbml5RlZKait2ZFpOUDFaSndNYmlhVmYrNHpmbUNEeldPbGN0K295T3greXVDa05HRWt3cUNJSzhjR0ZITU9JWitvUFE4Mk5vZytidFRzcU1YaXg2OXpKTzFJMHBEbkYramRpbGF2c0hZWGVjM2hvM25HTFg4TGVvV3VoL1g1N25qeTNxTURqbEF0dUpMNXVHYy9tWjk2NVNmaE11QjZyRGhLOXJoUU8vcVVPSzhGNHdwRkZpam52OG4xSXgyVGtudUlJNjNCejJiMVR2YmpxVE1pMXVGQ1Qwd1o3K1lrT2VMWi85TXIrYzNmZlQyRnRpb1JFbkFGYWRlMUcwU3E3VDZHNFFnWUVHM3FWTTV6REVrZTJJRldLQ256dUE4V1B1VDloVGs5Q3d0MFVoaUlVQXl4Z0ZNUTc4RXJnaHRIc3hnaWJqUlBqbkZHRmNnYk0wM0ZSb0JKcHBKRjVwaUZ4dW9Dek1weGprNHd6SFIwVmRxNDNraUlwOGhNVG9jajczKzRiVk9ZWjJQN3I5RmNzcGtwNTArRlBtV3NwUXRTVFQrYjZRUkJhcWpTQVU0b3NwbHhKNkJyWEFnc1ZtdHNkcFZaNTNqT2wrM3owOTkyQmRhSjg5N1c2NzFHS0pBU3hSeTRYWDd1UC8wT2o5MDU0bTJIbjBWT2ExcDNBUW1IZ0ljOFIxd2R6b29wcFhnbUUrYjV4NlRrSHZLSWdDUEhndk1lazBLZjlnbCtCd2k4NU50K242LzdxbjlQTEZlQVhieS9RU203bExJYXBVT2lYczAyOVN3dEsxUUh2RzhZMWdQMXpIaCtJV1M4RHNTeWl5TDhoTDJleDhkZll6ZHMwZVk3YVozSGxSWGFaM1F3dkVWY3I4aEswYnpBajBSbVNTckp4WUxrZ21hcjRVWTlaZVV2bTBKeGFtaTBXRDM4VmtPSHg3STNjeXAwcVNjRngxSkxsMDhFblk3SG5FcGltME90Y3JMT3FaK255YWFtNzRUa2NLY0lVOGFHMGtIUW1TQnRJVGNnUWJCV1VEOU9HYmRBekEyeE5QUk9jTjB1eVFldXhSMldRYm5CQi9GMGVTb1htSEdEOTZBSjlrTWFOMUMvV3hzWDRIQWhVdUlSZ1QzdWpNOWwxd3NsUVhCV0RVajBXSTM1Z21SazBnbm5IdE0zOUJCSHlRVjFBUTFLTkJDVTJmWmxkdnRYc09MUGlBU1F5MENEYTVla2ZnQ1dpQmNzS2NLQWMwdFNqampaSTV0UlVzK1Exb2plVmlkeW4yTlltQk9qNXlJRDZ5ZXRHTkk3SUR3TytET2N1MEFpWVpwdzR1b2sxRklvQ3VJS3FsUVNLelUvWjV5UWk0a2hOdmFUWkNTNlk5TUo0M3R4N1BvNGJzRTFDa0h5U2JnU0dmTnRwOE9WQnNlVjRscUx5bTB6UXVjK0RyOFRVcXd0dnNhY25Fck5EVGxoNDN3eEVVd0Y4MEp4SU9vd0ZaSUtUbzBTRE9lRVlrSVJKV2RoYTJ1SFZYSWMwdENIVXVzajA3MTh3bGZkelMrK2VNN0RYY20xN2xiNmRFalRkZ3o5Z2h3OXNNVkE0YmJaQzBtcHNMYXZJSlVaVGhlb2RZZ1VTaEx3YnZLZFBBUXdLYm1IT0JJRFE0SWJCNFd0U3oyWDVIdkpERGdlUmZGM1liWTFqcnB1SU5mQ1h1ZTJ5UGtHcmdrd2JKUHBnVFZPbFZ3OHdWOGdsNTVTcmxIbmVaMWpTSVFtUVQvalIrenQzRmF1NC9XTjNEWkUxSzlvRlp3ZDRIdWp6ZUJ0aFJzTWhrS2pLelRXQ2VVV2xSSVZHd3BhREN6WEd1Mm1yeCt6VVdtSjJyZHliT2VWQjRkUzZsUUFPd2xwbGl5MTdxcklPREdnakZNSXFsbm8yRDNwVG5sU2pvbnV2N09iQmFDU0dFNHBLcGd6VkEzZHRBSkR5YUoxZkU4bmFDTmtaV3d5bmRHdW9MN0dOSWZjRUV0TGlYTnN1K09xQlpJOGhqVTNXUEErSEhHRmorL3VnUDdoN2E0RWozT0JuSy9qUW9lVkFCUks5bFdsU2NKc3pkcWVoeVBnNlJsV0xVMDNLdXVidmZrVEhoUlRSUGtoanRlOThZaG5mc2dyZWZ6bGwzRkovaStLYkVIanlkeU5sVDAwYTQxdDVldTAvZ0lBT1dkRWRzaURrdlY2TFFMM1Y4aWxBNFNZOWlsbGhjcnM1dTdjZXdDeGJlZzkzMVV1a25Na3kzVnVTUVZyYm1XcFFpclVmRXVkTkZvN1dUaHdUbkJCd1ZQYmR6bkZ2Rks4Snp1SE9WOGZHK2ZGYmFhRVN3Y3lkaFNSR2VnNEE4NkNRS3RJSTFqamtjYmRaLzZjYktZRUhFL3ZsdnArN2ZqZTkxdWtVNlRUT3NFZ2NHcnUzS2x0ZFI1cnhrNHAzb0YzV0hBVTU4SDV1Zy9pTVR4RkZFTXBBbVVrU3ZWQ016OWlSY2JKTG1VbEpCcDZ1NWVqNFlqdldUOENUZzl5U05GRFlBZUxRc25YS0ZrSmZvVnhGZE5EUkRwMjVNWGNkV2NCV3BwWlQ1SEZ6ZDd5Q2U4aHBuRGxHYU1Ha2dhVWhwSkIzUXBZUTlvRjV6QTV3UEl1NnFCWUR4WVFWZnJjRXh5NDBtSTVJYTUyKzA5RWZ1TlZmOFRmZWRvL1FYa0d4VGJ1THFFV3gyVVl4aEJUNlUrNUkzZm8wNEw2bGFkUlNjall3cU9RMCtuY1M3MCtMZWRDNDJmUWdlMnl6WXFBeVlMaVdzaEg0QnpPakpRSHZMd0pjNGVFZnMyTjloS2VlNW5ueTRqdUl6WUgzNU50SUdWUDhJWmpxTkZDUHllblJBa0ZFMFZVU0wyaUphTk9hUHdNb3djdHRhd3RuWVE0U3l3VUZVVEJiVnBzbVNERnlOR3c0ckJTdzZMbVNzMm5qU3F1Wk1XS0lqN1hoc3V1aGk1Rk4rSEsrcDhqVW9WNFRtUEYrR2crRVdmajUvcXhMVmdOZFRxQnJBVWJTYXhJcUo4dGpnaGdRa0lwNGhGMXFIa3dJVE1RdXlXWkdjZ09CSWZhTzduMFFVL2kybXNPOGJhREo3RjJTMFFETG0yUk5pM2RIc3F3R1JZQjR2aGIyUUVpTVNtd1JhQWwyZ0htV3A1dysvZnp0NS9tK2VHZi9IVHV1SFdyVHFEd2dCUUthMlNNZWdnOUpiWlZZVC9FRDgvREFWTzQ4c3dSaVVNZ2pMeGorU1FrWlFXS3JQR2xJN203OE9VMllnOWhWdDBORmdNbFJPQ1FiLy9PSDJIR3MvaUs1LzA3Q2hmQXRRejVkQlh5d3hNN3pEbWMzNEJsZzVNVjJUcGFqRjRDTzVZNEpQRGlmc2FXdThvZDhoWWFYZEt5WmhZSHR2MjlkTkxqU0RTMnByVUJiNWttRFFRYjhDbGhPUkJ6SWcrR2xVQkpPaFo0UjV3YVBoU01BYWV4bnJRMkJlSkpLVU9ockdhb1pFVFQyRm9NU25ZMS9Ka2RpRlY3ZWhodG1ZVmFpNVlVTThVMXFUb2hYWTF6bXNwSlhzNHlaa0pPU2s1YXAwUTRNSzNGNDZxS3Vob0dGVFZNSEFrbEtkQW8ybm9HQzZDWjB0U0lkWEpDRVUvQklUZ1VaY0djUTNaWk1tZk5uRU4yMk9jQ1I4eTVPNzhmWDNkbEg3bFJuYUl0ZS9UdW9IWjZDUjdpdy8wNnVUcFFwVnpDdUVhbkY4bmxLdTgrK0dmczdod2hzY001RHhvcjBkazJnb3lsSUQzQ0dVL2htUENnZUxqL2g1NERaRUlJeEtFNmo5VnRhb29IaWlZYU9uQUZYMjREZ3pEcktjWFZoc2tCSW9GLzlsWHY0RHYvanprOXJ4d0hYSGFRVzJxaDd2bDJQNzYzNktGYTJiY2QrV2hPTnhmVy9RcEt3NkZ2K09EbkYvcm1Hb0VsaTF5dzNKRGRPOUN3eFk2bGFyeWhrQ1dReEZDTXJBNWZhc2d1cFVTT2tIR1FITGtvRnFqbEJackJOUmdGOFFWeG8rcEt3S0NVb3BRUU1BV24rYVRhSWtOUmYweHl1SVJxUHA1a2tGUEJ0TlpmU1Z0d3ZvRFA0NWdkcS84bzFiRkNTYTQyVmhhUGlEdHB6T3pBbklMS01jblZnbmJCVkNGNHNoT0toZkgxSUtKa0VSS3VPZ1FKQ0pBSVpEeVpoZ0UvL2kwWVNpTjM4NUhmZWdlLzg0LzJZUWdVcmZsTUpEQ1BjNWIxRzNyNFFtK2dlaHVsMUhyU3RWMEZsRnQyWDh3bmZlcnQvTVNQZlNaSVliMElkRjBBRjRtRFI1dERTdGtsVEVydXBtTlNjbWVNbk9xMG10Q0NjVGVVWFVSYTF2RTZYYk5ONmdPK3FRUEpqTUs2YjNFdDNMSHpUOW1lUFo2MzNyMUFxU2FDVklicTduTUJZdUxoVG5BQSt2K3k5KzVCc21WWmVkOXY3YjNQT1puMXVyZWZNOTB6UFF4UEdZd3dJV05rekNOQ3Rpd1J3Z0xMMGtDQUxCa1Vsa1pDWVFrTGpDMEV4c1pJd2haWUFSaUhZUkFRc3JFalFCWVBFMkRBQ0lHRnJFQVdyd0VaRHdhR21ZR1o2YjU5KzlhOVZaVjV6dDU3TGYreDlqbVpWZDFEajkzVDAxMTM3dXJJcmx0Vm1aVjVUcDdjYTM5cmZkKzN1cDRoYjltRU5pVWdUS3oxZ0lsM0FqZjRrbkxDNjhkVHVvT1JBOTdEVTV3NVEzQzZ4ZXZqUUF6UEVXVmtZS0puL2pyNVY4MFVGV28xZElwb1R0UXB1R1pRQ2pFMGluZ1k2YnVKbEVZLzR4bHM3Q2liaUc1WGhKZ0pNU09oV1VGcFI4MGRtaE1tUmd5WjJCVWtaRGRHeVpHYWU3Ukd1b09SMENuUzErWHQxQ2FhTXpOcTdoMzFsWUJKOVB5WDV2RTZnU2hsMlR6NXpQWklpUWxOQWJySXBCMGFGSXNDS1ZCQ0lrdWswaUZFSXNLR2dYTU91T0NBRFllY2NjUVpSMnc1NERZM2VZNlA1K3ZrRnpua0p1Y0MyRDJPcE9mTUl2ZDdKY0haUk1mQU9kSXBNWFNVY1l2SUlXWmIvdWdmK2tpKzkwZi9MWG9tVklWWVY1QXF5QmJqOEFFeDVWVVFEL1laTDNja0pRM25hQUdwanlIaWJMVlZXb0YycEI1TUlwWElSTWVuZmZKM3NaSy96cTJ6WTk1MUp3T25JRWFaZ2lNSURaQVBnRFVwbFZmeXlENG9vZHhqQWc2bDJmVXJiRmFuck9QdjRRLzg5S2N5eElHOHZnUFR5REdSVzBVNEozS3pmNGp6V0tuU1VXMmdXRWRoSU5PVDZTaldNUkVXa2dtcDg2OHhZdEhKSFU1QzZTalNrMFBFa3FOck9wRE95UjhXekJGVko5UU8vMWtYR3hHa3pYY2JBdEtKMzFLQUxqUXlTblQwMWxrelZuYVNpM2FCR2dNbFJDd0VSMzJOVEVJS1RqeHBOOUpNY0xFbUFwZEdwRWxVYjlvaElZRWtLaEdWUkxGRXRVU21aOHRBd2N1WFNxUllRTTBIejRwVll1M3B0dS9nVGZZUnJEbjAzaUUzdU9nTVBnU3V2eVFEOEI1U09zUnlwb3dHY2hOSkxoRC80UjkvSnl2NWFqYXNzWkJhYmF4aTB5RnluK2YvNnhJUHlwVXZjK1E2TXNUV2hKWno4aFRwb3Bjb2E0RUo0NU0rNmkzODM3OTFtOG9SZlRqQndocENSOGtqUVc0UUpLRldDT0dZMUZXbS9EUm9vcFNiOEhJUEpYMkZJMmFvck5pb213WVRNLzEyeFJsdjU2TS9QVEpzVjR5cjEvRlkvMTVzN0pEaGhHTFA4V3hSSHUwdXlEYWdFZ2l6TDJYN3YydTh6WFZ1d1NBRlZJV3FYdkp6Yjh2cTVCRWlJajAxR0NGc0NMakcwSk9Nc3ljMUpXY3VBa0VqMWdjVVFWS3p1NHl1M0JZRWpZMlJvSUwyUnVoQkJpZVVxQWEwZWhLcUJpRkY2a3dVRWNGaVFHSWxKR2VLV3FodDRPdnNSeG1hWGk2Z0V0QVF2SzhuVUNWUnJLZGFKRXVIMFdFV3FSSXBsaHdGMHBGcGo4Vk52cy9qaGhOZXg4Zjg0dXU0OVMvOURJR0gwQ3owSnEvMkdRVXZPWXJlWWIwNlliTzlUWlJEYXJnSGVnL05qd0tGR2pzb0QzTXMzOGkvL2dkZXk5Ly84Yy9pS0FyU203Y1U3djlpeTZzK0hpUzVsem1HdUdiYXRNa0FHQ0d0R0VQbUMvL2NtL24rdC94K1NKbHR1U0NrZ3RTYlRMd2I3QURLQmpoQmJVTHROcXZoWWJaaklZL3UxZFFOQTNsOGxRKzAvQUJFallMVUViVVZZYmlMbHNURXdHZmFaNU41SzJPOHhRa2pwN25DOEJBZHY4YWh2QTdydGt4bGhGVGFPdFBQZk1YZHdJQm1oaHhDMDdnbFEzVVdQNGtqYlBQQnFFRUNPUmdoRnRkSGRkRkxnajFZaW1qMFdhc2lna1lmUW10QjBXQkVFWW9JWWgwV3JQM3RnSmdoUTNEWlFPKzJXMW9pbGVSbHhoanBZdk9MRGhFa29OR0lTZHpaSkhvVklFVERZa1VKVkltWVJDeDBya21Yam1wZ0VpalNVNlJqb2lPVFVEcFVnaWMzR1JyU0haak1lM05xa1o2UjlmUVV6d3huUFA0SlIyMnc2b1pqRTdaaEFyM2ZpUlVuYkxZdVlxeHlBZlVZQ1VZY2JsT21DY29oc0VKaTRCLzg1SHQ1TEgwbno5Yi9nRldBYVF2ckI5YVdyM2c4S0ZlKzNLRVR3M3FrVFBENDZ6NmM3L2pPbitOWS9sdSs5OXQvUDl0d3diWkU0SEZVT3gvdm9TdXdjN3JRazlnQ1N0Yy81bVFMTHVpaUk3Yzh6VFpSOTNuVVkyVGx4NnpqUXh6VlExNzd6Vy9rYUhxR0F5S2w2NUc4b25UR1hTNlllSXE3OVZtR2VvdE44cEprUnBnUUpoS1o3dkxOdkl4WFkzU0JkUXJVRkNneFVtTkhqWkVTSXlXMFVsK01FSk96RkpNTHJ6VUZhb2pVRUNnTmJXa0NVaUQwQWVzQ2xqcXM2eUIxYU5jaGZjQjYxN1ZaRjZHTGxDalVLQlJKbVBUVU1DeGxVMDF4NmJOcEYveTVvNWNqM2Nvcm90M3NYUm5SR0p4NEVoSVdPa29yVi9vNVNGNkNKVEhTVStnb3hIWk8vSGNWWjJxZXljRFFiZWw0bUw0S24vS09UNEo0ZzNzcGtQV3hWL1RTK09CRUQvRVU2Ulcza1ZGTWxiSmRJL1lhQW10RTdsRHJLY29GTlk0Y3gyL2w2Lzc2VDlFZFB0RFN2UnJpQWZIa3hhTFF6SEVuaklIcW5RM0VPcUF5bHBFK0hlRDJTek5SUVJtM1c0YlZpZ3NLdi9yTFBaLzhpVjlPcmE5SFlvZlpYZENNaE1OTEJzRFhNL2IzU1M5ME1DLzIreGVJUzdsYldhY1ROamxBVndsOTVRK2VmanFyK005NEEwZWM4QjU2SnRac1dMRmh6WVpETGxpemFRU1RDd1FqVVJ2cFpNdUtUTmQ0aEpnMXA2eUthSFpUNW9yUDJpTXcxa3FRd3RBWHVtNGloQzJER1NrREc4VzJhN1JUVHhqRmRYdjlNSGxKTXlkQzJxSkVwZ3BXQzBOUW9pbFdCV0VnSEo0UjE5N2ZLcHFZeWlGNU8xQmF1eXNtaFNLbytvaUMxRVZTMTlpZW9kQ2w0dWdSbHdhVWxyZ3lQWlVleGFndGdSVkNLMGNtUmxaa2VveHc2VEVUUFJ2V25MTmlwR1Bra0ZNT3VKZ2U0NnhmODY3Nk1ELzIrRnRKdHp1TWpaTjh4MEJISVVzaW1WSDZ1MUJ2MEZYSXpHTWJkTytORFh0ZnIvMEhBSkpDblFqaEdLMEoyQkM2Vy96TnYvVWxmTmxmT2lIWWdJYUtVREFkQ0tINGJrUXlSb2ZhNUxJUjY1d3A2NHBHeklJemFoL0VTNG9IU2U1RndrL09TTlZFa0lqSWlOamdZMWpTNkhZVlV0cDlFMU10V0R6bk45OTJ3Q2YrbnE5R1dLTWNVVmszMXR5SVQrU01pQXlZWFhjSzl2K1BKTFlmVW5aejFwWVIyYk1sUDhUWVl5V1I4SEZDSDVFL240K3B2OG5ONFJtTzlUYUhjcHRPcG9VYnVHYkxxdjI3WTJKZ1MwQkpGRi9DYldJbEl4MWxqeWl2UkNyUkttS0dWWFhEWmhPeUdrRXFROHFrWVNLeW9VZEpSWkN0d1pTbzBSaXRZeW9ka2NyUVp6cHhBWGRNU3RISXRoaWlsVlgwaEdzVlJDSnlzQ1VNQ2xHWmFpRFhJL0xZVTdMcjVmcGtianVtRUVRSUtSQ2pRVElrVkZMd3FhNG1MdkoyTkRZbnVRNUZXcEtMRkp4Vm1VbHNHd25uYXBJYlc1TGJzR2FpNTR4TUdkL0l2V0hOMHlSdWp4L0hjOE5yK2FmeWZUNnZicnFnQzJ0RUx5Z1J0QlpXa3RpbWtaQ1BVR1p5eXRYeDZmZEpFVWw2Zkk3VEJnbHJUQU45dnlMblp3bmRCZDBrZk9jUC9GN2U5TmwvakVnM04yMkJRTTR1TmF4cXhGZ0JJMmVmRDFrS2k3YjJRYnkwZU5DVGU1SEkzQ055M09aWm5xTjZpRWhHUWtldFBUR2VZd3ljYnhMLzliZDhMVTg5L2liZS9PLzlFQklERTQ4U0NDaG5kS3VLYmlkZ0lIYUgxSnd4MjNEZmZOaGY2bzVjWXJQVzcyaUQwZ0NvMXJObVpNTk5Idm4yZjVtUS9qazFyZGhxSVlaQ1R3ZFlReUdGaUJMYWN1N2hTVXh4V3l1YW1ZajNvdXBNQmZGaXBrU1MrTXdjdzlBS0U0Rk9LamtHd0NoVUg2NGFCT244T1VxSWxOb3hhVWNuaVpDc3pXNXp4dUlraVZ3Qk1XSlVKQlpFcTIrZ3VnR0xTcUdTMjkvSndjdWtVUUk1Vm16dUdRWnJqRTQvWFNxUjByWmgydEwxUkdReVQyQlZvdnRaemlYSzVjejBTeUlzT09ra1M4ZEVUMllndC90UDlNUjZETU5Fc1dOaWdTZUdDNTdKNytDcG4vMWp2UE9UZnhTSmg2VDZMQnVPSUY0UWEwWHRBSEpCT3lBM201Zm5iWWJtNitXYVgvOVcyL1I0V1dRYzAzUk9DRGVvVTZSeXdwLzZuQTIzditYLzRvdS8rQ05CRHlGa0trcm9Cc3g4L21NdENUUG9PZ1ZHaUNNN243Y0g4VkxpQVpKN2tkQldaUW16VjUwZWdqUVRJS2tZSGYvaG0zK0kwenRydnYvdi9Rcm5ha2c0eGZTa1RZK0dZZDB6YnU1QlhFTmQ0Zmh3UTBxRlV1NzM3ZHJWQlk0cjMxOUZjWEZ4S3hhSm1GMjRmK01JVDlwbjh3WjdscWZLR2F0MFNwSG5lTGhwM3c3MkVOeTY0WkdCaVk0SmFVaXVjMW9GQTlzRnlRVUVySkNrTGtSNm9XS3FhSVZjSWpGa1ZuMGh5SVN3cGNkWW9hUmFzZUw5dmswZXlIa2dDcXhYVzdvdWd3VnFoVklTNHhoQmpZTytNcVFKa2NsYnFrTkF4YWdZa3dXcUhwREhubG9naEVRWFBTRklxRWpRNXIwWkZoS04wMmo4Lzg2T1RHVHJ5ZEs1d0oxRXNVQ1JYWkxMZTBsdU5EL3FpYjcxNlZ4V3NHRmdwT2RDYjdBSmhxTGNxVS94dEZib1BvSGZJUEwvZk9JL2dsOVU2TzQxV2NzNWhMdVFIaVpOa2NoZHhtV1IxaGU0WGIwV3JtTlVKUGd4bWs2RUdOR3FRTWZRbnpEYUhjaVpQa0JRNWN5K3JNMm05NUtsU01Fc1l4b0lNdmphVWpkMGFXamx5bGYwNE82TGVJRGtYaVI4Q2V0QkR5a1owbERJbXRBd2NpQmZndkVSQkU1UUpwQnpkL0MxaDBFMllJa1Fiakp1N3VJdUpRVkpJMVlLSWZhVThxRndCWWNyWDVzVmYvdGU2QUZmdEMvTldRUE1LbjZKM3FDek4vRlkrVTBPMDhEdDdqYVBhK0trUm1xYXkzQmhRUzJGUWlBUjJrSWFxQmlCMExvZDBoS3YwaVlORUZBdDFGRHBNQUlSRTBXRG9pRWhBWXJzcHVXSVZEcXFveWxORklNaXJzT3o1aDBaR25NelYzUHFma2lJR0VXRUZESXBCQ1FhV1Z6YzRHNWhpUnA2YWd4VWM5dXRLdG5MbWdFZmp5U3lvRkxkTzdlR3RHVGxxS3hZUXNXbENrWGlRaTRwaEliYytzYXk3UFo2ZGpQaTgvc3JIWDJJWEd3emRSV0owWGdzdklHMzh6U0oxM0R6Rno2Zmt0N0NXVjdCcW1OVmp0a1dJMDNlK3hQaU1tL05sc1MycjYyNy92MjRrRURMUkFoSFBtV3BqblJEUng2M2pOTVc0amx3eEtSclVrb2N5bmZ3VlYvN3NYekZYL3RVUk01QkR4RkpTRlJNQzJLSkZOWmdVTlZsa0EvaXBjV0RKUGNpSWNFcDVKbUpIL3FKdjhkWC9jYy93bzJEeitRZi8reTdFVjZQMGJtb3Qyd2ExM3RGQ0d2dm96Q2g4alNFUURjTWxGeXdlbzdYTjNxOE5IZS9DbXJiQWl5MG1TUXRzVjNxdndsbTd3dkpLbUFrT2FUOHhKdDR6ZlJiU0NlYzIzTThUczk3UThVNDRzaTVrYzJLcXFOUUtTU2lKU2J4NXdsVTFNZDRMMy9kbUloV3ZjOWxTcENKWklxS3RxUm9ya0ZyVWdCWmRIWmVnQzVrWDdobFJjRW9NcERqQ2tTWlFzSE5sU05GS2lXdTBCUVJyZFJvMU5DMVNRakdTRnFjU3FwMEdEMUZvRXBBcFdkSVBvMDFoTlJtM2ptQ3EzZ3BjajdKMmpxTGt6WE5XMGc3SkRlTHZCYzBOOHNJUE5GVmlTM1pOWFlsL1pMd1Jnb3lkR1FlNXk2VmpVd1lsUVM4UHAveXE3LytaK0dOM3cyNU1OVXQ4REFTTTZTSk9oNWpTOW00V1pWWmFEMXNkVGNSclZ6bjhFSllRSFVpeG9GYVIvSTBFWkpnS0ZZZVJVTEZORlBLUFd3VitlcXYvRldlZlB3aitKTmY5Q2d4UFV2Snh3eXhSeVNBakFpQlhBb3BKWHlOZUJBdkpSNlVLMThrSnNDNHc2RjhHMHAvWndVQUFDQUFTVVJCVklFVE1uZUF5SG80WVROdVNLc05aVnNSZVJMamx2c08xa2pxTHREOEdNb2R1dTZFbkVkOFQxRUJkN2pYV3JuKzVab1hpcjFqa3JhUG1nZW15WlZFOTd6SEJDN1RLMDlaYi84Q1R3MzNPTFIzSTdMaDlXWVVlWTVINklnOHpVRG1zSlVxQjdiTnZtc21sNVJXcmxTNlZ0cnMyaklmclJDRjl2dEdQS0VRbXNjbEtLZ1FHSWtoZSsvT2pKVVlhMFk2TGtBUDJLaXlMUU81cnVqRUdJWU5LUllFb1JhaGFFZko3c2g5MEdlR3VDV0ZUQkRZN0tFckpXTFNrd3ZVSXNUUTA2ZHRFM2xMZTBXaEZWUlR3MEZ0cUdzclJSYWJKUUtwSWIyT2RsUU41WHFTRzYybldNYzJyS2tFY3ZPc0xDUkdHeGhac1NVeWFNZHZ4eE9tRElPOGxnc3J2THM3WVpOZnd6TUtaL0ZKVGovdWYwWitUY2hoZERGNjlVRzdKLzBON2s1WGFQUlNuRVV6SnpxNzdwdThrYjQ3WU1xRitYMElVVkFyb0JNcFFORmppTStDSG50aTV6Ym9JZXVnM0tsZlRxQ2cxZWpEZ2JPdDR4WWhZWlllbENzL0FQRUF5YjFJRFBMMWRPR0lTdGRZNVIyVW0yekczeVR5ZXNvV29rU3EvRHJ3R3FoSElPK2xsQUJ5Q2phUTh4bEJBbXAxS2VGb0xmanB2LzRsbTk4MUxpRzN3SDYvRGZBeE5udjNrWmtnMGk3TjlPNi95TUdRT2RPUmczQ1RZbkFoOTFoalRIVkRpajBSWGZwTmtVZ2dFYTJOcnZGaVpLT3lYNlUveEVaSlVWeEVVTHlvYVpVb0RibUpJYUpPTnNFSVRnUW5ZeGdUSWoxRkNpVUVpZ1ZDRUdxYnFTTjBWS0ZwMDJaUnVKSkM1NVBIa2RZaml4U05ybWtqVVphWmJ4MUZYQ0xBWEk2MWx1UWtMSlFUR29yVGxqQnpLMDFxTzQ5ek9iZk9pYkNaTVJkSlRVZ1IvUHY1dnBMSVJLcDEzSTRQayt3dXVYdVViSlgzU0dXeU5WMU1iRHVoRys5Ui84ODNZVy80aDhUVE80VCszV1E1WVNnZGQ2ZGJ3QlUxdEtXVzZPWnIvM29udVNoSFRQbGlkMkZwMTJRRWlkaXZLTk5JREZ0cWZRS1JkNEsrRnVHTklJR05Qc09SZkJPLy9MWXY1U00vK2c0bEg1QUNnRkRzRHBGSFg3SGp1cC9pMmlNNTB6Yk9Jb3h1eDJTOWI1YkNpSmw3S2trSStLeTFDRUZSSzc0NEdYUnlScDZPU0FseTJERDBCNlR5WmFoOU9NWjR2OXZQdmgvUmt2QThHdnQ1S0d3bWxzeTN4R1UwRnZkK3A5QTBRUFBQQXdkb25FQXoyQkdFTloxQ2poUDg5Qi9ub1UrQXN0NndqcWM4eHBhSGE2Rmp5MHJ1Y2NBWlEzQ3o1YldkczVhUndiWjBNdmxZSFNuTW52dGQ2MHA1b1c2a1J4RzhyTmkxUW1kb0M2NVk2M3JKakplMC9aM2E1T1Rlc1lwejB0UEFXQ0pWZ28vVmlUT0p4U2dtbEpLb0paSWtzMDZaUG0xZFIyZkNLSW5jL3JxQ2t4SGFPVmJNaVNZdERLOERHS24xNVp4NE12Zmppcm1RdXpUUmhKcGcrT3Z5TTVHdzFvZnp4QnZJVFRVNGtoYTI1VXhLbVVpTXJDbDBiR3hnRkZjaW5uSElYUTY1b09kVUgyVXNXL0o3YjdCOTQvZlM2NW9wVFZDMlJLREtpSWlDS2lZQ1lXaVZhTzkvWm5LN0xtcTd0ZDdkY3IzMXUydndFb2xwdnNaZXFOeDVuYVFLU2t3cmFqbGxhMTlCNGc2Ukl5Z1ZHSnhrTEg2T3RBeHUwQjAycUJxQmcxZi80YjBLNHRxZklnbURNeUFaME5KN2hVa0JmSjVYalZBRmNwVlcvajhqYUkrVWtjN2dILyt6WDZKMjhGZSs1Q2M0bG04aTVtOUc3ZU9SVkIxbGZNaEhTMXFXZGlYSFM3ZSszU2R4T2NFMXBxUmNYWEE2WUVCWWdSd1M2S0gyOVBFUmlFY0VQWEF5eXQvNVY3bHhBOGJXZUhkc1pJekJxTUhmMHhKQ2MrYUlGT2tXNnZ0Q2diZSs5Wml1L201WTNFL0twWis3ZWZNa0ExbG12ZG51ZDJWeFN1bmJMSU9laWNoSTJqMy8zdXRZbmtPU2t6L0NRSmJVcVByejM5MG5mUFNYanVQcU1VMzB6WHByOTlqY2FQK1Q5VXpTdCtmczIzUE0zNmU5WStuMmZyWkxlTHMrWEwvMzJyMkVPWkdvTXZmcmRyeFVKUkJ6WlNSQkVmcTNmaTRaZ2JLaVh6K0tjVUMwUjBqNkVJbGplanVndHgzeHAwaTdabVR1UGFYMlRxZVczSWE5YTJtKzN2YmpmVzFCOTYvUFYzbElSYlVRNlRtUXIrR3R2eko2eHpPTmtFWkVSdFEyaUE3RUFDWWpwVUtRZzFmNmxWK2J1UFpJYnFvWGRMRm5PMjFZOWU0aUFlb3oyVWhvMlBxQ3lyYjFTQVpLaG40OThyLzgvYmZ4dVgvODU4aThIVGhCcEtOYUJlN2lpL2RONE9LVk83aFhSZXlQVTdsSys1WjJibDJNN1ArNGl2UXlpL2J0VWpteTkvZXEzMkRURFdKalEyWTY0bC84Qk9xYkgySjRTaG1QQXpjNDUyWTQ1MEJjd3V5alBjL28yYkJDZlVncUl5czJkSXd1QXJleUlMblVlbTVkRzdHVHpKZnZJRE5kWTVaTGU5ZkwrWitWaEJFYjBnaU40SkwycHE4NVRqS0tSWW8yUStWb0pDbXRPTmdlcVJHdGdTQ1ZWWnhJa2drb1p0SktoalFmblJuZGhsWkVOWVJaWndabWdvb1hUYTBWV1FPQmFtNitYQnVhcXhJYmZuVlQ2TExYazdNbFVTY21oTXg2TDNGZlRaNnpTTnpGRitQaUtYUEFQZFpzR0xqRmlsR1A2VGVGODNjcDNZOTFoTC84TTR3bUVNNTlyTG0vK3RiNUs5Qm9PeFpvZXNFWndlVjJyVjNkR0wwditjRjlFR0VEZW9Nb2l0Z1J2U2pmODZPZnhCLzZOejhlS2RITGwyRStoN1daUG1jZ1ltWVBIRkhlajdqMlNjNkFXaVpTN01udE05SU41N2piN1dxNWs0bFBxZm5oSC9sMWZ1bFhmb2YvL0QvNk5UTHZ3UlBaQmpnQ2JvTWMwUTFDM2hvMHd2bUhkcnhRa29NZGUvSmdMN0h0L2Z6U3Z6MjV3YTdmNXB1UkRrdUJWQ2FzZTR5UWo4aXZuK0FIUHhFT29EODBwdGRWSGlvakQzTkI3SndUZU55c3U5S2VSZGNCMjBYLzF1MlJUdUtTNUJ3ekRjM05NbEVicTFLWCs4Z2lPWmpGQ042dFlpYW1MTmhHVzlvUUF0WHZWUk1FSWNpTWNVclRuU2N2TVdva1NxV1h2SkJoRkZ0UVVVWndKTFBydnptL2RPLzZNNTg0dlFqYjhRa0RKbktKVkZKYjJ0YUdxa3RqWDVaR3YvRjBIOGhFTWdkN3lXd2Y5WHJTbXhxQ0hlbVpXREV5c0dITkJZZU05RHhkajlpS1VpNEcwaTJqbkFYNGdyY1Qvdm50ZGpadisvVVR4T0czV2l2TWJxbXlRY3lUbGkzOXVibDAyUzR2SXJZVWF2ZnY4MktKYnIrYy9tcU9FWGdJT0FlNUFJc0UxbnpVVXpmNHBYZDhFVDFuV0RueWdiMUVhcDJjMjJaS2lxdFgrc1ZmaTdqMnhCUEJ5UWNZZEIwZ0JiVU9VeUhHRVNQeVBkLy9kL2tIMy85aC9LOC8vdk84NDNkaW83T2Z3bW9OWS9hYXR6N25jN2lLa0xmdnBoc2VKWStGQnhUZWVjRjVIMzJPNXlXNHkwaHVwNE5yK2pqeDBxZlJ1U1ZTT1FhSldPN0pyem1CYjNxUzRUYVV4MGRxR2dBaldpQVFmWVJOVU5RY1V3WHBLQ2pCUEUxRmtxY0VtWG1IQWJXQWlXTWVmd1ZLTkIrak00dkUxUUlxdTRYVE8xclJkWFNOeTJoVVhFaWd6YjkwL3VoVUlGS0RJNjdZaUM2aHZSWnJTQXZ4aVFGR3BGSVdhcjB0Mk1ZZE51ZlMzUHhxakhocEx0bU1OV2VkbkltQXVhVEFSK1owWlBFak1BSm1MRDA1SjZmc2wyaUZiRDFUODd3czFwUEZlM0pMcVZkODlFNjFSQkUvRzJxN1NRMFBXZVNkUVloam9hd1RuTUxCZi9sRzlNc2ZZdnNydjA1blQ1STVoVEQ2U0tBTTFZd2d4U1VrZE80YXNwQlJyaEpSVXR0OHlKNGN3WTBZc0t1bzcvcUZYMXZKQjYyV05hU0tsaU4rNDEzdllTVmZ5bHZmK2pmNTJJL1hCZEdIMFB0MktHN0kwd1Byci9jbnJqMlNZMmJoeThoMjB6T3NKNVFCdDlkUlB1VlR2cFZmK1RuRjRvVWI3M0xUbDVPMElSZHZkc2ZVVStzRnNFYnNrSlR1a291UTVKaGlaNi9nd2IxYTRrcUNremIvaGNDdWJ6SW51TmFMVzVMZGloMGhoWmJrdXZiekFXUk5iNCtTYjl6QS9qWWNQamxRSDl1eXZURVFuMVJDekJ5YmNpU0ZQbVY2R1ZuTGhnTzdvSmU4bENCNzJ6YlpRQ2JKd2hPa3MwSVViWXF3UXJLdDB6YkVoZUJKSm9JcGNhOTNPRXNPdkNTNUsxWEdXU3B0aXNpTXNienNhQVNDQ095aFFyTVpsZm5wQ2ppS2FkZ09SWm5MaVhWR2NoWlJtZkdqTVE4a213Y0UyVjZDQXpmeE5RbVVlUzRjUGg3SXk1ZWVBSFZKY3FsUmNPYVNKRXdOeVUyelpxNzE0S2FsQittRjNyRlJkaVpXYksxbnl3R1RETHliTlNHN0JtLzY3WE5XZHcvWlhnQnZnL1FOcDhSZkZDYmVqZkFzU1NZbXk4MFBJSU5PTGptd0NpM1ZQeCtwN1NPeVBZTEt2Q2w1bnNQNTlVcDZ3Z25FTzc0MmRTTkJIMjNNYXkrZkM3ZjVqRS85Ukg3d0gvMUJWaWlSazZZMW5NL0h0Y2NwTDN0Yy96TVVGV3B3Z2ttYW1CZzRscTlBZVMyd1FZZERqQW5xRnVJYm9MNkxFQTdJWmFUamtFeWhsaE1JR1RSaEtMbEE2aElsMzhaN2N4L3FNV3ZjcEFuZXJ4Sk01bjViYW1nazdSN0RIcm5BR2xGRjFtQ0hDQ3ZNQ3ZuM1BZNTlnWEZqRU03WlVnNVh3QzA2ZTVSWUprb25YS1RVYUN1RlFtUWlFcXc1YVlnaFVnbG1xRWdyTWtZaUdaVklhbzRuMk9STHBCU0NxUnNndHc2WTJHeDA3TW1vbzFJdWxUUW5FcEZLSnNoK0VWRmI0bmJjRmdrVWpEQnZIUzFTd3l4QmdHaVFzS1lUODZrVkN3ZlVYR0poQktxSTR4WnJ6N1RIYnJWRlBoQlFpYWcxcFo4RkpvbW9SS3BGVEZxNTBtYkpnY3NDWnZGM2h1ZjEzbllvcnlVOVMyVFpmVDlhWkpTT1RHUWljSVBFTXpXQW50UFZRNUlvVEJWdVJ1b1gzb0QvQWV6dFcrelpCTFpCT01Wa0MyRU51c2JNYmRlTWFlODZhMko2dENYQStScHNJYzJBMUxleWU5ZnAvbjc5bXRpR2hUT3NLbDE2bEp6Zmk2VTdRUElodlV4Z3IrZW5mdVlaUHVyR0QvRDIwOC9HNVRmM2tEYlg3a08rbS9KK3hMVlBjb2J5bDc3OHpYekRON3lGRDMvb203bHpma3JtWTVEMEhxeXNZQnpwdTQ0cEg0RTlDeWxRaXdFZEdTUEVIcTBaNURZU1hvUHBodGdiWmJwTDdKNms1Z2ZFa3lWc1RtaXhsVTkydlNHSUxjSDE3ZmRPTnZGU29YOXYwaENjSFFFbndJcis5eDR6L2RFQ0R3dW42d0xISzVnZ3JoOWxPOEdOQkJudk82M3hKS0E0WVVPdFFqTXBMcFlhVnFFUk0wcWprSlNscnlXaWRHcU4rRDhUVE9iaW54K250aVB4YnBtMEl0Kzg1R2JTbkJSbk1nZ3dsMEpCYVoyVHRyUjZ1WENueDJ0WXBGbUpJZHJ1N1VuT0hXQWlzM0t2WUNBUk1idTBmbHVqdlBnek50d29ydE56bHVUOEN2MjlxVUlydk80b09Ma2hTRWR4cytWWGFuMjYvY0dxaWRuZzJmdDRnV0pDRnQ5SWJIUGc4YWc4ZmZjUVc4SFpXWWFEeU9wZVlQdklHZktIaitEL3VBRS9md0ozSm9UM1luYmIzdzg2NEJTa3VnSDE3Z0JCU2p2R2ZZbEEyUHU5Y3JsaWNMMFEzQnltcDhUMENMbmNKb2FCV3B6UkhXS2xGb0Z3aTBya21ic2pqOGozOEZ6NXMzU3hiOG50QWVuay9Za1BRcmt5b3lwSW1EM3NxcXQ3Tk5Ecy9haWFpVkZReTRoVTBDUG1jUlN3UWZPYTJHV29IY1FSTlVYRVM1Skp2dkhsZmZuWFBpN0xuNi9HdkJGY0xvS1pyV1d0a1NUcjNaMXRKcERzL3E3ZksyRXllQkpzSnN0aWEyZ0tOWUtBck9qcUNjSXhFd004TWNBYlZ2QnBCVjRiNFRVR2p3aHlJc2d4NkVNS040M1lCZFlkREpJWjJEU0c1WlprbVJpMGpjMlpGalBtV1ovV21aZDdramdacFZmWHpjM2FOeS9tVlpMbEpyYjI4ek9uaCtSRlJsL2lyZkVSbDVLbU9oTEUya0tzZm9pTjN1R3BSUkdqQ2NQM3c1Ym5FRk5VNW52UGZialVlb21nNGd4TGJDNkZ6aVFOWjJQUzBOck9DY1U1b3JVVmF6M2xheXU0OWxncml5cXpqTUdUWWw0S3NWM3p0WFFLVHlaaDJsRkR6N1pKSmNabEhNK0t5WHEwRE5RdDFJM2Z5ajJRdTgwSDRRenN0NEhmQW42aHdpK1BjR3RMWUlQS0tjZ2RVTVA5WWIzdjZTU1RRbWpQV05yV3dGNndqQm5jQ2NaeTY5R043TXFkYzh6NytCZlMycjM2d3kzckNuQVRWcmRnK3pBZjlqcmhiZS82Q3lSVkNJWllSR1FEMWo2cmN3KzQ3Z3lIUHBUamczQUtPa0pRYXMzRTJJRkZwaWt6REg3aEdoMGhkaFM3UmJKSEtRVmlISDNuYi9kQTFvU3VVR3RIa1EyUk5WMjhRVzlmcyt5bUg4UUhLSlplR3p4dmwyaTdwSFk1ZkxFSnRxTnQrSDFuZk5TajFtTzJwbkJFU0lmSXpRaFBEWFJ2aEh5WWlBTm9KK2lzUW1pZWsyZ0ZGY3kvT0pvS29TM2FBUlJ5OUZFNzBwS1NOcUk4QW1xN25rVm92bytCUUVIcEVRS3pJK1djUUZpSUpyVWxJMnVwekk5OW4vWG5yNktLRTBOOENsNGhXQ0RJRGtmVjUzM0U1dCs1STh2U1cyc2tHZS9IT2FHa0ZlemNvSG12RHpNbk5Wc3dvelErcURBYk1jL0lEVUJiajg3dkEzVmhVajUvbUdxVitmSE55MUljb1djU1pla1hOcTZwK1B0dWV6ZE12VXc2bis4RDRBVGtpWWljSFRqS1BGV2tIQkEwVUxuWEVPeDJPYytlbUx2MnZiYnpQU05kMkU5WWw3Zm9jM244S3Z0U3IzemR2LytyZXcweENRUWVSK1dkTU42RWVNbzdmdnVZbS9MdDNMRi9uMDdCd2wxRVQzQVdxN0daN3JEdUg0YTBBZFl2OWhUM2ZienNTUzRYNkZMQXpIZFlJb0doNjZnVHhKaXdNQ0ZFRXA3Z1VqK0N1dFpOOUpnYTRUZmUvaTV1MzFIK2pYL2wremd2cDRUNHBVeDFCZkhVMGQyRGVEL2loVC9NTnU5c2x3U1huTGI5UE4wYnZEQjdjcDl3a2xwSnM4ZElDRDJKRmRtT01EbkJoaVBxU1FldlUvaHdnUTl6QllJTWM1dlBNSkVGWFlvRkpNOW8weGY5R3Ixa1poSWhocjJPakMvK2lVcEZVWVFraHFFWUNiZENuaTI3S2tweUhOTUczdTRTWGNVbkdNeEZ6MEluRWJWQzN2TlpuUDB0RlNHSUw4YUpoTWc4cHRRVGJiV3cyemUwNTVtcEk1N0NaZ1FubU15bHl0aUtxU3hJanBhUy9TZkdiTmxWMjNzMEo4Zks3RUc1S3lVWDhjUTJGMmpMak55c2E5TVRBclBiU1YxMGRHMjRxblE0QXpSUkxaSXRrU1V3U1dKTG9OYzIxTlhrVXNJUndlZmdEVUk5Z2ZCRWs4elpDdDZwY0RzUlM2YTJCT2NXYWx1V3VxVjVaelF3TmhSSDIyRmQzV2JOdmNyR21yWlpabEI1dnVidStvVlh0N2FnRHdNUjZvQ1JHUkVPNUsveHkyLzd5M3owUnorTWhuUHF1S1liWUQwY1ltUW1GWWJyQTFwZnRualprMXhLQmRXMDBQd2hNK1l6aG1GRnJVcVV3UFlpc3pxQTJQbGlwQ0tvOVR6NzdBVS8vd3VuL050LytIdFIyVkpDb0J1ZUlKZHo0QTdPMEx2ZUYvSExIKy9uK1RGQnhKRzJMV2pzYW9SZEFweVJYWHNNZEk2K2w3N2NBVVpQNVNZcVJ6QWN3MG1FMXdCUENqeFNtSTZUdjRVZG1EZ1NRMXdMSmdhaENpS3Q5aElNYlZJcjJuZ2F0N2ZDbmVERnBRcWxXVzZ4Snd0UWlvL0FvUkRNOFl4U2lJM0VzUi9TU3BGQnJIVjhKaytTTWlGN0g1ZjVQck05c3BnbnhEbjVTV05nS2dtTUJhWFNVbzlZczY1cVNYQ0h6R1JKZkg0TWZyenpjK29pajNBeVQvRVgzUjZUbXVnN3R0dU04R0pMbkg3ZWx2NmJkQTJ4aFlWa1VtV25sWnNkVUt5UldxcTJJYXpCRGRCVUFscWgxZ2JqVlpZRGRXS3B0SDFUUnRjQmJyYjNmenJBYktBOGw1MjNZeGNJaVdBUlpjTEl6SnNvWGNxTEFTZ3RrZTFQRzk5ZG03dHJkbWI3dnBEOFpUK3V3OW94WUxZbFNnZHlUdFhFc0RwZ25KNEZmWkovOFdQK0xuL3lDejZPYi8vdVArSnlBZ05rUU5BMlVQaEJ2T3c5T1oreDFNYTd0N0VVY3luTXhFdnB4QXpXVWFVd2FlSS8vZktmNXV1LzRac1FQaGJoRVdMYWtNdUpXMjJWRExHUzZzTVUzbzJMdUIvRVN3dG5Rd3I5c3Z0ZkRKU1h5eU53bVRVNWk4RUg3d25RZWYrdGpSUkZEbkNTeVNOd3NJYmpDSTlBZkJMMHlZSzlCbmdvd1kyS0hFWHNFSDhyVDRCamYzZzRnQlNWRkNIS1NBcVpQazdFVUFpeDBzVkFTblBSTFRmS1JjVW5vVG1lV1ZFYkYxUDNwZzdNUmIxcFRpZkxFYnB2cGZmWVBPMU1jN2VLYUxvak96WXM1YTRUMHBDWnUwT0s3ZkNaMGwxQ2NoNTJ1ZFJ1WHA3VXhvSlUwdkpiZzhYTDBwKzROaUxON0U4NTU1WFFPbzJoa2M4amRZOVZ1WE5BOGE2aDk5NGN1YzNJVGhjWnd1eHdFcmxnQUNLcUhiWENhSTdpem1SZ2xFaTZpT2hHWVJ1d3JXSG5CaGVDbkF0MkFlRWU2RjJEWnlzOEF6eVRDTStBdmhlNFpjaWRESGtEZWcvaEhzZzV4aGF6MnBEdXZyU2dBQlBMSkFQdzd5OWRrL3RJcnJMelNyMmVxSzdyZS9KMGw3NWJVNHJQcFZUekVqM0RPVkp2SUdWRkN1L2didjFhYXQ2d0NtdEN2QXQ2ekVKOCtCQ09seDNKMVFJcEdiQUZpV2h4bGY1a0VMcENiTDUxWC9qbnZvQjEvVk44MTNmK2ZQT1MrSFRpVUNnVGFERUlGMWhaazdxQmtnMlYzeUhaa3hUdXZkeUhjSi9HZnRuUkU1anRMUmI3eWUzeVpJQlpFakR2bkFkc1lWUDZQRFE0QURrR1ZqQWN3cEc0c2N4TnhXNFk0VkRRSVNBSnRET2thWXRWVzdWcVhvL3l2RFFaRXBxTGZ1eWFORkt3RUpmZmc2T1poTGJlV2NFSUJKdUlNclFFRnhxMjhlTko1ZzRsODVFMjhMRWtPdWVRQ21wT3k0OWllL2QxeE1meXpQN3NaWmxnNEw5VGM0ci9IQ0t6Ukh4dndSV29zNW55WG04T25LOFpaR1lSN25wTlJscnVOek04cXduYXRISUZSNm5LN0svaWYyTTJJOHV5S0FsM1NXNUJnTHZ5WkJWL2Y1VkF4bEFUaW9YbFBOVGl3RW9LU0JHczdzSFdCdkFrQ1dGSTJLcWdROEdPRWpMaHBlblNveHVCamZobXlXYmpnQkhhdjNiWDVYNEovWVhRM0JYWndGSnhtTS9iVlZMS3F6L3lkSXQrZUl4cE5LQW5oUU5pNnNubGQyQjhBdU1VaThwVVZ4ekx0L0ZuL3N4SDh0LzhuVThsMk1rTE5kQS9KT09EVUs0OGh6WlpHeEZDZ3RwYTRnWGhXLzY3bitXci9zcVBNSTJmUnVGdHhNNlE4Z2hxbVRKdUlRclVnUzZ0eU5OZFNoNElvaGg5NnljOWlQL3ZjYlhQdHArMDlwdnhpbkRBTGhIMlRlL1dJellueGE3MTg0WUZ5UkdPZ1NOblpoNGFjZ3podUZLUFFWY1JCdkdISlZ6alJ0dVlMemZEcW1IRjZlOVlSSU5DaXBoNWFWQXNZSkl3TTFMemN5eE4rTjIxMTF2ZElaR29sWVFROFBsY3Nja0x1cjJTbHJUdW91RkpLalNFbGpDU0pMcW1acHZMaXo2bFlOYzVtM3Q0SW1YNWQ5alJZSEJORzh0NURkYU8zUnF1azlDbUJ1eHAzd1JtTm1DdzBFcTNTc1hBVWhPQnoyWGowUDVHYUNYSG5UbVpkeHJUMHBPckpvc21yalpOWFdtOVBHc29iNVRaR0sxSENSUnhabWF4Vm9MVkNCcGN4Rno5cTlUZCs5ZVlRdTIxdGMzTU9zR2hZaVBJSVQ3NmVodDgvTFd0MExIcERjMUY4RzU5Tm5jc1cySmRFbGZ3SFpFWHJKMUtlSlZnWXZQOHh2bkVwOGJDM0M5anZ0cWJWbXVtY1NURWlNZ3hwWno3K2VWeFF0eWc5VkdvZDZGVGNuNmFiLzJPVzd6em5jL3hBei8yV1dEcjY2OFIrd0RFeTM0TzFEb0NYYU5hS1pVTnBvZjA4Zk5ZOCtsYzBBRUhrTTZobkZDeUFXZWtvVkRHUTM4RGVTMTV1a1VVd0k2b1hJQmxhcm9INWRWK2tiN2FvL2tsUHE4SE4vZU00RktwMGhJNzBYZExjcTFBNkJaZXZhTTVHVHo1clN2cDBKQWpzRlZBZTFsTVVUUk12ajdOMW9TdG91MW9UcHlDcndFUkNCS3BadEFJRG9JUkxDRmhaaHRDRkdHZUFCN2FxOG1xM3VNVmFZbkxkaGU5K0tETEhkWEY1UkFWSmJVRVkzVE1yRXJaNi9uTUJjT1pET0pZeVJCOEV2bU1SMm9qOU13bHhZWEZPWHQxTmN1eEppcEFXL0x5WEJHV3ZsMWNaQTYxdGIvOHZTaENJMm5BckptclMzbHk1Mms1c3k5bnVVS21XeHhTZGtYZWVlNWMycFV6TFZIRnlUNjFKZGlxUXJVNDgzVGF6VEFYNU8zZVUydDdKNnZPRmgwRU9RekloVjlPTVJuY0FOVUFVd2Vha0twWWRjOVlvNEp0Z0RsZkpqRFhGaHF6MjBtYlR6ZGZzMHU0dk1EZGRVcDd2UElDdGVOWGVkeUVjQmV0ZDRGallDQ0dMV1lSYWlYeUxwUTFsdDhJOFJhRUxULzg0NmZjbExkdzI5Nk1PeEo5YU1mNzBaUEw3VUtCV21uakhuekhpblVVOFYyVzJFaXd3VCtVT1VCWDBKcVFVRUFTTjU5NGhIVDZ0NmpkaHRPejBWbFc0Vm5RQnoyMWx6TXU2K0RtZm1pSEw5VHhmVlEwOWt1WlBVam4xOERzV2lJZHdncXNsU2NsRWV3UTRkZy9jQ1E0Q01oSnhCNlB5Q0hZY2ZXUzVjTVJPUUZyZlRkWmdhMFZPd1lPZzFjNjU1WmVCL1RxVTM1U0pmU1FVa1FHb0N0WXFxeVoyaEhWVm1LY21oR3pMOXVEYnB6aWIwb1VJNGxyM3lTNHBpM09TYWNKak9kMEVSc0xNaTdhTzdmMW1zdU04M0k2MnlEdmhBMVgrMjF4a1VUTUpKbllTRFlCd2RSbEN0NDdTNDF0S010anpHYkJ3RXpDMlNVc013RkpudnhwU0k1NU5sMXNtamhaTEwvbXNwL25KRTl1b3lSTUkxUS9lMFdjZkZKVk1FMmN4Mk8yd2M4VUdZcDZGNnhtUWJiQUptQVRzQVcyQ2xNclBaNkRiVUUyWUZ0RE5nTG5ZUGNNN2dvOEI1d3EzQkU0cSsxbkFjNjlUaTJjWXZvY01PSmk4YkZWYmpKenIwMG9tTFR2WjYwY3VTVy9HYTN0QzhiWmUzeGg1Mzk1LzhZWGYvSEg4STNmOGxtRUNzRkxGV2oxajNNRmtoWkNTQ2puWUJPQmgzWm9QRnA3MFBXT0YwMXlWb0U0b1p3VE9VWkx3blhkUHU2aFRvSFlTRHdsRzZtZk1BYW1Xb2dSS2lNUHlWdFFNc3BENUhBSGRDQW1SVFJTTkwvdkozOFFMem5lVjVLVGhzU2VYL0xkOWVXRXNCTjV0MTZjU09jOU9GdmhmYnlEZHQ4REFzZFVWaEFTbkVUQ1NVQWZGazl5TnhSdWdOd01jQUoyYUhBZ3lNcGN3M3JVYmdjQ3E1YjhXbldVQk5aWDZBTEpnU015Rkt5bktiNk1lUzcyekEwY0tBeHFKTDBnbVBmYUhIOVdZakFrN0F5YXdaUGM3RWZwS0ZFYjZzdDQraW5OSThUTFk5Yk9ybU1mYVhRT3gwNXpOODFQZkdvb1RwYmVvZXlSVmN4Y0lsQWw3aElkTTJkemo5alNVT2crNnZQUk8xNnlOWmw3Y2kxWk5hS0pkNkppRXpYTVNVNDhYVnRrS3dIUkRxM1NpQ2VCSWhHdEViUElHSS9aaGtoV0lXUTNtOTRDbWczWkNseUFUUVpiZ2RFOEoyMEZPM2RGQU9NdXlka0ZjTmVRZTRMY0JUMjFKY25KWFlFN2dwMEJaVVRzRExNemZFTElCSklScG1iejVZbktaN1MzaHVCK29yTjVUYmxhanR5RG5wTDN5cGIzYjNRTUtIZTVzUCtFamcxb2g0Uk1ucFF1dGFudHMvR0crcXpXMUFGV1VSc0o0ZnJQclh2UmNxVmI4aGxSYmxCeUlMVUVOMDRqUTMvZ1RpUUFkTVQrbk1LR3MvRVIvck8vK2svNTVyLzlVeEJYN2NOOUFSeUNiSkdrMURJZzd3TkhQSWdQWE5pbEQ3cXdMSjU3OTlnSnYxMGljR2xJNVpMZ2ZEaXE0NCtCV1F1MyszbFBsWVNFaUEwUldVZkNDalFaZElJazhjcFNiTTg5VzFVMXowZmcwaHBrODlmNVpkY0lZWllRZ0tRRXhjZ3BvallYMmlKVi9BNmg5V3pVOGlMV1ZpcEZnaGZ5V285cmFOaHRyZ2JPRkEwUko1WVUvUDVWRWpOT3NyMnpOMDhPVHlSbWZad3NCK09ZRUFPVk9XbjV6LzErMHFRVFlVRmFUZ3paWVVHaGFiK2tJYi8yNk5yTW45ME96Sk9oSWxSTG1NeG9icTlIdCtkNVdkbE5MWmhhQ2RyTWsxd2h1TGJQUE5IVkpnQTNFN1RRQmhJRFJaQUNXbHJsSnF2bm5zSlN0clFaRWRndWFTTUtJZm9iMGtzckVnaXlFdVJBcUxuMUcrdHFkNUZLOEJKb2FEMVFnNTBST08wNjlkSXpWaG9HWDE3bzdzTkFxNkhPZGZGcjBaTjdhZUdUMTFlY3BLL251LzZueitWUHZPa0pncTdwdWkyd0FlbThOZEJVRnpIQWR0b3c5SjFMaXU2RGVORWtGd1J5cnFoQTZpTFZ0a1JXRE4yUlh5K2lqRmxKSFNUNVNCSi9IcEhYa20wRTFsQURkQlgwTVFnRlpJdGxBdzRKWk83L3ZkUXJGZk9IZDU5eDFwSlhXelF1MzIrWDRHeVo5ajNmZDU3YzNDSG0wTXJ2NDJWTFQzYU80S3hyeEpLVnozZGtlYWhnVVgwQjJpc2UrRm9qbHdsd3ViMVVqTlljVzhoMTgzcnBGUWJ2V3hVVGw3Q0xJeHlaVVk1V3pIckVsR1R1V2Vta0pTWEVwclV6YVl4SDc1Y0ZsR2hHc0hsZVhFVEZxSXZxYkRmRTFNK3VMNXh1RzUwV0ZMajdmWk5pek1lTExRbHJPUWN5ZTZERUpjRlplMTlrT2Z4R3NLRGR0eEV3SExINWZ6NTZ4OGtvZFI2TEk0MHhLWjB6T0p1bXJyUUVtWWtFQXFxejE0c2pRbXJBaWxDbHduYXU5UUFBSUFCSlJFRlVVb09nS2o2N1V6MlpNdUZseWl5UXpYdmp4WkFpVUF4VGNaTk8xVjJQcnZVaFRSUUpZYW1HMDRPTkxoeG4zY1NRdGdMdC9GeGJXR2kzZnVibXFRVitGaDNkN1RHRENVNFNncjFrOTBJa3RhdEVxL3N3VW9LU0dUWHpoVi93ZzN6KzUzME5ZM21hM2xZZ1VJcVNVaXZ4V2dkaFl1Z0RwWUxSMGQ4SDlwZ3ZqdVJLb2V2YXVKUUtNUnhSZENRRzQzLzdpWjlrcS84QzIvT09ML3JjN3lid3RSVE84RUdKajBKOEZ1b0tzUW1yRjFEWHdNY0JkMEJPVVRsb1RLRUg4WUdOL2QxcDJ2c2FkbjIxUytodS9qNDJjWGRxNWN5RTJUeGRvTjhqblBTWFNTYjBFSHFJQTZRQVEydmpObDdLN0dZQ2JUbHg5VE5CeFpIQkpRSURpeHhxWnRxSmlBTktaazY2bzBOaWFJbFBxRUd3NkF1K2tCekZBYUtSUkVLYkV3cEFVVTlzSVlDN0plN09WelREekVYallvRVFBcFVtMHpackNIRW5IU2l0WHhZSXJwSERIR20yakt5eVMyYUtZV0t0TkxwUGdKQW1JVWlMSkdBblZkZ2gzZGtocFJWVXNWWjI5UHQ3WWpFSmJYNWN4TVVVL1pMUVpoZWIyc3FjODdUd2JJQWt0THJnZnU3UldYVkhTUTJHcWtJSnFEWTJiTEgyWG9YZHhxVElndVM4M2RXSUtOcU93c1N2Z3pDTDNOWGZ3MkJZOUp3bVBkalFTQzJhMkEwK3JuNnAyc2pDdEd3WGl5d00xcXZ4dnBMWGZPN0RsYS8zWWJJcno5R25OekxwcnpPVzUrakNWM0lRdjVweiswcTBCdFpKbWM0SCtqVVFSa1NkcUpKQzNaMm1heDR2enE0TU0xMVgwVmhST3FvTS9GZGY5NlA4RjMvMWYyZkxMK0MyRlFuQzAyQXJRdDloNVM1V2p3Z0VyQ2g5V2xIcUZyWDNBRENzSDJLOHVQZCt2WVFIOGJ2RkZXM1E4Mkl2eVYyU0NjelJFRVBiQWMrVEJtd3ZLWnJ0SjdpRUxIcTREb2llT0dVRk1UYlVwcERNRTk1YytaeXJWZk91WGx1RmFXWjV6MXJmdUx2djNKcHlvcE0xdzFrdjV6bEFxbDRwRUVGamUxQk0zcnRTaUJaSVdsR3hOdHZOQjU4bThVUVVDSlFnbmt5Ym5WZ1JJNm00QjZWbEwydTJKT1pQa1Zydngrbi9jMjh0dEY3YXpMYWNSKzNVcGFSbXpEeFExd1h1dHNqV0dLeHEwb2E4N3NxYk0vTnpKc1FzbkU2VFZwNzBLUVhXYnRVU3BXa0txd2hxelp0eW5pOEhTem16RWxHTEM2STF4RWtzNmtoT2lpZE5VM3dNVUpuenV5SkZrR0tMUnM0bWtBbklyVVcyeUVFRVZBaU5xS3RFdndpQzdNRlVnU2krR2VyOU9nZ1Z0d0dqOTQyd3ROcTFDR283UTJkSGMzdU15L21jaWpUZ3VJL1U1bkw5ekJaV0xpZTIreEhWZFV6bHZjQWhzVCtnMUEyQkoxakozK0E3L3NmUDQ5LzkvQStuTzRSY05uVFNOaGNDUG9oM1E0clgzL3Z5eFlrbndKUWhkaVAvMnFmL0NSNGEvalEvOVpOUE0ra0c0eERpWGNRTzNKdlNqTml2cU5NRm9BemRDYm1jb1NhSVpFSWFxRmtKTWFMMUZ2MzZFYWJOQitkQTc5OTRvU1MzLysvVkxvRzlRQ0lVaVN5R3lzc2tnZDVaSDYyZUpBMjkyVXc4c2NhdW5QdHlZUTNkZ2E4YmErQzR3cUhBT2pqWlpBVjJZSEJneUVGQTFxQzl3VXI4L2l2Z3NIMC9NRmRHSVNteURyNzRKWU1veEE2MDkyb1d2VUlmZHRLcEhpUVpNU2pKS3FsVytycjFBcXdweVFyUnFvT0hBQklEMnMvbHNEWTUzSlJrRTdFV2dtYm9vak10eFJmYXhsZGtvZktZdUR0S3MvbmFZUXJQME5VRVpDZFhuL3Q1WWYrOXNOQzhIejNSbVBnaXZSaFZlMXBiRXA2MmtxS1pPSHByQ1E2Y2VKSkRvTVNaWGRrdFNHNFdwU3RDbFg1aFdWSURtbHRsc1NXNU1BRWxZQnJJSVhtNU1nTXFGQVBMUnRnS3VqVVluWUN5bUpGa2tMR2h2UTFJRnY5K0F0czBwdVVaMkYxRHpzQWE4NUlOY0tISUJISVIwQXNJVTBGdEN6Ymljb0tNTUNKY1lMTEY4TkUwWW9hMU1iRCtRdWJHN3FXTUM2SSt1bWg1bDdaNzc5Zis1K24raUtFUGpCTVFib04rR1BEYi9ublZBMEJZcjM2YU81di8zcmM4WllBNCtadW54enRDeWpXUEY0VlJtWkhQL0l6djU1LzhrMmVvL0Q2SXo1Q1ZkaktVVVBxMm84ckU4REIxK2gxU2VveFN6aGp6cHRIV2pqQXVxSGtGUElmWk1aRTNNRzJlNDhGUTBnOTA3RitVczhSNS96YkhMS0s5V3JLNUhITVNYSktrN2YrdHRpdWV4OG5NTFQ4eGlJRVFmU012c3RjQ2hCM0R1MWpyMndBYUhOSlVhWC9lWmg1QmU1RHZ6RlVja0RaZE5qRzBaU2tBclZoWm9rOEdFQk1tNitsUnNoVk1iZEZ2T1Fid2NwM25qdWhIWTdYMWZocDZzdGpBNGt4bzBYWmVmZEdjelp4bm5kemNIWnBqdGdrRzcrdk5MMVhhODgyNkxXdHBiR1pFV2tNdGprQzlKTHJ6dWd3VXM2WWxiRWxPWFlzM2swcGMxelpiZmMxYU9HbEhOZXZuNHFYK254cW9LcUt5M0VJTzFBUmFaVUZ5WmtCMklrcDdVbjhmbS92Snd1dG9wVXFydUJOS1hRNXN2cmo4SEl2dnJSUjhReUR6TmVEbFRLa1IwMWI3WHFER2ZBMzcyZk1YdHArZzluV2V5d1hTdnYvZEV0bjloZWJHNlJCNEY4Z3hwRnRRbmdDOUIvRVowQnZVN1dmdzFJMXY0MXUrODdQNG5IL25Cb2tqUkk4eHFhaG1ZbGk5MG9md2trUE10b1lOclJTa21HWkttUGp6Yi81NXZ1TzcvaUZNeDYvMGEzd1F2MnZzZnlqbm5kZWNnQ0x3UWhUZzNmVHVRTS9PQkJkb2hzdkMwRW8rTGhGWWpKaWxBeHR3ZGZjQUhFRVhtcWF0SWJoalFZNWsxNXM3QUk3TVVkdTZNZXI2QmhpUEtySUt5RnI4ejg0OXZBSG9ERHVRM2VEdEdlR3RnWldUVXZ4M2VvbmdRalFrZ2dTanp5NXZIbXFoMTB5U1RCQmRrQnhKS0dtRnh0NXhqMDEwWlVOUVg5R2RIekdYK1VEanpFOVVvcWtUWG5MeGJCc2p2YW9QS1JVaFZzVkg1UWlFbmZqQXpPWVVCOWFoNGhPd3hkVFg2ZGhUZzl0eHpkMjNpSXVqclNVM3FoR3FrRU5BelJhTnN4SW9JWktqajhJeDY1Y0pCY1ZtbWNLYzNNU2ZvMWhMV29MTTdpWFprS0pVOCtleDBuWVRxZzZRUnJ3UHQ0MkVDWFRqUDVQV241dExsemIzNjdaK3N3MXdZY2k1SVZOd1g4c1JseUJjQUpzSzI0aGM0SktETVh2ZHNucWpWbXdMWEdDYzQxbHo2MDltYzcxN2J1eE8wQ1FmdGpDYTV0M1Yva1p0L3JueFBOUkhZemZkejlFWjFDUFFwM25va1IvbDFxMmZ3R3BIRlBIOWJHMGtJZGk3eGtaRUkwSFNici94S281VUdFZ0trZ28vK0dQZng1LytuSWtMdlV1ZUxsaXhXc0Q4ZzdodWNWVUVPOGZsbittbG4xMzV1by95Yk81bGlQZmdHbEVGYWZSakFXc2tBZ215KzFOTDljN2FobHQyMVBJRkJZQzE3N1V4d1plMWFEYWtud2wyNERxNWd0UHhRMEJDV01wMTBPNm5CZzN4SklPaWJ0V0ZHaW1vSDBadGZhaUdlaXo0TUYrcnpVYkxJSFZoWVFEN2RBekRKT0t6dmhWVGhTcVV1QlBYMTBZV1RSaG93WUtiTDF0RHRJYTFJYWplTjV4ZFhFeTk3aXFhVUhFak1SRWhXa01wSXFncXBvMitiK1lVZnhwaHBIVUhxMFNtSmdDdjBqRzdvTlQyZXk5Yk5nUllRME5nQmtYUStmMlk4NFVHdE1qdXZkTG9pdkRDbm96QTN3OVpuRStzSlV6QlpzYmxYRDFzZytkbVVvcTB4VlJrYmdjSHBKV1RxK0JDWloyYnVETjdzbTNnUlAyNk5DY2ErWDNtS3p1MVA1b2JkY2VOQkhjaHU5dWxzVkpYZTNUM2VlUUQ0QTVkT3VTNVovOEl4K0gvWmUvZGcyM2J0cksrWCt0OWpEblgybXZ2ZmM0OTk1d0xGd0tYUzZHb3dRY3hQdkpRRWFGSXRDU1lwQlNKb1JSSmdrOUkzU29SWXdreEdGSW9BWU9JcEJMTkE4M0RXR3JGVkVyVWxCR05LS2psQzZtb1FSRHU4NXg3enRtdnRlWVlvL2VXUDFwcmZmUXgxOXBuSCs0K3I3MVp2V3J0dGRlYzR6WEhIS04vNC92YTExcjdUbDZ1L3lGUWtlbU1OQ2FXZW9IV2tYRzB4bGFaMHljQzNHSU1zbHp3MGdONC9wbi9DdElObjJBS096NlpDLzRaWExkcmVBTEhhMStCcnhXam83R1dJNDJ4eVpMaHpuUTI2Q0c5bElFa2FQWkpLMVlMcTZBbW13QVhkWlhUMHdNSzZGSmhTcmJnS092N29zWUFzb0dtRHU1Y25IeVp3Y1RZNnYrbitrUTdDcElzamxhelZRUnBaUTRCMVVMeTFBRVJvZFRNck41UFQ2RktZYXlKckpXcFFGS1RFTXVnbEd3VktUT1ZwTXBKS1FZOEpWTnlkaTVnVlJkSEttbUJtcTN1WThsbWZrL3hFUkdHWXZsNnFna3BOcEZYR1psMVpFbUpGSEJhQzZLejVjTzVuaWtMTE1sWTJTTHFpZUFEaXlUbU5ESjM1YjBpUFVCTFh1ZHhKeThhYnRZb3kxV3cxSURpN0sxL3ZXS3ZHMUd5dElGSm12eXNzM3BLZ2NYbWNIT0tON1V6V2JOMzBzWlY1ekowOWN6OWVLWVN4QXNROUF5c3krTmtqeVdKKzBZYWEvT0hLaXhuVGxwcHJ4N29YTUZRTEZaM1pGNTVtbVRMaDQwOTN0eW9Ib0RiUE5DUk0va3VYcnozTlR4ejluSG1lc3FZVGlFdlVFNHB5NFVWQThrUE1Jbi9uVjgyYk1oNTROUGU5MmxJK2sxTjBoYjJ6UG1EVUc4ZTZkelg0NTA5am1KbEQyVnlWOFhvZktpMTJWRk4zbC9PRzVTNk9XVk5EbSt6RUtCb0VtS3hqVHUrZXZaQWhWckY0bkIrR0Zhb0lxME92YkFrRWloZ0U1QVc5V3h1ZFdPY05KVzJ4ZU1VWndrUzlYM2RKV2FXZWZFc2RGRnpEQ2IxRWw1cE5MYVRzcFBMYkwyN1NNWVVsMHJXbU9zVGg4R2FteVlxUTYwTWk1aXNsekpWUnlwcmN4Y3BDM2twVmhCWkJ1WWtyU2xzQm5KMTQyQ2JrRDFlcG9OM0NSZ1lIT1NLVGtoUkNFblRXZEZTQjRxZjFpSURtcXlqd0V6MmZMbmNZbllOdERyQWp3UnVEcnFDV1V2cFVGZndaTnVIdE85NEU5VzBKbG9DL3lXd25HVjF6N2FjU0ZscktrZWNyM3VvcW9KOVZqVjNwMTEvdVowalhNQU5QNnY0MTcvV2xjR1liMWU0V2RvdXJuQlZlcXpPbk1PekwvbDB4ZWV1R2djdTJKM01USWRia000aExTekx4Q2ZkL0s4NThBRU8rbUdtQW1NMlZTSVBGcU1yOHczU0U4Si9oaUlETDMvNFI3bHo3OGY0S1ovNlgzSjMraVRxOE1rd2Y4Z2VPVi9UZTNrOTN2N3g4Q1RYTlorb2Y5MUgxL2pVL3FiOXZacE1Rc1p4UUZNdldVTHkrRnd5eWNpTkd4b21FMldWSXoxM1dpcXdLTW1mMHRXZjdHVnhsamE3ZTFERnNkVFdGUVZ0MTZFMlVDU0xUNDVxS0ZwdDNWWkFwYnFQVVcwaUxDS2VKMllHbCt6TldHdFo1L002R3VFWU5JTXFWUk5qWGFqRllsNGxHUUF0SWd4YWtMSlFsNFd5SkdyT2xEcXlpTWZldEZDV1NsNnNhUEk4UkRzYjczWlFDaFNsbElwSVFpUlIxVXdWbGNIbHhvSEt3RkFYY2pIOVRseldWTTgxWEpJeHRDVlpPUzVyMVRPd1ZFdVBzTlpySGNERmp4TmxadEM1a2lheGxsYlJQYUNveGVkbVJhcDZHeDBIa3BBZ0o5QWk5cEJTL0R0ZC9HUjIrWE15MDBwRzZpeStiVHVPQnRqdHVOd3A2am1TTlJMS3NWUU9hYzE1WjcrMlZ4T0tmZlYxQlRPdGpjblIzcnVxbEYxL2J3UmpqS2VCcDNzTXU1dE1GeFdydjNZR25KUHpUUTdsbndQL09lODkvWi81Sy8vd2wvUFpuL2s4dy9nQTZtMUkwYTM5bENkQjBrMEoySThqTHp6M1B2NzIzLzg2ZnRwUC8xdmNXTnpYbjViWFhQbDZ2QlBIQ25CWHBneHNBS3g3djFFd1kyd2lrUzkzdEwyalBEdHhCaFdWK3RzVGVTZEhxVDBFUWhFMHpBZzFKa1phNVF5TkNUSEtFYzVIUHg0L2FzbmlFMlphbUxwbDR2K1Ryb2FIcWJwM0lWR1d4RktFc2dobGdWbVRtU3A4ZlMySldSTVRBek1EWlJHV0Jjb2tsRGt4RjdQakwyV2dMQ05Mc1cyV2VXQXFBMHNkT1dobUxvbXlESlFsTWRYRVhFY21IYTE4ZEIzdHZjbldLOFZBYlpLQmd3UGNYSGNHbXRXT2R5NTJ2RXZKTERVekx3TlRHWm5yeUZ3elV4Mlo2MEN0TzByTjFKclFPYU1YZ2x3SWNxRndyc2c1cEF1OHJxU1pQdVNRMEVNbEhVQU9jVTRGbVhXdHlPd3BBQnpVd08yZzlsMjVBVVhidVJjcjg3WEU5Nmhyc3JpelB1a1lvM1FBSjg3WXhBazdJcXhsd2VMYWp0OURCUEhzT20wOTkwSUlqdGZwcElYWGt1blhPMlFkVHplTEExaW1CeUNWM1RpUUdCaFVLT1ZWOG8xM2cxUmV2cmpMNTM3V2QvTS8vYTkvZzVuYkxBclR2RERrTTNORVB3RWpNVUZOVnRQdi9UL2xHZjdoMy92VGZNM3YvbnZjM2wyUXJtdHVQV0hqK0tKN3JZc3dyVlUzMm4wZFRLY0h3WjdkOWF2TGtTd3BXNU5ubUV2QTQyNEtrOUVtNmN3Tk9tTXhuS25Bck0yTkYyWTVjYWVlOU1BMXI1T3hITVNjZVJkaUUyNzdTWmEvZFZDWUVqb0pPdWNHZFBhVEcwamhFN2JPWWpVYmF6YndXSVJseWl4ellpNkRnOHJBVWdibWtwaVh6THhrQjdMTVJSMll5OEN5REN5ekFkeFVCZzUxNUVJTjZPWXlzTXdEWlJyUnljQXdRRENXS1dXa0xnUHpnaDNETEpRbCt6Rm5sbXJibWNyUUhkZklYUHd6VGdLVG9oZkFoZGp2Z3pTd3NwL3VuRjBrOUJ4ZnpzL0ZRZUNRMElNNHdBR1QrTitDeGdQR2hYOGY4ZUF4cWJrcld6TlYyc05OMzNkT2l3UGJwbDVwOWJRSkRKd0N0OXJGZFN6Slh4NHIvK3JmYnhzNmV1OVl1cVI3L1NmQmtGZkkrWXhwbnFnOFlORkszZ25sd1VleFNqU1pHZmpLTC8waGZ1blAvelBVREhuY01lc0hvMHJiTzM2a3NqdUhtc2wrd0V1R3IvKzkzOEgzZk4vbklmck5iKy9SWFk5UGNMejIwMnFydG5HcGg5eDJhUGNFSEd2YTZIV3ZsYzJ0Ly9lL3E3ajhoRWxPUHJHdGNpWUdjRVV0cUxTWU1VWGo2WDhwbldzUFh3WlNNSWVESnc1UHNySzRoV1pmdCtvYnFaV2MwZ0sxSkt1d1h6UFZHZEl5Sy9VQWVvQTZLY3VNczZmTVhHQldvVlJocmtLcGlWSXpTeFZLeVN6K1hpbUR2YTdDWEROTEhhZ2xHeUJXY3pzdWFtQzBWR040eXl6b25LaEZmRjNyNHhicjFtTE9lZnNSU3JHNHByMW5qSzZVZnZuc24wOU1kNTFsWlZtenk0dnhkMWU0ZjJYTHN2NS9XUjgwMnYrNzl3akE4b2NVbVpVMEczTkwvcDBsTC9TdklUbTY2YVE2c0lsZkQ5WWtGM09xcXJHM3VJNVN3cnN2Yks5Z2UwaDdsTDMvS3FCNm1Da3JKTTArWVBuMGo2eTNLWXZuM3dpa25WQ21GNUQwWGlnMy9JRjNZcEpYK0d2Zi80TjgvaS80MDl5OU96TEtlOTd1UTMvZDQ1RVZUMFRld3cyK2lRZThDcHhCZWdEeUFDazN5ZXhZdUFCT1lQREVGcjBCTmJFYlRwZ1dhMkYvUGQ2cUVjNnprVmFyc3N1ZFcwdHo5UlhjSzlGbFFEd1hUaGtRZG9oMVpLUEpRNHpBSGt0d00vTko0b3lhZ1J2SjJ1U2M0amx1RlRLa0U2dFlvanRnVk5Jbzl2ODk2RkF0MzIyWHVtb24xU3FabkNiTGd4c0VUZFVxbnV5QXZTQmpXazBxUmJvY09laHJTeU9zWnBnTU1waUJKU1UxTnlnVnNiNVJsb09XUVhkK3ZJRFdoYlB6aVZ4QlUyTGFKYWJUZ1Rva3NpcDVYbmoyN2dPV2NXRFpqZWc0VXBPOU55d1RzbFNHdzRGNW56bS9zV2ZhMmI1MmMyRjNtQmd2Rm1zTU95YW1mYWFNMlI1QXFwaFZIMGhVY2lua1VrakxZcVc3eUV4a2FoTG1QSzdHRWdDM1l6U0piMGttT2M0ZVk5dXdiNFU1V1NXVHFYcE1MdmtEaW0xRHBxRkwzai82clZpVmtwQXRweFgwMUJQQnVhak8xTTJSS1pNZ0U5UVptQ3R5bmd4b1hUNU56amJyQVR2dVE0VlNyUWZNc2lLc01MdEVmcCsxeXNuaVFiN1FzN3NEbFNQVWJ1K0ZlMktWSWRhU1lhR25BcDJCWlIxUGhsejNlT01jNFFXVUF6SllxVVowejcvODh5Yis4dC84Ylp3MXI5Z0ZaclVlV2JTUTBveHc4bzdJTkhoa3haT3FQOEkvL1pHWCtEbWY4VDNjNXhYMnB6T0gremRRWmhidkRXZmRGRytTNUJtcTJzVTJMYTlpZDhHVG56SC81QXpoNFUrcXZhUHk0WmRlMy9ubXN0elQvdzZIbTluMVc4cUJ1Z1JWTFpWQWl4Tkd6NCtxWHNld0ZyVk5MR0lHcHlVMkxaWXJOWHNGa0lvYm9OVGxxMmczSTdURU9UY3NlRkZJcEtyVlFoU2ZtOXd6b3lwSXRWU0FXaTFKZXhBM3IwaklyYzc0cENMcWJLdENUY2tjbEpNNThZckhscWJxOHFCNDlaRUVGV1ZaRWxvcXRTU1drbGptWkcyQ3dGcFdUVUpaRWdsbHljN2txc25FdVdhTFhia3pGRTNvVXJ5Z3RVU0tHcVZtZFBFY3UvYXNHdCtEZjArZS95YlJTNVE0bi80OUg3RGVjSk9zR0VHWVZOUmphQkZUOWUyMWRJTE9OZG5GM2xwN042MmRrYVdhYWFqSmtyYjlGc04xNXI5eFdWN1p4WHU5UU0xVUlyUTZsSXFuQ3ZoVFRiT0xyemwyWnV0TlBFckYySTdYTXFvODNTT2xUSzNuZ0tLeWdINmNRZDdMRDN6L3pNLytqRC9DRC8yenIwSzBrdW9KODZ6c3JCRTdhVGVzejlkdjgzZ2t5SW1lOGxudit4VCs0UWQvQ1oveEtWL0k0ZjV2WmhoSGxtV0VOQ0sxY3JJWERvZEUxVmM0UFlYejh3dElleVM5Z0M0dnZ4V2Y0M3BzUU9qeTVDQ3ZCL3cySmJ1OFVyeXVMazJKU3ZZdGV6ZVpZVnZTaXE4VnRGVHJLbHl0dG1KeldsYkFFNFdieFg5SmdaZDJuT0tnbVp5SEpzeEpLZGwyRStrQzJETzNVTzM5WURCT1RNVmxyanBJT3k2VVprZTNTaW5xWVVNL2VHZHdWRWcrMGRmSm1aNWthc3FkOFU2b1JUam9hTW5acytmWmljVXY1NnFJWml3THdhUkVKdnNPZEZIS01pQ3pVSk1CNGp3a1NrcElUVkFnQnlnbHF4V1ppeVZ4YXlTQWk3a3FrNEs0czlSUGlwMkxaZ0F5Z0pORjF0eHBmejRBaTdYSkxGNnRSRmFBcWI3ZFlHNGR1SWs3S0xVYU05TkozWnlpOWhtanRHZnhHS29ETFhPZkdLNXJxa0lmdzYxK25FVmR0clNIaXZZZ29xeS9xUmdUMCs2NkhUeWRJRnlXTXkxeHM0Rm54ZXF4cm9hcDQ3dGx2VGV1YXVyYzMydFB0N1FwclpDMVFua08wZ1Q1UUpyUCtKRWZPZU5NL2d0ZTF0L0pUaGJHL2N4U0hqQU03d2J1b1BXMjNhOXY4M2dkTFFDc1NPRDczdnQrRnYxL0RlRG03MlFZSzh0OFFIUGkvUEFTYWJlSDZRWE96KzhqbzZMTE0ranlFYTVyVTc2VjQyRXhpajVRZnhTdkUzOC84dUNBdFNQQld2dXlGWEp1NlFSdVNQRS9XOUdJcW00dUVTdUE3S3dPZngxeHhwQjhYN0hKcUd3eWU4N2RZSytKelVYRzBFS0MxSFZxVVF3OFk5SVd0YkpUbWozWk94N2kyd1JuUC9aUnhITDRoSmI2b0Jxc3p4bGg4UkpZWXU3UGRoclZQdGVzMlVDcEpsSjFRaWlnNnVXMkVFcEoxRmxXb0YyRU1nbXlHTmdXTVJPTWtteS83akpORlpOUUFhbVdxS3pWQlRXMWFqUE4xdSs1WnVML0Q2OUdqZGlaczdTb1RvTy96OEZVdkhDMTlpQ25sV2I5WDVQeDhQaW1mNmNIR29DRnM3V1dBRjd2Wk5CVlNHbjdLZ0lscjB5OCtwZlNRTS9SdUtrSytoRDJGVEo4NzNwYWZ4dTJoWnl3QXVHMmhOZlYyMzF0QnZjT21MM2ZnbEdxc3RzUFRJZGkzbzNoRnN2OEt2QXFsWkdVYm5GTHZwVmYvSzgvdy8vKzU3K0NtemNLT2krSTNuNUhTSlh3dWtCdW9GWlRPREtKTXIvSWYvOG4vd1QvMGErK1ErYUVvZ1haZjVwcDZOd0RLa21mbytoTFhFdVZiOVZJUno5OVNhLzFkNVNkMm95dVBNbGxlM1gzL3lZZHJTeXV2Ujhob01ZcVFGUzJjNFJQWExMNHBGMncvZTVZcGJPQ3hkK3MrS05ONG9EMUlNTnlyTFRTeW9hMGJmdHlEaTR0d1Jnc2dUcXhTbXhlMjFLdHFSdUxHT01UZC9MVjZJSG1oaG1kRWxXcTdaOXExRExaaDFZTmxUVTVnaVF2VTJYRm1MV2RtN1RXSlZhb2k2SnpZaWtXdHl3SkExREYyTXNpRFZ4cU5xYXhVRnZkeXRya1NWbU5HM0VlZWdtd3FwM0hHV3B4NDArU1RxN1UxdFZiSjk5V3p3aVZiUnl1QTZxKytMS1pmc1NybkRoVGM3WXJDOGljcUo1YnB6M29Ob0R6YTZOM1hUcnJsbXBtRzFPbTdacEw2dDlGcS9PMmpxajIyVklJV29XVGg3a3I0OE0rYlBSZzk1TUQyUHFSWmM4MFg1aTBVTzVRbGhOSXB3empLY3QwajFydmtzYzkzL3RYNy9IYzdWL0R5L2YrRjI2Y1FORjdaRzYrM1ljUDhHampTV0VtTVNJS3kzTE9NSnd5bFptVVI1NDkrU0x1VDc4Q2VCblNDMUR2c2R2ZlpEb0F2TUorZk00NkVWeVBOM24wVXMxd0JWalo2OEtPZXVsR2pSNXhleFN2WmlKZUlWa3oxaHcxRVk0TzVRU3JvdXhkVVdXQVhXNHRjdVRJbjFKSE5XQnhMNHlFTk9uTDY2bGFCWk9kdW5Ha0lqdUJmYkkwcUZGdCthRmFJZWp3ekxUcUtHbjEydlIrRzVkRFU3WW5OTTJnZzloMldrcVZBUjY0VEpxaEpuL05RV0pZeEx3WVNZMGRaa3VkYUM1M28xblliZ3lZcTFUdkMydmdXYU5mR3JiTnBKRG1pcFNLRGxDSFpMSnFOdWFaUXhLczJqNW55OHRYYXpTcndYUWlIbGxkc3F2Ky8yQkJjd0NkbnkrUGEvckdESnpjZUdKNDRGUVVaN0tUckl5dTkydk1ySEpqR0UraWFIT3dNZTJjc0pHaU1hMHhPK3I2ZDZRdXBJdDFPdzBNQzJpSmZKT0p4QUVsRXBLalpOY0VXQlViU3hTZi9QV2VzWVVGMXdwc20xUjU2TzZoWUgveG50cnlmUlBFelhqNjVVb2JCVWw3OGppeEhHYk1YWll4dDFBQ25rUDRDTUtla2J2OHhiLyttL241di9BV21kMDdvcnoxSXg5TmtvNVVYVmhLWlJncnlIMEdCZ2JnbGZ2L0oxLyttNzZQVTg0NGxRUWNtQTRMTXR3QjhqWEF2YVdqQjdhSHlTL0h5NjFQcUswYUNMS1ZKWDFzNUtEdWhwZG9UbG03dC9CNU41N1FZeUl1RlYycVBjMzc1SlZqOG96SmRwUGZScFBBWk03V2w4ekxSTW1VekxFWHJyN0k0NHI4dVpnc3AyVHNZalpYbjYyVGtJTllqdDFCa0VNaSs5OHk0VGwzdG84NmVVN1luTXhpMyswakdvWEtJUm5qbThSU0VhYmtQNWt5MlhyaXh5U1Q3M2ZPbHF3OVovUmd4OFNGa0h6ZnpGNzVmODdVSlZQbitMRnR5eVF3NFFuY1lwL3J3cy9qbFB5M3RPMksvNDVjT1NMeDIrZjlOSXZGN1NieG5NU0l0L1huVmJmbjl2ai9mVUsrdjFZblR3bVo4V0xOdExTRzZDNitLZSsxaWRIMTE5U3FzMnBQMzFxT2lia3F0YUZ2L01RSWF0cHJ0YThIb09KZXVHcjhaQUM0Uk00MzBTb3NCNU5lVXM3MjhKZ0w0NUNCSDRkOG04ckx6UGtaUHU5ZitUTjgwMy82ZHluY2Vic1BIbmdkVEU1NUFQV0dQYjJHRzNjQTVBNXdHMmI0UTMvMDYvaHRYL1dYR1BuM21ha1FqcnQ2SDU2QUFwNVAvZ2dXWjUyNkx5VnV0NVNBblZlR0FHMnpTVkN3U0FzSVdyUWpHS0RKUHJZTjZ3aSsrdlJ6T3FFT1lzUnVWTmpKMm5NMXN6SzB3VFh2eHVRU3NvTTBRZ24yTjloaEJCTzB3Nm1XU2pDS05VWE5VQ1ZNQ09yTlZFRjJ4dWpVbVJ2SjIvQU1HQnZLUXN1ZThDTEFVVnJEaWdEYmRWMzdPUzBZVVZPQk96YmtjMjZjNmI0b1I4VGxnTlZnMHhzZm1zbWl3cEFiOHhTQlZIeFJVeGZEVHVQSEpKZk1Hc2xqY3Rwdlc3dWZBODBzMHN3YmNVeFZWMFBJYkwvVmpTdnR3V1FPU2RKbDRpVlp6TEJ6U1ZwUlpuc3d1ZFJ4b0RFL2YzQ0pYTHhTN1NSNW56b0RUTFVLTGRHbXA5am5zNGVsU09vN0lIaXoxRURWS0tDcE05SG56NWhjbndxd1RTRVFsekdOQWNZOWRNems2RTUyTUx0amNIemFKY3hrVHpMNmdKT1RaNWtPU2xYcm80aFVrZzRzM0FFK0ZmSmRxQytEUHNjdUhhQUtCLzNBMi8wQkhnMXlqeHhhVU0yUVpwSjhCcWQ4R3lYOUNGUGR3KzRCYVJvUUdTemZLbCtneXprSTdOSU41aUlQY1RkZGo1L1ljR0NTSVdaMWY3MjZZU1I3MTIrWEdEZFB1amRZWmM2ZHk1UERFVkM2aEtsN0RCUWQ1Q1NSeDB4SkNZYkJma0pPM0hlQTFZVUpOWUJ2NSthU0U1b1hRRWRhcnpteUFacUdCSGxGRGx6NzZNbVdOWkRyMWswR29xM2ZabmE4U1dwOTRVUkl5WnFOWGdwbGdzOXBFWkNXTlJRcERwTHU3d1NQUWNaSVdEVjlCNlpHa3VsSWNNVE1vaTFSQUkvdnQ3SGpGUEUzMm42aVVraHpLRUluVi9yL1BSR2ZWazl5UGJZd3pvaURaSjFCcDJwdXlEQWNoWnc0VitzMDRNbmloaFBKa3I2TFVCWUhxMG03VkFMYlo2cHBUVHFmZEMzZDFzdVZrWlp3RUp0TEk3azhrc01QMmN4RTZraW9FMktVRlpvY2FXNFc4UWMzZFJBekFFdXNlWE05UUZYLy9vSUJ4dnZkQmRCeUtub0h6ay9lK053bk1oSUgvb092K2x6KzRCLytvZzNkV2VvNU9aOGlISUM5aDdTckJhakQyQ1VYSUkvdjYzaHNrTk1Da3U4RGlhS25mUHQvOHkxOC9WYzl6MzM5Q0VWUElGOUE4UmtLTm5jbUFBQWdBRWxFUVZRR0liR2pwby9aalpGSGYrOTZmT0lqWnZ5SGdGeGpkMnVqMUhVWXlQWExpQzhYak04b1JJRGNEa09sWUhrSkdVYUxPUTA3aTYwRnlPM1dIL0dKVlJQRzlvWUsrMnliakV0ajhOamRVTHZtcDVCR29XWTFkamlLTGRmc1VnRVMwb0NOckkyUWhnbkVQdExLWUF5c0hFbXlHMjhTSGNOamEyandIbmtiZ3g2c1pjMjhvTERvcXZLcUJIUFYxbFU4clB1dDRrdmNldDZIcjhYS3FxN0duWFIwZXphTGZiOGQxaGljbXpXYStXUldCNTdVUG9zNU56eW10M1RMRkwrZWxEVW5iaGFMemJVazc5Unk0VktCTXRzeHBNbFRROXlGS1lzMEZxYWxlaWNDYlhKekE3aG1YS0gxUHlVQXJpcHlFTXUzQzNUVUM2VHAyTWNnWjFLbEZXS2VPdE5KRDNMYmh6eHhGTlpMcVFKeElpdnJVOEkxeVAzRXgwSmlUK1Y3T2VoM01mSWNkYmtncHozZzZURVppajVna0lxeVIxVko3TXd0L0FhYzVzZG5jc3lnSS9Pc0REdWhVSGp4N28vejNtZC9OYWYxeXppbldDUzluSk41TnlWOUdPcDc3TWF1ZnZGZWo4Y1lUb091QkRHYWNVUTN5OXBNTFp2TzRRRnk0VXFMN2JqeHhNMG13b2xMbG9Za0lqczBaUmpHVFM5VmRlbXlGVXdKdHBKZHZ0d0xhWUFhREN0ai9lTEc2bUJuOG1NYTFBd2pvNkk3UmJ3N2dZcFBOam10cHBFTWtpdWFiRG5KeVJoYmxwWEpoZElab0p2WHY5dHhIb09jc0RaZmNEa3lPaTVFQzdPK0dVSTdCK0xTVngvUzBkUUFUc0Jpb2Q2bXFIVnd3TFlaZ05pdkx3RkFBV1JsWFQ0a1N1bGpXYlc0eENqeE5hTlNuU2xhWTlNYURDd1N0eFZuWWxoTUxvQndwblVhaUpxVTFjSE9BRkRXVW1IRldwQlZuSEY2WEc0MXJ3aFJjWVZaUFlabmJrd1dFRldUMUdleDMxRUJXbWFrRmMzc1FLNnhOd09qamVta1NaVTlVNnR0bmRjR3VWanZHdVErb1pGSDRENlVnWUhDcS9vN09PV0E2QjZkWm1TL01DOVl6enBBMHozZ0JzdVNHSWJGSDdvZmJ6ejJGcFFLTTR5N3dqUlA3SVliUEgvMlh1YnlmWXh5ZzEzK1ZxYnlNakJTMGgyRzhiMHNoM3VRenFHZWNYMnhQTzU0MVBueko5YzJjUy9BemdFdVpzODFHTjlDODUxMHRnNS9xcFhSbjNBOWdGWEZwQzZ2K0NHVk5XNDErT1FaRDlDS3NadHNRcDlvQUp5L3B4bHF0VzFFMFlvU3R2aGs0RmtVaVVlOFlGZ2VhOVBCUU1NNkFhbXh4ZXpiVHQxbmM4bFJvZ2VzLzJ5S1R1TUE0L0hvNUI5WGV6QjBrQk4xeFRCQXJ0SVMxeTNHNWh2V2lQdXNwNzczL0FpMGZMZVcvOVlmazgreExhVGE1RTlua3h1QVk0M2JCYW1KOUF0UHpxOStmc1BOMmZJT204eG80YTVXMjlML3I0VW1VV3FSRm9zTFBHaTRvdEQ2eTRXVVdWaGpjb3R2TjVxdHpuWWlhLzhCTkhJWWpod3BteEd2MlFXcjhiZjRRVWc5dXBiWDlmVHFON3FUdTI2M2o5MWRqOWN4MUJJbjgvQThvZ2ZPNUkvd1I3N3JYK1hMZjhQbmNMb2ZxY3ZJT05UMTRhcmNnSlFZaGdPcSswdjM0eWN5SGwrdXBGTHFIV1I1bHJ5cmxMbVNja0ZrRHpMemhiL3kzK1V2L2JuUFJuZ2ZOWTlRWG9aMG0xUnZVZmtnMTUzSEgzY1kwN282ZGFBaW5xdW8zai9OME1SU0JsWXZQK0Q1UmVCTlUyTzIxdERFVGJJVTlxRDdKbjhtenFpSXplaVNHNERwVHBHZG9LZnJKTjRhaXJ2UEpRMG13UnRqTXlabWNxU2EyU1FMdXJmL2Uzbk5ub2c2RTZMRjVEVE1JVG1XRTFNUmNqSjIyRTVObUZOME5hSmtqd1VFUXd6enMrZlROWm12dGZVK2tqV0wyVVRBdDVVNytkRjNhVjlFZTR6d3YxbUJzWCt3NkgvNkFzV2RMTGxLazhIQzdQZEdFZzJHdHZqR1E1WnR6VXNkbmFOanQ2YjFvYVdxdVRPTElwTWFpNnZTcEV1V1N2U05reUxObU5aYTZ4UUR0VmFJZWRadDdjdXE1cEtkUWMveHhQSmkreFVIdGRpb29hb3hMNWxCRHc1azRhNDhXT3d1WHV0a3pEV0lHU2NBUDBDbE9YT09nYXZGNDhLWWNoV3dYbzlIanozRGJtS1o3SHlQcDRYbC9MMk02Wi93YXZsR1RwaFJIU2h6WmRoTjZPSFVucUhUaStqeVBPbnhpZHpqZzF5dGxaUm1ZS1FVSlZ2bFc1WUprSmxoR0NtcE1zalhBSjhPSncvZzRqYkNqa0h1TWVzMXlEM2VlQmpJeFEzcFY0azRjOU9RTlhkWVpST3JTTE9XN0JvYzVBSTFvbUtOU1piQ3prSE85anR3eW9MSDdjeW5hR3hxWis3SmhxRWg0UTFHQkVNKzFHemh2Z0M1MW5nOG5KQzc3dmZZdmQ2VFVKY1RXM3V4M1AyTTFVQW5tcG1Ia1NBN2JkdXhncDNJQ25LQnpLazR5SG5jVE9vS2VxM01pMHR2TVNMR2xqdjVyLzlLWUFVM1o1Zzk3clhsZFQwY2JXNlV0QnBMd0ZnVHRESllCbDV4WE5xcWxiVHRkRXh6QTNKOTBlVndQWmE2eW9rQlVHRW1jVU5LQTduQXBJZ2x1Z1FxVXhkREROeFphTzVMbWR5TWNnNTZvWlk3MkJoWUx6T0dET25VVXFmVk9lbkZtWVhTdVlhakpVWFEwRGl2YWJPOXk0YVVlRCtNSmd0Y21TZDNMVnUrbnBFWVVjN1J2Q0RjOXBKLzk2QmNBTGY0cHovOFczanYrMTdsUkQ3WkhtREtZTk9Vbkx0YTgvanUvTWRuY2dzd3ZJendMdFAyMDBKS0E4dFNqWEl1RlVsbnpPbWN6L3VpTCtEdi9JVXY0MXcvak1pbm92b3ExMlcvSG5lY05PbFJOK3J6OFUzb3lPR2RCdFlBVkJmSDgvY3NWYUNqVEIzRHcwRk8yRlBKQ0dNRHg0WWtnblVXMkNjem1rUmZzTVFhR3h2cGpDaENHZzJvU2h4U0F5a0hzTjI2cm4xY3Uyd0ZseWE3bUJsSm5ibDUxd1Bmbm9ZV2lKSlM4dGpoZWhxMFkwd2k0cWtBZHZ6aW9LWlM3ZmhUVjlIZjU3OW1QT2xQYjJCbWJMZjZTN0dya0NzeE1yd3BVQXpHY3VLNEU2dDI2UXFhaEFFbExQdk82S1NLcHd4WTk0SHdZR2p5L2NUeExpQXVWNnJLSms5Tkt0WXpMbUp5WVhvSm9qUTdreXVLTEJWcVhySEEwdzVrU1NzaDYzQ2pZVXl3dm5PUXFlbW5GazlMQlN1bEZDZGxRV1JHdTVTQlZVS2Z1T3lFZEpDN3hPU08yTjVyZ1p3RVFGNkQzQ2N5aGx4WXlrVEt0Nmxsd3U2RWUrVGhPYlNjVXZWRjJIMGJoNHNQSW5MT1dFOUJZSm1WWVJkUGdJODMzZ0RqaVQ4dzF2c002UXlWR2EwalNhQndqeXdqdXV5UnZFQWQrTkxmK0N2NFUvL0RaN0xvZTJDOGVYWDkwK3Z4dW9mSWFlaDBSN2IvdUFrTEt3VUt6YTluZk9GNEdBalAvZ3B5WHV6V2x4VnhINytPQ0tjR2NpS1dRdEtXOThUeTBkaWM0WjVMZDVHcjF2TFZNS2JsZVhBYWJDc1hNNTRrSVEzVmpTY3VnUTVDY3k4Q0thVm1IS25aZ1NBN2NDYjdXT3BtRllCV21YN3dYTTV3ZjNvWnhaN0pwV1RWVHByY0d0Sm85N3VHTTZRamdKdG5DTFNwalVscDVianFKckhPenJBWlQvcjMwd3Bpc0pFek56RzdEU3VURlFEQkFLRWtBenJmblNZMXgyVDFoUFBDSnU4dDNKVUJhSTFVRlgrMmFBbmQ2bDIrTzVEc1FhNW5iVDJvOWRnUzRIY09NbmNnSjE1cHBCNVlRV2hHcEZxTzNDYUwvQ3FRaTF3RlBRSzVHSDFybnRjTGNuVExYWVBjNnhyNUhNcHRZSGJBMjdFZmJuQllQZ0praHVFWnE2UkY0YjcrVm1wSjdISkNHS2t1dUR6dWVFTkE3cldHYmZ3QndnMjdMdlBNbmNOSGVQYmtWM0hHVjNFL1hkZ1Q0bkFQbGhIaEJwVWZJdzN2b2k1N2Z2SW1ZYjdlRWZRbTZ2VU5SMkgwNnUrWm4xK2JXd0tmc1J6MEdyanRtc1BTaGpzem81U1hweEtzcVFZeHEwZXdMWnNudU5uNHM3T2JoQ1NEVEUxWWNuZklsbEVHek1OS09EaTFCSEgvZjJOZHp1UkVwQmxEbWh3cExqMTZDZ0xEQWlraHlUNlBMVjhOY0xNZGg3YTRXMnlEUmtoYjM3cUl4M1VtRjhBa2xZaUxxUnJENnhQT1E4WnMxWjlmNDdwMUtWUTAyZlpLSlNvMGk3Y0c4cUw4OXRwU3pkRUlLM01MdGhWQTE0RFZ0eC83anhqZUpBM1UyaTNXR3dsN1IyUVFxckxHNGxxeXVZTngrdzdEZkRLekFiaFc4Y1RaWEZvNktYT20rOE0yTEtMdWtyU1kyOHJNbk5HMTBsNldBTDVOK2c0RVBYcjRrMExTU3BULzhpKzR2Uy9PQUZWRHpyd2ViOXFRR1pHUlFXOHo2NGY0azMvMjEvTWxYL3h1VWgxSmRXQWE3akd5UnlLc3BVQ3lVajJsM254ZElQam1nMXdGa2wwb2RkcVJSMUM1ejRLd1MrOGh5YThsMWM5bVlVOWNnSG5jVWFZRGlkSDlmbkFOY2c4Yk1UTWIwTFFPQXY2ZVNJOGF3Zlk2RUpNSWp1M29tNnF1clhsc1dZM01iSytNMGlxaEpHZUJrYldkUnN5MTZLNUh6UVlvSHRlU3BDWUxEbUsxS1BlWVpEbUtUV2hSWVNSQUxyc1Qwd3V5NkFDZ3JhaXlDc2IwV2lLM3JuSmxGaGdLSXFrbGZSdGc2d3JDTzl0dkRUTkpBeTlaVzh5bDdsUTRnSW1ZVEpvcTFNaDVVN1hZM1NBTjVEWWcwOHFnK0FnVFNwTWoxZVJYdGR5MExVTnowR3h4UUhzdGxleUZtM0Zidm4rdDFSYkp1bVlaOUNPQXNCR2dTeURuckxCVU00OHNzZ0h6ZUUwblhhdVc5S09YSXJzWVhYTlhlb3hQb3FMSzRxQ09zdWJFUlFxQUcwdTZESEp0VFZFRDVEeGxRQllzNzZHbmlaZEJiczJwdXhyazFwcVgxeUQzWm82Yzk1VHlxa3ZUd3BsOE9xZTMvallmZlBVYnpaSTRuOEd3VUJiSXcwQmhJZWxBcVpWaGVIMFk4S2FEWEdVMkFVQXJ5YjNpMDd3dzdBUmw0YzRyQno3bFhmOEpoYzlpWm9MOURnNGZKdy9QVVphRjFoRFJ0N2FPYTVDellVeXRCYkNJb0V0SWpLYlRhZFBhQXZBODV0WmlkQUZ1WTh1cGs4NVlvUnQ3NDVvTWJuRXNjMmsya016Wjg5ZUFjRzBtV2JXSGNEUHVFdXpWODlobGpUMkpyQ0FuaFJSNWM2TlhLZ0h2RitjeHNwUldDWlJxSHpFbk5Lc1haa25iVWxzZUc1U0VGWVFPc0V5eXNpbHg4RVBXNXdIMzRraU8vUnRBcUs0cXFEUWdwQ2xmRm1lTGdKMFBYUStsWGRVT3NLbVQvVnA1ckJxZEVyelFzNnJGMHFwMU9GaFRDaXlSUEk0bjFXNzdZaUFxQ3RVRkVwbTBNYS9vTEdENFVKc0QwaXFjWU51bGVzRm1XYVhJaGRXOUdaMEJ5cnFlNVZOM1lCaUFGNHl3cFJUb3VrRnhLbGp0YjB2dU5oUnVyRzJqZXdabERNTkoyM0gzcFVNWVNhNEd1ZGgrbEFOYnVJemUxK09OSFhiRHBBeURaR3E1QUQxaG56L0VSK1p2NEt3bWtJcEtBamxnSmJnSEJwUXlReDRmalFOdkFjZ3B5VHYrTHVXQ1BDeWtkQU5xb2haSUdUNzAwb3U4NzdNK0I3bjNBYWI2TEtSN1VCZlNYcW1IYS9mbGE0OEF1WWlKYlYyV0JuSzFLdzJWV011UkpHZG1zWDdmb29TMi9MWTBXTzZBMGQ5blFKdWNhWkttU1d0Q1JzeE00dG5PVFdJY0JjWU1KeVlkR2haTGt5dGJCUlNwdnF3RFh6UnR3OWxXS2dab095K2ZSYld5WFZFSlpZZnYxNDYyVHpPUUpNWWlVOGZtWFBKc2dMSWx0SzE2UzRReXdRaEhuTjZJQTRZSlpoTlRpMXkyOXFjenR4N3hKSExkMUJ2TzBoVDd0YXpZeXNUVzJvNjZTcENSWnVCeUpkQThGeWxJcHdOWW51MmMxMFhkYkdMZ3RXN1RtVnhabnhKVXRZVzgxTjJiSm1kMlUwbUJUVW14TG54bTcvbUptWlB0STBDdXlZVXpxcGJVRGR0dUFnWnlBVURUMGQvMjJocm02RUd1dG9NUTExK3ZUQUxmZ09jMXlMMzVZOERPODEzZ3pOV29PK3prR1g3MG83K0JkNy9yTmprdjFESkFFY3N2TDhCd0h6aDc1TmJmZEpCYml0V2dCZHJUSzdJd1R3ZkczYzZEeUNhWnBkM0lyZms3dUVleHA3YWtiS3paMStNaHcwQnFXNkE1UUU0Nld6V3NKYnBPV0FzdzQrdXNUa3VoaTJIcFd0dHlkV2xHU2tJWGoyUFg1TTlnZ1NrSmlsQ3p1QXZVR0pPTUFrTkdvbXVIckRHbE5TYW5uU2xVMW9wbG5iTXlFc2xiZVRERlBtdEllenNIUlpFMVhoYy9TV0ZJclhSUUFNRW1iNjFodWE0Z2xESHpoa2pIdExyOXhDbVJ6dVdvYVFzQytIcDRrRTFXOElZdXhqYUYxT2tvMTdmSktXck5WRnY4VHRiOW1DNXJYM3NnblhRNWRKNFhseFlKcjRlUkhHZVByVFJZTFZEeTJ2L05qeVY2dytFMUxHT2RZTXNCZ0dsaXd6VEY5MUdMNzJDcEs1aldzckkwajcydDBxR3RhRVJ4QlNMeEZJQnRLYStyWEpNeFZwQmJnYk1ibTVqZVZldGZqemQyUEVEU2JiUW1HTzlhS3ROc2MxT0VXNUsreUlWK0xZT09vRkNYbDVIOExqUS9JTFdLVFE4ZmJ6ckl3Y0xGOUNvbnV4TlV6NmdGOG1Ddno3TWdZd1plSXBYYnhoL1NqcHZwRDNLZkNydjdNSjM2ZHE3bHlhdEhBRnJmTWFBM2pzQmxtYmNES3djNTJhelhyZXNzYmkzYzdIbDU0ZzFZM1NHeVlYTytEVUZJS1hsbC8wNytUQVp3dWt2SW1HalYvYjNocVFoVzdxdnZFZGVuRlpoL3BabENOL2wwK0N3dXlaWWJZNExYTlg5dFlFM1dIam9KTVQ1MmdGejhoS0VsRXNJamNSd2M0T2lvbkhTMUtIVTFrVndaandzSjBMOGpCMG1KeHFkVkxhY2lZbkxDcFppY2VFeU9XTjRMTmJkWVlFMGJrSU1BTWdOSjV0UlZLdEZPcnNUWllDVnk0NXBCTVFpUzUxcjN4cE5HbUVKdG5GYkFURjNjcjJxQjRnV1NTMFZySnk5R2VvQlVSS044MXpIZ0JNZ2RsL0xxelNkWEFkUXhDQzdkRjkrN2JrTCt2QjV2NXJCMGxnVHBQcUxQb1RwQnR1TE5aWGtWNmhscDNNTmNtSmJmVHM3M29aNzVBMmx0RCtPdnVZODNIZVFxSUhCeHNYQnlNdGdWVHdGUE5sYXhaU1RaelhSeEFlTUozSHJQZTVoZSttcEtrOU5lYStMK3lUeGV5M2dTNzhmdldIWThXcy9lWHhQQzEvTnQzY1F0M21meHVyR3RZeXd4YWxpT3RwelRyUlJNa0wxYjcyVU5aQ1ZNcWh4Y3NveFJCV29pcFFDNWFsYi9RY3hkR1dtQUhsc0Mxdnk1QUM1MUIyRXduc2lGRC9td0hhS3VUTzdvZElZa3VEbzUrMVBvNjBWQ2VEQ25hRFRxUUJ5blVDSS83UWpvMnYrVVRxNE00RE5nVSs4R0VEbHQ3ZmpBQWM0TEpyTUNTWFF2MkpoZHVnOG9EVHl4T08wY2Y2c2JWMlFsTUE1eUVuR3o2c2VxV0lKNXdib1VGSHUvZVp3VXI0Z2lhMkdSRGppVGd0YUMxZ0FwbHl1WjNWd1NFbVhQenVLZ3V0Z2EzZnJOSkJKdWwxNjlpTEhLbFZ1Z093YTV1WHZ2ZXJ5NTQ0eTgremhsT2dVR1RtOGt6aCs4REVPQlpRZmpHY3ozeVhLRHBNb1AvZGh2NUgyZm1xQ2Vvb3ZWaFgvVWVBdVlYSXhxeXZsU0dRZHJ4SnFrSUNqVUU1TTA4bDJVRTRRSGlEN0Q5Lyt0LzV0ZjhQUC81alhJUFhKMG9DUkgrWEticEsybTA5RlJsTGFOdG01YmgwNEN2UXh5YmIwQXd1U3Nyd0dkVUx5c1dLc2FBamJMN1FaM1FEb0t0Znl1d1diTEhXdFg4T3p5Wm1mZHQwMUtBemtkWFU3VWRkSUt5MzFUSzBQYWRHVld4ZlB1MnFpclRUL0xXcXRTdW5oWW4yNndycll5dVN3YkZ0Z1lUcENwYmpYdEwrR1ErV0tCWUZ2VndFU2NNTks5VHcwNTFOZDFNR3o1YzZyKzBISzBtMTZTRE5OSFp6cVJUUTFNQjdtbG90VmJZMmxhazd5WDRtelRwZERrMHVNc0JweVRuMEMzdG9yYXVUTG01bmxvWmRWTEc4aTVoVitZYVkxUVc3WTliRjJWdlNNeVluSVBreW9yWmltOUNqaXZBc0RyOGVhT2lybkFEdjdkN3AzZFZZWmh4N0ljR01lRmVhbVFNMm01UmVYUDhmRTczODJ6WnlkSWVqVEt2WVVnOTRtTnYvQ1gvenkvN3N2K0FCLzcwSzh3eVlzQjFRdXNHbjV4QytyTGtDNUk2WXk2ak5pRkRLVDdVQjRkbUh5U2h5dDMvc2RhMjJwclFObktsUVpjUWdCVXZGNkZGZUJhNWVMUXZLTkRRV3czMW92bEhlRDZZeENoU2hTbFRDUUdGR2tkQnN6azZkU3Bkb0FydVZVa1lSRHFxREJDR3NMNFFNTnM5UktjTWtRWXFvdU54WExpK0JzaHhNMVA5SVN6Q2Q0cW1xUzEwa3JQZ2tSWEI2YkgvRnFzS2c3ZlQwVjhsSFo3aGFUWVY1eFZxMFppeCszeWFVeTZrWllRTFhLaStuUFYxWDJKcVhwVzVkb3ZoRENkQkpFNVVrbWJ2QnFnTnB0MTI1aVpySUFjRXUwaXF3dHk3dVRNQUZhUHVVV0I3dmdLREVNcStUeXRLWUlVcEVOa096ZFIwU1RhbFBjeVljWGFuUWY0MUJhWGE4RFVHVlF1eGVPa3UrNTFOYTJFa2NYV0NmZTJ2eWZGOCsrdTQzSHZoSkhTUkswNzRCYndLdVFKeXFkd2t2ODVQL2poMzg3N243c0ZJdTNlVjVSRWRySFFwT2gzUE1paE00V1JzOXMvbDNydnk1bXA3SFlUYzBsb01ldjY3blJpbVRLMVBDRG4yNVJTU01PQnV0d0NIcnpkbitCTkhSYW9qeHMrNG1jR1lwZHJXUWJEQ1QxTmpMMDVhcXpta3k3RklKaVlvNHE0TE5ybjRxMjBwUU02akFacDErUE9RQzVEa2xVeURDYm55NE1uYm52c1M1TzQwOUtrUlJBUDhHQWdkWUszMVFrMXNBTTUySUplTUxGV2NVVk5NbzFlY0xGZDcwNWdwY0I2NWhnZ3B3M2tXT0o5Qjc1VzQ3S0xuZlcvM2Z4aEwzbk1MUURGMzIvTGIySmpRcGl3eEVGdWs0UFhqMVpnK2NoNEV1dTJZc3k0ZWNXTkk0dnRZK01vM1JSazdrQTlEbmZHZTcvRjlwTTdQeFV0aFRSRkhwK3lKdjdSL1E3V05YVU15elJldyswTzVHU3hoUEIyY0hTTTd3amtRaWVPL1pqR3V6R2NyUGRPZ0Z5Zk9uQU5jdStFSVdEVmIzUVBxUUozR2VVRmxpSmtQc0svOHlXL2tELzJKNytJaytFQ3l0N3lncE95bEFOSnprQ2VBQ2FuaHhuWlp3cUp2L2k5MzhPLzhRVy9sano5SGdvTDNKaElTNlZPdDdIVHNRUE9HZkxNVW5aY1RnUjkra2E3VVZ2dHFRQzU0ekpmeHlOaWJpc0ZXVXQ1OWJVcmQwZkxyNkJtRjg3Z3JDbG9qTFBFSmpGSHJEQVRzbWR6Q1FaUU9QVVJjV0IyNDBaS2xvU3UwWVBPMHd4US8zOVcyQWtwNHlDblhaODNaMzI5MUFoWU94NlFyRnNEU1Q5M09zdVVVSFRqWFB2SDdIdktwUkt5b0c4Z1kyYWJ0dDVXTG96dGhaVS9GVnBEYmpwc2pqeTU1SEpuSzVjVmtsODdadlhQcVNTeC9EZ0RyZXB4dDNpdzhkM3JLbFhXaXRlY05EbXhkMUNxbUhScmdBazZLVEtyRzFEV1BEeVRIaXRoZUVuWU9qWFNBcUtQWGF2dGRRd2VFUU9MenFuaG92VFAxV2VUdHlMTUhXaTNiVDFFcmx5ZktPamxUWk5HdVFMa2VoWjNEWEx2aEpGeVJ1dGdERHROVUI4dzVoZlE4aXdsZlF5dC81ajcrdnU0VVoveFozbUY5SURDcWQxVzczU1FvMkNhZTY0b0E2WENlRk1Zei85SFpqNjJMcGYyd0gxTTBra01HWlNGOHBSM0h2L0VRYTdiUnVUQnRTVHZIdVN5eDl4Z3l3UWRST2lZMktZVlFPemJVd282aTZTU1daMkNCcExpOHFhbTdKc3cwRU5HR0tySHlGYVpMcXFhNk9oeHRYWkkxUk81L2ZqU1dobWxnVlJVTzRsRDNhcTVtN3o2eStmS1FLNkI2ZUlNTWlxV3BBQk9COXgybnZ3VXVhellyUHhMeUt6ZCsvWXhHZ2cyQzc3cm9wdDV1eDJYLzlFNmg2dkg5SndwdWgwMUJWaEdmcDI3Smx2T1czOGVmS2dWSElGREpLQkxBeHFObGNKNG83ZzdWQXo4NW02SDdiZC93STJ1R25KbEh3dUwzK0dlN0Uwb09CZ21QNzlMdDUycjJGZ3d0NGNBMkhHRmxmWlVjVDNlenBGa3B1b0prSkZCN1N2S0YxQmVnblFMMUVvaDNSeE8rT2pGVjdITGQwbDZDOVVGZExDZWt1OTBrS3NMSmoyV3Zma1daR0dlQ3ovd0QvNDZYL0F2L1JnUGVCblNBZXFCOGZRRzgva0Q0QlRKaXBhWk42SlZ3enQ1WEFWeTI1aGNqS3NBTDI3aXlJT0xGanpIWFFoc1Q1Mzd3bDVwZFN0dCs2czgyZ0dmbFJ3eDROV1FPb2R1ZThieUpJd3BJcEFUTlVYaStFQzB3aEVScEJwU3FhZjdWYnYrMTM1eVVUR2xsOXlPZjBmWkwyR2xWRDE0RG1JLzBTcm4rSHhGTHpseGgyRzhGK3owMHFuV1ZaS1VOZjVucnNZNDFycHUxMWN4QjJYa0Q4S2FNNXE2NDVMMkVxeE1yZldIVzdUYnJ5L1k5NDhyYWRzQU8xVHRqbGxhS1VsZFpVdlZWU29OQnV0TXpxUlZYV09LY3pBNHBWa3QyMEVHRXdzV0Z1NUlZMkJKSTZ6b1R3TXRSYUIyMG1kUHhTdWJGanN0bWR4T3FEYWI1MVdHbE9QY3VHdUFlMmVNQjZUMFBMVitITm5QNk9FVXVFbmV6WlI1QWM1SnZJZXFMeUlpdlBEOEEvNzVSNytCc1NaRTZoTWlWL0lTbFhmN1BYZmZ0RmtkS0Z6d1YvN0tEL0Q1WC9DN29Qd3lNcDlPWVFZK2pvd1puWjlCaGd0emZ6M0ZJL3dHOWtmUW1UNU81cE9BOW9BRlczMHVxcGJzV1pPN2hhMFRreXUyQjMyZTNTcGo5dXNNNi9ZZDlMYjVmQ1pqaW5pOEx6bkFaV2Qya3IxMGwzaEEyWXdNa1grdWU3cVNYbDFjSytiME1JSEUzOUoydVg2MG1KRDdSTzVZSmpiWjNTVXRKWUtPa1hYYmJzOENMWFpWVFZvTm1iWVJHRm0vaHNqREN6Q0tsamtONURvZ2p1OGl6Q2p4K1lTVkxEV2dDOVpqaUNXK2I2dFhXV0hPVzBMbG0xeFRKWklCNVlTMTFvbFNYMnRtK1BZaDRjaG9JN01YZHVpYmt6YnpDTFJDeURLRHQ5QVJQYjVuUTNvTVUwaGZidXRZK3V6TGNmVnh0dU5sajdkLzdhcDhSdzVaR1BLekxNdEx3TUk0ZmpMemZJRmRUOCtTZUlXS1dsU2wzb0psSWJGd3FGOU40b0N3ZStlREhCaWJXMUpoVEF0bExnelpIWCtwTW5QQmpmR1hrWmN2cHJDblNxWHFIbk5sOVVsT1QrZllnQnpRSHNGREVseVR5K2lxR0crV2IvR3lUYSs1MkZiUHlycGNPZ0MxR0ozU1M1akhNYnY0RGdiV25MdUJ0WHhZeFB5aVdXdENVamFEUnhKa1NQWUVMb0xVREl0WGFHa0ZuS3ZsdXNYdWU2T0o3NzdGbzdyUVlUT0Z5aHJ6a3FpSU1xekdtSkFiTDRHYy85NjgzaFBxSUZoMTNhZDJSWnY3OEpSMndDS1IzeGR5NVJ5eTRPWHJlT09FOU0vWEdwUVdUSTljVW1OazRNVFYzOWVxYkRwM2wwQjBJQmVpM0prVjQ2K3Q1cVNvbHh6cndFbzlTQ2RITXFZVThUalhBdUt4c2szdVJHU1pMdzNvWkFNeWE4d004WmhaMzBoVmx2Vmt4NG5yelNlYnBQRGo3UjZ2RTB6eWVyeHpSZ0ZHZHJ1YlRKUFhHWlVENkRtU2JwTHJHUXYzUU81QTNzSHlnSlA5Y3lTRnIveXQ3K2NQZk11LytRU0FuTi9JQ3dkeXFrajFDaWdDUmU2UTYyMDAzZUZyZnNjMzg0ZS81YU5vL2JsVUxoakh3alJYdGpsZFQ5KzRESEt3a1JndkpYNGZnMXdIT0RLdU0zS2JOeHlFK2x6RnppTXZPaUNJRlZDRkk2QmpHN1BieFBsR0JLRzI0d3ZxTlBqa21sZG5aVlF3Q1pEVDNIVXBxQjZUazlYODRWS25LRlN2ZFJsZEJWVFVQNHJRdWdtRWl1WGR2SzFMdVFPZXJqR3dQazFySlcvYVBuWnpYMFlxZ0NwWnM1R3lyQzFtMS9iWHo5R2RuQm5BU3dWWk9oVHJSNWdHbzg0bURtUytYUU94YWhWTmVoQjBnSzBMVUt5dWJJM0U4aXFJbGpWcFBnSjRJWHN1Y1R3dVZhb2lhQWQwNms3SDllKzFyTnpFbWk3UVhDdk8zTHlHcE14ZU9MbjdnQUZ5TGN0OWRtblRsNU9EYjZxWExmc3lZRk43WGZ0V1E1ZEFidUs2eXNrN2I2U2N6Y1NrRjRoVVZCTlp6aWg2Z1VqeDdpZ0Y5Qm5HdkZCS29Yb3RUTmtkK01wZjk3NG5BT1FlTWVJcHVISkEyWE8yKytYby9LWE1mQmprWGFDdmdPeEovdlJZVWRLNG1OTFQrdFU5eFdPVDdHV3hNUlZ4YzBwcTZRT1g1Y210SEFuQjJvN2Z2MnBkY2RmbTFkTGxabjNaZGErYlhCb3BEbGJJdVl0RHVRdXdkVkZJMlZvM0pWdE8wMkpnWXJUSmdMRURqdGlNZEwzaHFpTlhNSzYxUVlPeHFzRkRWMTBHUUJzcm8rc1lVQytWK3A4YXB5bXpzcCtTdG83NjFCMm5Sc2hKV2ZzRHJheFJIQkJOQ1pXVndYcE1UQlpJczkvNzJNUytjVzJXSURnR1hCYktkSnQvYUpZQnlGTFc1WmJhR0tpcTcxKzFjMElldVNjOXJvWXNhSUNUTnpKZERUblJGSFdtcjE1aXAwR0lwcVdpeWJmdjhibSt5MERyRWg1ZlE3Qy9nc3BodmRZMk0xMzFQZmlUZ1VUN25ycCsyZGZqelI4eVd5eWVES1g0RFZPdFdNUjBnY2d6cU40aGp5TmxybVNlcGZBaVl6cWxjcGRhbjJFWUN2T3lzTnNsak96ZFloZy94akwvRXo3djgvL1Jrdzl5S0V6ekJidmRqbG9URTVXdi9oMWZ3Ui8vdHAvSC9YS3Z4ZWVRQndaNDNQQ2ZFMUwrY1dxNTlUWi9nRGQ3aENabm9HT1NZRmQzNmpqZWR1bjFZYk9NWEFsYzhGcEF0d1c3NDUvb2hoRDVkRkdZMVJpNDV1SUdsNFJxOXJscEI1SVJTVEFrdzdPaFFLb09jcXpnM29Dbll6dEpiWGZpRHNDYUxBVW5ZZVhFaHVJeXB4OUR1MFBVdCtFVGRDZFhhc1N4ZWtEMWRUUnk5RElXREZkRkY3RTJPU0VSaGpTWXpNaEhrZm9BQUNBQVNVUkJWQUZaSzZ1T0d1RFYzYW5STlVFYXlQa2JNZTgvaEpRRXlFV2RTL0VVaUdZa2lYaFlzTG5xazM1eG9LdTZBcUtBdGNLSkhjZnZTTHEycThCWW1zZlRObTBaWUdWM0MrS0ozV3R3RUFkdnoyTnNRYzRqa0dzL2hiVzRRUUJYNmIrNjdoakQrQ0l0cFdCdGp4NGp3UEo2dkZuRFFPemMvNitvenUwQlo4d2pjNzBEZWhPNHgzNy9TUndPZDYydlhCUkp5QXVVbDBuNU5oU2g4cWY1MnEvL1hIN1dULytaZk5tditYTGI3cE1PY3NvZGhKdlVNcEhTaWJHNkNyLy8yNytSMy9rMWZ4WDRRcUNRZG9tNjdFaERvVTQ3ZHNNRlpSa3BUenVUYTZPWEc2K0t2Y1h2NkJad2xkd1ljYm0rUG1hZlFuQVpKQzhaVWk3RjdqcVpjdVBkVDkyaEJRMFpmTjAxTFVGVEJsRmtLT2hRdDBvdDBPVFduc21Kb3JsYTk1L0ZnRWFLZ1NXN2l1NnF0LzRCalpobVpGOXZtSnFTdkFDek9qUHN3NEcybXE1R2xReVNnaGtsdENUdkZha041QUpBVzZ1YnZOVkhvMTFiZTZHcG1Xc3NieTIvR0cvMmdVUGRHa2VXMm9wSVN3M3c4dk1vZmpNRklIcS90KzJVc2RCaUNvMkJyWFVqeGRGNUJiaStwbVNpNWJSRklyZ3NMbC9HUG5vSFpmd2R1V3pLdGw2bFA0UWc2ekZjMHZQTitISXBNWDF6YlAzOWNBMXliK1pJKzVrNlZidTNaVWZHY2kyckZpb3pra2RxR2JHSG9ZVzByOVRERHVSRjh1NTV5a0c1TVR6UGcvS0grYVkvOUFWODdXLytlcGlyM1dmTHpvckFQK2tnQjFEcWdhUWpXaE5wbksyMFY2cVFGdkw0czdteGZCMFBPQ2VQOXlqekFIbUdNZ0duajl6MlV6WDZQTFpXdHF1ZlFQcS9uZmt3WHNuQ0lvbjgwbnRkdzlZZUZHME1SMEJucjYzeHVzdjk4T3dnZWpmSDJ0d1Z5WmJzN0NSU2NrVnpTR1crWHQybWtJaGdacFdza0FxeWpPaHN1VjgxSzdKVDJLOWdxWFhZZ2toalRjWmtwS3lzTGt3dUR3VzVWTTNjVWhXV2pCYXhHRmNTTjZVNDJDbG9WR0ZKYXh4cHd4cmpXSXF1eHhkWUUxYi9VbDMrOVhYQ0NxcGV5Z3VRNGtZTHozMlRHb250dW9KY1ZDdnBnNGtOT1h6OTFnWW4zdHVhUGJiVlJQb1JLUUVSUnpzR3d1UFJNNzBBdktzS0tsZG5lOFBSYTdHdjJ2MXc5UDlya0h2cmhobmtqTVZOZnMxZE1LUm5XV29oSHJ6VGVCZWRiNERjWitBWkZuMFdIZjRvMy9CNy9pMSs1czk2bmkvK2xiK0duSVJwdnNOK3ZHMmI5cm5oaVFlNVVrM1N0ZXY1THNJSmRzTVBWQTZjWHhTKzRULzdacjdybXo2YmUzd1lraVZZcVh3STlIMVE3cnpkSCtFdEhBRW1QWVBxMzd2OFd6cW1kaG5zWU91WkQ2RHJpemNleGZSYVozSTJyTTdBdEhkZXhqNGpiaEpzY0FWRCs5djJsUktRRkUxMU5ZRUlTTjNiY3RYejdoS1FLeWtYU0FWZDl1aHNnVGZKd042WVhEczFTeWZIT291VERuK2JVVERVMmw0NjFPNjkxby9PQVdiSnErcVdNSU5OeEFxajJISEZrVTAyVXFVMmtLM2VUNjdiWCsraUx3NlFvcERWRThhTm1SbWdDZWhpSkhXVEZtRExxYkNtSUZCY2d2VDNJaFhBbFpDK1oyRXNwOGRnSnk0UmRwS2dpZ09POW01SWQxemFodG1PMkdac3R6ZU1ISU5jdlFMa0luNTNGY2pGNkIvOHJzZWJPWFlacHVLVnFXUzAvTlF5ZTQ3cUF0V3U4VkdlbytwTEtCK2lqTi9Hai83WWozTGo1SVIzMzNvWGNBNXFZYWZxWDJQSlRUeDU4a0Z1NFFGWmIyRDI0NUhEZEpmZGVFcEswVzIyTUMrVk5Pelp5NzlINVhOc1lwUlRpKzF3OFRaL2dyZHlkQ0RYbUZ5OGZyemMrdjh0NkJ4TGpnK0x5YmwyeHhZQVY2RHJBTEVIdWc0d3hXMkdJWTJ1UGV1c3RRL3E2UXRFNG5oMDlGWTBCY2lOYU0wR0JtSU5VbzN4TFE1eU95Y0JIbURicWJYNGladzFhMnRPR0ZtQ1ZJTFB2M0g3UkNLM0wzN0o4cG94ZFVHS1NhTnpvblhVemhqSURiRlNXc21LYjkrTUd2YjVxcmlrS0JXSmxBcVZkVjR2dEtSdDI1eVNValcyS01iV3FrdVFDZTJTellNRjIrUnZIUWZVSGFSMSt5TUJkbUg0Q0pwNVhMcHJhMExSSXpEU3h1dzZBMG1MdHgyenFCNHc0N3dZd0IxMytCYmlNL1NLUU1jWXVXcjcxK090SGdON0ZnbzVqNVJhUU05Sit6UHE0UjZRR1NuQUxlYnhON0UvZlo2UGZ2REh1WDFqaCtxRTZBN05kdGttWUo1Z2QzSU9IS2psV1ZLZWdmemtnMXpWQTBuMjFGbzlwcUhBZ1ZJelVrNUlHVWhydTQ2VTNzTmVmejgxRldhNUQrWGtFWHQ0V2tiUHdBYTI4YlBYc3g2WDNaVWlXSk5VWCs3U05qdFcxNERMUUswQjNWR2xsdFlUTDlSQnRlM1lSZXBsVHFKNmlxUU9USHlmRG5MTkJGS3pOV1dzRnV1VGxGeXVYTkMwd09SZEVxb2JQNFpxWUpQcHpBNSt6blJZUDdZQzlFYU5ZSHF5cGlWQVl5OTJ5b3FCVEFHZEIyZHphdFZYUnJYamlvMVhsMmU3V0J4UzNYQ2lCZ1FpeUdMblRjTjU2bXFpbElwcWRUT0xXb3dpQVZRSFJIWEYxVUhPR1Z0eUUwWnRWVW1xRTFNSFBlSTFXMTQzSmJDdWt2NXFJN2I5YThiUUkvSVd5MStWMzlhelFUM2FEa2pYbGlmaWFhdTdzdG9hemdvdDFuZFZ5YS9yOGZZTi96NWFWWjRCYXVLVTJ5akNSZnBLTHBaN2pQWE1waEpWbHVVZVk3NkYxblBxa0VoWTV4bjczcDBWemlPTTUrRDFLNS9va1hRUHpDWlpraW5MUUpuUHlISmk4VGtCWlVUMEJycmNwTmFYK0l6UC9RN20rakxqRlFtMlQrYzQrcHFQeW5POTl0aE9CcHNKYTFQZno0UDVjalRCQlJnRU80Z2tZYldKVXRiTVpUWlNtTnFQVXYxcHY2dDlxSVdOdE5VM3luU0pJNDdOa29mWE9KSjZRZUhJOHdwamhUR2FhZ1dMNTRMTUJTbE9pNnFEUURYR285MmhwR1VoRllXbFFxblcrNjFnTlI0bldteE0vUDAwRjdmNFZ3dVFGNFhGOTFYOWVLSlN5Vkk5UDgyUHVWVExHYXBlU1ZrWHROUldqTG5sczVXNnVpTEZ6ckdxZGQrMjE1MmhLV3MxRmVqT3NicWthT2RaWmRsOEIxRURVamNub3dlcTJwYmJGbVZlV2FCc3dPdG9iSjY3SThZWHl6K3M5RlpJcGR0NDhOcHU1eGdnZzJGZWxUYkQwYkxYNDAwYk1rTytDZm9jMUQyNzRTVnVuUDFmZk9kM3Y4QUQvVlhvck95cjJ2eXVFeUlUWTc1bEllVmhJTTg3NjN4Qm90WUhvSHZLTXFMak9hcm11WGppbWR5alJsbk95VU95Q1l4VHUybDVtV2w1Z1dmSDM4SUZQeDNoSEdWa1B4WU9NeVFSSkkrVTVaNnpGOEZNS3E5QUdxSGVoSHdINmhuYjZnM3Z4R0ZQdHphT2IrYW9kbkxjbHFkZnR4K3BXOGZLY05WR05iYkZtYS9LcWJ2Y2VSeG5aaER0ZUZhWjAwZkw0enMycGNTeGpWeHEvOU95b2l2b2FpNjZldjlyYmNPMlhFc2VGK3E0R1BQUjBkaGdpeWNxeUlUa0M5Q2RHVlNjMVlwZ3pFa1dxcFRtbUV6QlNvdFNTMGlTMlV3d1k3RUN0TUhpNWgyUkFpR3BvbWxlV1dHZm9GNUhNNm5VNUc3K05aZE1XSndSRnlURmNTUzBSbnNsMkpvd0FzU1dKZ2MyaHJSeEpLNEFJeHNqeVdXWmNyWDljK2s5MjhEY2ZjK3dzcm1KRld6NzlZNWpmYkgvL3ZxTm1KNnU4YmUxWlRyWDR3MGNhWVQ2S3NnTzlBeUdGMkY1RG5nVnhsT0dtbGlLTWd3M1daYjdrQTVtcnFvaldrY0x2YWt3OEVPOC8yZjlCZjdSMy8xcmlMN2Jva2ducjRBOCs5aUgrTlNEM0hvL3FUL2dDd3dUaUxJc2UzN2hML2xDL3RILzgyK3pjTi9hOStRRTlSVDBIc0lOVkM0c2xsSmU4STJkWTN4bUJtN3l6dTlYZHd4eS9XOVlZM1EvTWZsU2pnQnNDMmhyUGN0TEtRakg3a3ZwM3QrWUJIREdXZWg3M1BWU3B1MDR3TkZTSDFhZ2l3blhRVzdUSkswSE9la212dHBlYTdsd1ExMlByUU15eEl3ck9NalplMUY0R2dQQVpFNlF6UzBXeWQxZWFCb2R2RFJaWFU5OVRXWjRxY2xQMldMNVFPNVMwUTdrVkpPbE1WUnhNRGI1UnlpMHhxU3BkQUNaYUs2YXRiMEJHL1lsQml4MjNHdkZrSjZKQldCSWUrK0szNkxkWisvamFmM0RVeHhYSEVNd3lBQzV5S09qQTdkakJuZDgzVllpNlJ3OXRHUFo1c0JkanpkbUZCZ1R6QVBEcnJKTUkxa3FTUXB6UFFjVVRoSmNuR0RwUEhlQW01d3ljT0FIK0tWZjhvODUzVDNMLy9iSC95ejc0UUJsVHlsNCs2eUZOZWIvaVkrbkgrUllXT2FCWWJTYlk1a0doZ3lMSE1qcERscFArVzBmK0FEZitXMTdsSi9CY0tPd1hFemtOTUR5SElWN05DdHlPbmVwSjlxMTczZ2lKWTFJQWdQV0xnSjlVV1lJNDhmVmwwY0EzWGI1cXhPK0wrZlpiWXM4Ty90NVNQazE4MXNrYUNYSHJycm9Zei9EOXBpbElqbzR2blVnZmxRRnh2ZlU3OVZXRi9IVDQyQ2tvMy9uMkNRc0JVa3o2T0JNYnVmcldjeE1VcVZHa3paVldwTTV6UjFEeFlBMlkzRzk2SkllSUNpS3BObU1Nbkc4dFFkbVAwa3RmdGZaSzVzbHMzY3I5dDlKWFNkK3FZaUdOQnhBWlBGdFc2OEh1VjZPUGdhWHZuSUtiTzZQZGd5WEdkLzYvOTRlV29GN1hCNzlPbGM5dUYyRDNGczFCRkFSVXQ1Umw0OUFlZ0hxeDBtOGdGQXBlUUI1QU10SHViRjdQMm5aY2EvK01iN202MzRHMy9qMTM4clpjR0lQY0FyejRaeHhmd3ZrSG5NVmxCTjI2ZkhMTWo3MUlGZDVtY1F6QUNnWG9IdTBaRktDS2hNSnBkWTlQL3F4ZjhyNzMvZUxZUHBkd0N1a0hkUXA3UEhQQWhPa2wxMysyb09jKzJUMStFOGFiOCtJaWVLbzQwQm5GREhBZUZqY01pVElMWWhkTHZ2VnQ5WHBnUzdZeE5XdGtNUWxSNnQvYUZLb01uVHI5VDc5OFVndWpjK25yRkhFMk85eGZ1QWpKTm9jNENnbVZ6WXdkaVlYVEVKRHlreUFBUnhVWklnNG10STZybTcyNit0TGdHK2phT3Y3VW8zTkpYRVRUUWR5clI1anY3Mmphdm9TNElFZGZ4ekRWU2tBbC9MVWVpWkhBOE5OVGdOY0RXeWI1cWRYQWQ4VmpNNmwxbFYydlFya3Jocjk1KzlBV2k5Z3MrL3I4VWFPRyt4NVFBVU9qQ2Vuek1zOVNHY3dGUmp1dzFKSmZBWmordjk0OS92K0lsLzlnUy9rQTcvbFB5WkhrWVl5cnJjb002VXFlZGkxMitXTnFEejgxSU1jUUMyUUVwUTZrL05DcVFsZGRneWpOSmFtTWdQQ1QvMFhmeEUvL0lOZlFlVWVPcHlBZkFqS2JaT2pJaGFVS212MWpTZXRhdm54elg1RkNzQ1JJL0sxUnl3alhtbmlHT1Q2enVMSGFRWVFUTTZBOEdGR2hJakpIUU1wOUsxNjBOeGhYMjlXaUgwZkY0TStHbDV5YTF1WGEyV3FheHNpYUpiMzlsNFBnSXE0NUVldTVueFV2WUk5MG80dk9qQVFSaDBxQ1hNaFdwZnU0aURucGMwUU40QWNINmNCMVNhVzFkeUhzVnl3OEdweXZCL3paUlBKRm95a0FjaTZWOTNzcHpONWJHSnMvV2RsUGM4YjloenJIaWQ3SDZmNEhGOGpSMyszMkdHOGR3VFNHL24rZWp6K2VJQ2syMmprT2RZRUhNanBsRlRmdzh4WDg1ZS83NzhqYzV0LzdlZjk0cWJtVTRFOE05ZUpJWjFSRjhnRHdFSlpCdkpncE1UeW5oOXZQUDBnVjJEUmhjSE9JRXVaeU5sN2w4bUJxZXl0ZjJZa3ZnNzMrT0NMRjN6cUMvOEhNbnlNdEh3cXlJdVU5QURLVGR0Z1hxRGN3cDR5bjlRYkptNzZQajdtc2hjdUQ4TEtZcTc4bk1meGtPT1NYejJnckdDNEFRNEdqaWRUb0tzYktmVGd1RzNwQXhxMUwrbnFYYllTL3ZqRUhmdnZTNGhGYnQ3cTBiL3FWcERONTQ3WUlHd3JiTVRuaUpKb3pweWtVcVd1TXVXR3djWitROEtNejFRUjFsaVhPck94amdDMGg2dHRMT3g0OUFCMWJKZnZIdGFvdEtMRW0vVldOclFsYkIzQU5kQmNqVHRYeGN4Nlk0bytsTWtGcUxsTTNHMURHMGh4dE01MiszcnBNeHgvbm43ZEovV2VmUWVPY1lMOUF2ZHVnM3ljVS8xTXp2a095SCtESC9yQnY4OVAvY3pQc1VzK1RGRlptZWVGY2JRU2pBdGgvVCtBam1RcExMTVpVcVNmS2g1alBQMGdwNEFjT0J4Z0hQYWtiUEpPWFVEVGZWTGUyVTJsZStvQjBzbENxUVAzcDNzOGMrc1dzbnc5aVUrRDlIR0tuQnVyUzlqa3IvZmhEWGpTZUR0SEwvcHR5MmNGS01WVjFrdUJNYXB2WVNzSk5uT0lycFAvdXEzVUxaOXBrdUl4aTl2VXdFek9Fby9CTXB5ZXp2QWFTQjlQYmlFRkJzRDEzUkFld1F5Nnp5eWI5Y3hXdjNaSDc0L1hKY1BvRkVBYzE5RWQyMWZrRUdtVlFKU3lNaTMvVFN2dkpRNXk4ZjdrcTYvYjdxVkRFWE1YcnJkNWdERllkNEJqaS82YUE3Y0N6VldNenZlMUFmdkxjdVdXVlQzczkvRjIrKzMzSU5lenZYV0pTMERXT3RuV0s5YUZyVlI5TFdNKy9qaGp6dzBPdzYvbkczN3YxL0s3UC9EN3JPUnF0akpDUzduSE1JeFE5MHhUWVhkaTE0eDZpYjZsVklaY0VOMmJzbEFISkVVLzBNY3Z2ZmowZzF5VU1KTEVVaGZ5Y0EvaEptVWV5T09NMWhGSk0xVkhSTTZCd2V5dFRJZ2s1TmFJM1A5Mk1zK3dERDhNeTN1QUJmSmRwSnlobXh2dVNSaGJvRm9aQTUxTTF3TmRQNEVmUDFiRkV6aHNRWEN0a3JJMlJUMldLamZ3YXR2cTk5L2swb2UxK3NtKzFSNlFBNnhqMG91WW5NZlZvakMxak4zMis4dmY5OThEN3FaUVpIUTROOWZrbGhsc1pjQldFU1RBM3RNSHRsSm9kWm5UWkhQeHZNRHRFRHRHV2RiUDRhOVo0UU9YOC9USWRkcU8vOUNPWmZ1OUJoaTBzOFlLY0QyVFd0cDdkalRCTGgrV0ZsQ1B6dDlEVWd3MmpQQVk1RG81Tkl3dndCcW51K3JCSkQ1UDZWNkRiYXlPbzlldVFlNXh4dzB1K1BTZjg5L3lnMy9ubnlDY1F6MUJpOEI0enNKc0Q0WjZ3K3VNVHdnN1VGcWorMHl4ZXpKWHFBbVZjNlNlVXFyTGx3K3pCUHdFeHRNUGNvODdkT2FmZmVpSCtXbi93cDlnNGozV0ZpSlZxRE9uOGd6bldwQ2hvc3NJWEpCMlNsMFdxRHZTdUtmT3gzTExFemFPTGY2WE9nMWNOVW4wN01zdTVVdXh1TlVEenpaT0VtQVlET2RvZnh2alNGOXliQjNhQTVmNFA4MFUwcmNPdW56TU5vNVk0S1hsdXJFQnJlNy8rbHJyOWV4dy9iOXVBS1lIbDhRMjlTSldyZ1lpRzhiVU9TZXBSM2xzVjUycnRjQ3lnZTVEUUdzVDQ3d0MwRGJ2OSt2VC9iMlZRcmUxTWpsYXJ3ZStBUC9lVEhNc20xNlBxMGFXa2FJSzNHWEluOFJTUGdoNWI1V2Voa0phVGtuTUxOd0YzZzNNbGhaVEp0THdITFhlaFhwZ0dKK0YrUUh3YnZieVE2VG4vaGdmLzlpTERHOEFDTDNaNHhya0hqWFVicXZERE05LzBzOWxmdVUzUWhxWTYzMlFSRTRqcGR3bkRSa1JvY3c3WkhnVlhhSjF6Sk91L3gvTGhsR0ZPRXdnTVk2ZmxIdDM1aEZ3ZGN1MzhsQ2JwK3MrTWZ3WTVJN0toTFgxcnpwdTFtMEVTRy9Bakc2eVBMcGJIL2I2cGUxZmZsMmFrL1FZY0x0MXJuUlp3bXFoNzlsb24yUWZEdzR4MlVlcm13NlVQZlVnWWMxS3QvdlpncTFLQjZaWEFsbnZlcndxdmhYc2lpdmU2d0NwTC8xMXBZeDUvSC83ZTFVYUF1RDYvVjIxenZYWWpzcTR1OEV5SzZvSDBxRFVCU1FYdE96OEllMHVNcHlpeThTd3U4VXkzY1ZjdUNNanR4RjV3S1F2OGNtZjlyMk1aLytBZi96M1A4eHVDR2Z1K0lqOXYvM2pHdVFlTWFZSmRyc1o2a2lwRTEvOHBiK0U3L2xUdjVZbGUrWHIraElnNU4wSlpSckluRkJJakhtaGxnZVVOOFFFKzNhUDNqRFNBeDJ1cTNjeG1CaHRFdmNtcU1mZ1F0UXZqTkU3TTN2bWQwV1hnd1pjZ0U0Y1Q5emJpaWw3dHZFN05zdTNTZjRxbG5UVjYwZnJiOWZwOHcrdkFzZE96bzFrYytnWURSZ0k5RGIrSHB5dTJ1L1V5Yk8rYmJXWVlldmoxdTFmamxJd1ZoQStBckhXT3VjWTJIcjIxci9IMGZvR2JNY1ZVYTQybnp3Y3FFeVlEZUR2SHdENjlKRHI4ZENSRk9RQ3lzQXczS0l1TXlrbEVvbTV2b29PZnEyVjV5SGR4VnBURGY5L2UrOGVKMWxXMWZsKzE5NzduQk9ScjhxdTd1b1hMZTN6Q29MU2d0TkRqeUlNRC9FamNtRVlFVkZCZ1pteFJULzRHRWJGR1IyOFhFZTlLTWdkblhha0VWU0U4WEZGYUdaVWZMYlhZWFRnNGdBS29vMFBRTHJwNnFyS3lsZEVuTFAzWHZlUGZVN0VpY2lzcXRicTdzeXEzTi9QSno4WkdSRjU0cHpJeVBNN2ErMjFmaXV0bG9sbG91L2lxNyt4NUV1LytJbmMraSsrQmJUR2F0bWE4WVQ1ei93aEpZdmNCVkFtaUsvQUpnY0dNTHp4TFcvaHhTOStBOVQvbk1LdDBvUnRPcWNKTUZoem5CRHZCdFpnd1IzOTBtVjJraFdaUmFoQzJTdGU2RTVJVEFWbFZpelNUN0QzQ3lPMDE0dlhqK0w2MytuOTd2emFIMHg2SXRqZUo5M3pZTjdXYXgrUitBZEZjbjJSN04ydCs0anRYQldsMmZ0TGkwdVQzYnFTOU1VQjlrWiszZk83NXUyd3R6RjdHZ0V0dkZodi9ORmk2ckh6R3AydE5TK21MUmRGcXJmOWhZSVAyZlA2OXlkNjY5TjVYSGI3MHcxR2piM3ZoLzhrZTdDTWNPVUE0akxlZnd3NFRvcSt0akJjUTZRQ3RpbXFtakN4V0JwS0hzNm9lQTIzZnNkaitja2YrYitJakRCNlBGMlV5aGgwU0lnTnhqWUlTd2Q3ZVBlRExISVhvRzYyS0l0VmZKUE9VOVo1WW5Tb2FSakk0NG04Q0dXSXNwR3NtV0tSUnJrMEJzdzJ4T1dEUG9TTHBMODIxWjI0Tzlzck16MWhMbzVRbVNMbFFoVFczMjVnbHZyc3ZjYlVhcXpYejdidlNWN2FiWFRyZkxQVTVxeWRZRDZkSW5QRkxaekQwV1dSODZlYzU4VnpJUjE0cnUzc2R3WGNDc1JpOGNkKzI1MTk3eXJWK2g2T00zUGt4Y0tvUGVubWFTUzdHRm1kSzEzSnd1TjdVNWpucnI1azdubDdqMnYyVzdQOVRXdU9xcUVYNGZhM2Nha3ZCenk0RkxKR296VXd4cFlWb2Jha2k0VXh1QWJqSzFJLzVoTEJ2STd2K3JjdjRHSFhyZkt0My95dENKSFlXRVFVNHl3d1FySDR1c0NWNllML1VvaWxzOGpkTDdxNVZHbG1IU2dTRzlDU2Q3Nzc3WHoxRTdjWjg5Y29TNWd5RW1zUFpnbE1BLzVTL3lkY1BKbjAwb0hhRjZoekZXc3NSbVlMMGNOK2hSMXp4U1g3WGFuTC9QT24zeGRmcHoycDc5ZGtQbDB6TzhmajNYT21qaUw3MFIzTHZBQko3LzJaTlJFczlocDJyeis3TFl2Q2NkN2V2ZjZhWDVkRjZOSjcvZXJQL2FLbmZvUU1pNExWcjNMY042TGJiN3Q3eHRrc2JudVJUaERuMzl2RjF4UHh2WmFJODZjMk0zdHhkZ2NmS3Jvc1ZESy9XS2NvVCtIckUxVDhKV1BleUozdmZUMVBlTnhYSUZxMVQ3MFg5T3JwZHFZZncrbWZ5MVA3Q1pVNy9CZnhXZVF1aEVJVFJoUTJUVENZVEhhb0tnVy9uZ0laQXgvNjg0L3k2SnR1WWpENVVjWlVZTzdEeWhvaG5PV0JNQmc5V1BZVHJ2MU8rZ3NuMGE1bmJUbzNidEZPNjF3c3JybnRmZjltRXRkZGZQUy8rbjE1aG1sVXNHZU5iYi9JY25FL0xyU2ZpenZXNnhrOHoxcWU5RktYcy8rK3Z2alBJcnBaUzBUNzVMbWhzdDAwZ2NVS1M1aFZJczZuOTJaRk1Xa2ZaZ1UvL1JUamZ1STRFNWwrSTdwT1BTN1pKOHJhN3lKbW52MTc4dmFMRlBmTEV0aGNYWGtCUkFwVVJ6aDdBaC91UmdnTU9NR291SlZqSzQvZ3p6N3lHMXg3NVkwOXY1eHRqRmtpaG9DaElFckVtSVltVENqczJuUXBkRElPVkpXOUpKWkZzOGhkZ0JEQkdnOCtwQ0lHQTQwSHFTQ3lRUm5Yd1VRQ2h0ZS8rVTI4N0FYYk5Hemd6RG8rZHBWdmx5NzdmNFo3YTFKNzBscjk0bzV1ZmN3d0hYUzZFTTJsM3JlOTZhdjVFVUQ5L2RsN3Nwc1hPcHRlYXlwMHZaUHczRkgxUkhEUHpMR2VVSjIzQUtYUHVkYk1GaVBSeFRhRC9jUzJONVIwejVwV0szQmR1ckc5T3BlNWFRZVIyZnJWYkp0ZGROaWZJS0ZhY1g2QjJ5OFZPYnRmOTVUeW55L051dmMrbVRaN2R4SGdiRC9UM2YwMGFlZGUwOTlHanV6T2o3VC9CbzdsNGpnNytnMXNiR3h4YkdsQThqdE03MmNJTmRZSm9SRnNrUzVNZzRJMUVZSUJBMEhIV09OUWJaSjRlamZyTURyRVpKRzdTRHllcGpGVU5tTE1oTmYrK050NCtYZmNRZVFMd0I3RFJpWG9HT0U0YXU5dDdjREdVT3hDY3gzMzM0RDJVbVV4Y2tvTjFWMkVPLy9oaXl5S2haRnFtcTdxVitaTnF4TmJKNUhabUoxdWZXNnhyTjB3NytUU2lhbHJoYVNMZkZ4djNhcExOdllxSGVjaTBqZ25EREpYRlVxN3ovMHF3TDZnbWVscmRPeE4zU256aFV2N3BJNm5RdDZKUXl2cSswN3JwbjI5L3J1K0dBbDN2K05aak5ybW95MTZ6K3R2cS85OVZvQTBYVmZyOW5IUEdtQjdXM1QrNTh0OXNMRW9HRThhMXhTQlhUQ09WT1VZd0NqRTR3Z2JPRmtpYUVRcFVFNjFXWklWWUJQS0ZXaWF0dmpISmhOdERKWlRGTVdmOGNaZitKYzg3N2xQQUFZUUhWRkI3QVJoZjRQMHk0a3NjaGVKUnRLNEZTTEVpaWFPVURka1dENERhWjZOeWhiUk5CQThVSUZyY0xLTWI4YWNlODNwY3FJVEhabUtqREF6TTE1TWx5MytuclI5T0h2WGhqcjZucEZ1VDkrZXRPS2swMEtaeGVyTXJuaWxvWXZ3cE5mN3MrakhLQlJ0eFNoQTZKVzR3MHpBWjJJeEZZUzU4VUw3ckVQU0w0cGhJU3FiWC9lYVBhbS9yWjdBQVh1OEpmZFlYWFhQWFRUTTdoN3p2V3JMN3AzWXI5bjdYQ25KN3BnV1J1L01EVitGZVJIZnI5L3VRaEgwSlk2WWRwM2ZrR1pWV21BSnpDWlFndzVBVHdQcndJaXlNdFNUQ3V2V0NmNGtzRXk1NUtsM0c4QmlHT05ZSXZBWEhMdnh6ZHo5TjV0NFh6TjA2U0t2dStoSVErNEQ3Z0VZWlhQWXlTSjNrY1FtWFhpRmVvd3RrMW13Q2dSMmVkNEx2NXc3ZnY1cmlKUlFiQkZDQWJFbXRSWk1zR2FERUE5L0NlNER3cHd2NXF4MzdweDlkaDE3cWlvWEk1SDVQcnpwSTYyamh2U2lLSjJ1MlMyZTFQY3pXMmJoOGRucnpheTlGcU9sZVpGVFlxOFZZREhOMXFWRSt5MEcvZU9kdmdITXI2MnhzSy9keGNETWttek91M0tQOStPOExkY3NlcHdYVE4zWFFtdng3NU1pMy8wZmErK2JtMHd3bTEwM2ZiNmViL3RIQURHZ0kyQ1YxUE9vb0VPUUduUUZoMFhOU2FJWVZHcnd4NEM3d1I2SDBQV3Vua0s0RHN2N3VPa0pmMHBwbEQvODNYZmoxYU4yaDRKajB4NTZjVTE2SFJ4S3NYOWJ6V1ZHRnJtTFpnTjB2YTFJOGlnMW9SN2lrbGtiWC91dlhzaGJmMllUeDlQd2pJRWhibmdmc1ZraGVyZ2tWbTRmS1BZMWdDN1lleEx2LzA1N0VqMW4wVXAzdGI5L0gxNWlZUTFyenRxcm41NHp6SXRjYk9XcWU4NDVmbmNhSlhYVHkyVitmYW5kaDFRczBxVlp6K2Zhc1NqczgydHFjOC9YUmZIc2I2K3o5ZXFuR1JmVzJLU2JMOWVMSXZjVjhIT3hHSWt2WExEb2ZnYkwvVzMyV3grT0lHSkI3b040Z2pTemNnUnhGYnBHYTQzQWhEVGcwZ0VWdGp4THFFc0tGRFZuOFBMN2ZPMkxidVJOcjM4akVqek9Lb1FobUJxMHhIdHc3YitIOXlPTUxkb0xOVEJINEczUEluZVIrRm9SQzZZVnRSQVVad08rQ1RoVHRlZjBDZC95OHUva0RUOTJNNTc3aUVZaE9xUWNvdlh1QVIvQlEwWHZaRDgzbWJ2c1BiN1BTVlZheDVKemlaejQ4eFJ3ekJjcXBIVzczc3k4NlR6QVR1U0U2Y3c1RWRBd1gwazRKM0w3N2UvQzR4SjZRZWU1cGpqTUd5Q25ZK3EvUDR1djFZK09tSDlmcG00bS9kVHU0dmJuOTNtL05abjV0T1RpdkVTemNIc2ZjWnRMUjU1L1ZNNjVCZjVva0Q2VGdUU0llYWY5dTYrQ2JDREZOaHJYSVN5RE5vaXRJU3loN0dEZDI3angwNjdnOXAvN2QzenBsOXhNYkJxS29nRmRTVjRDYmdkbEdXalFFQkFSUkJ3eFdJeUZFQlZqQTNMSlYzOWZtQ3h5RjAycW9BeDRJaEdEUVZWeFVxQlJrVkNDMndVWjhQMnZlald2ZXVXdjR1S0xVbFJuOUFobGFCYkZvRHVaOVlaOTdsdUptbExBL1lyQS9vbFZweEhZdWZyd3V0ZURxZEQxSFZMbVRzcDdJelZwOXl0WmtMazJ2ZHJoRndTbjh5dVZOcnByZXZzMHMwV2JDVTIvbjYxTDVjMWJtTTFFZHZZNzgzMW9hZHN5dDdiYmJudWF1dXpmMy8vZXZiK3h0eDRZRjlZRHUvNjdyajFpTWNyc3o1UGJyOEx5UWtPRkYvOUdSdzBCU3BCeG13Mm93SXl4V3FCNm5NamRGSGFaeUVrSXE4VGlMZno4ZjdtVjV6M3JYK0NNZ095Z2ZubTY1QnNqR0RkQnFRZzZ4cWpER05mV0RxVG5LRFV5L1Z0ZC9DaWJ3MDRXdVlza1ZlRjZvZ1kwVkZnRFRRRGpJa1pBMk1hUDEzQmxxajI1NTh3OTNIRHRTNmw0SnNHZXdvZkxmZUYzUDlIcDd1OS9QOWNWL2FKblptTGVZYVViZ2JOZnRMZFg2S2FSR20zWnZJYmVZKzFBQUhTMXJRQUFJQUJKUkVGVTNaN282bHg3UkZlVUV0dkNqTzQ1T2xjMTJnbkViQXJEZmhXTVBYR2JpNTdNUGxmWWkrWDlpL1FtTXJSVHlkTngzVi94NktjWiswVXFpK25FVG54bnI2WDl5SEhmV1c2WmM2UHRXem9DdndZeXhwcUFoaXVKZklLU0c2amRUNEI4Z04vNnJkL2tLVS84c3ZRbk1xZlE1a3FrOEVUZElmcGoyUFpqMXZnUnBTc2d1T1N6ckZEWERWV1ZQcnN4Um93WTZnbVVsL1k0elB0RkZybUxKdEpNb0NqTnROaEIxWUtCcUI2VkJodUhxRGJwdXR4dXM3bGI4Wnl2KytmYytXdGZoci9FKytndXpPSzYwdUw5OUI1ZmZLd1RoTVZpa043YWxIWUNtQ28yZFU1SXV0NnZ4ZGRiVEd2MmhiQ1lFem50dHcvTWlXbEtSOG8wOHVrRXNoTkJ6OVJXYXpxd2RaOUtTSVc5NjErdUY3bk9DamZtSXlYcDNlNTdpUXJUWWFqOW9hejdIanZNcWh0ajI5RVFab1VoMm05aDZLZDQreGNUdmVwTjRPOW51M1d1TmRhamhJQnRMd3hpQ2ZZMExud1duZ21zdklSN1AzazNBM2VjMVVHS3VHTnRNTlVwVkk4aktzUUk0aUtSYlJvdEtXU0FZWlNLdXVvQ0xUdi9UMUFzTVFqTzBQNk5MNDBwQWhkTEZybUhFTlZVVG0zYTFkNmJiNzZaLy9XZVp5SmNUVTI3Tm1jcmtGUGdMU1ZYRVBFRWRsTmF6aTZSaG1BNlNudU11ajdENWY4aHZWQWtzaGhoZE5GZTUrZ3hiMUM4YUsrbDFQVEg5OHhjUkxwZmFWc0xkREVkMmtVKzNacGdPWDNOV1lRMlM0UDIyeVptVVpsblhzak9kY3p6QWpqRHR6LzM5NmNyK09oRXNQLzVpSHR1ZDJtcitVS1ovdGU1TGc1ZzFuNXhoSkVHMUdIZEtzSGZqYlhYRXVLcGxDM21hcFJkc0JNSXc5YWdSWUZkS2xQaFkwRXdFNGdWeHB5bGlGY1MyZVdGdDM2QTE3NzZSMWxkT241MHM3Z1BJRm5rSGdLNnQ3aGZXZGZkOWpRVVpVbmxmNUNHRW5XS05nNktzOUJjRFl3eHNrN1VMVUN3Ymtqdzk1Qk9xZ011L3l2ZisvRmYzdXZCV3hTNmVaR2JwVUM3a3Z2WjBORCtuTHIrdGtQdi92MUVybnU4UzFWMkRkN2RkSUM0OEJqOC9Tb1hlOFVtKys3RGZ0RmgzN2xsSDVIYmQzSjM5enJuU3pmbXlHc1BZbFBVcERXcHlDWWdja1VhY1NRQkp3RWZJNjRZNHB0SnFuaVVOVW9uMUJQUGdDR0JrelRMMzhkNFc3R00wRkJnN1RhRzlZTSt1c3VDTEhJUEFUR21FNEV4SnVYRGphRnBHb3Fpb0s1UFU3ampYSHZqZFd4KzRsc1lzd3BVNmR6VTFJQUg2NUZ3QW1VRWpLZ0dTMHpHZDJQc0RjU3djNEJIOWxCd0laSHJuK2pOd20yWVJScXljSDk3VzlwNWRKMkFUUHZWdXY2MU5sTHJpK0NlU2RtTEJTc3dzOVhxeExjL05EYTJqMGN1SEluM3hzdnNsL2FFbnJqMSs5QmFkREIvMzU0WmNJdk40bkIrNFRwZm12a29rdDR6NXdMcWw2SGNKTlF1bVpiNDJGNU9yUkFaNFd6RWgxVXNsc0JIV0xyNmY5THMvZ0dUVFNWRXhkb3hNUTR4WmdJa28rUzV3Zk9aZnhBNUdINlFhWnAyU0tFeGhMYVVOOFpJVWFTVFcxa2NSOHcySDd2clkzenU0OTZHNVJNNDZtU1FXUmlvZGlFY1E5bWdyTTRDSXlaakQrWmFZdHc4MklON1NOZ3ZoZGIvV254T3Z5VWdyWXZOMG9lZHMwbnZPUnJiYUtiOTBxYXRpdXgrVHI4dkpIOUlrYVpOOGZXM2xiNmsvZXF1Nkdldm43NW1qM2NDMTQvb0ZyN0VwNi9wZHJwOTZiWTFHNmVUanFFN3p0NXJhbXlmRjFLQlRQODRwL3M1ZjV3WEZxMzkzditqaXl1M2dZaFhUMEFJOVRKZ2lUNWQrS2lMU2VCa0dRMkM1ZjM4NHk5N0ZULzFueitYblh2dXBONVVKS1pWMk9BbjJIYU5Ob1F4T2Z4NFlNaVIzRVBBWXZRR1VOYzF4aGlzY3pSaktBY2JFTmU1NS9SSm52UGNXM25QNzk5Q05HZUk4UnJFN2VKMGpTYWN3ZGhJRE91a3lHQ0xXWjlaWnNaaVljbjVydVg2QlJLOUtRTDdlRHpPTjNKcjczbUxFV1FuQVBPVmxiTVVhVS9jcERPVDdqSG42OWhHY3RPVWJOZW1zT2lBMHFVYUYrYkh5ZkFDMVkvbkt3YktYSmlLNUZSaTJqVmRBKzQwNHE4bDZta014NGp5TGxEbHhTOGJjdnVQLzBJS3FnWHdBWFdXcUlxMUFoRkM4RmluSUNPSWEvbFA4Z0NRUmU0aHdIdVBjeWxWTlI2UEdReG1kYnVweURzaUpPKzVxQUhmVkR6K2xtZnhvZmZkakpxU09xWjBsMldKd0E2dUZFSlRvbXlCWnBHN09QcURXeGZGc2NmaU5JRzUxSjdwaVJBTFF0S2Z3dDBuQ2M3VUJrd05TbitiQzJ0bDAyMTBKdEQ5Ky91cDAwVWNQUVBLUFNLWVJlNGlNUVhPMWZqYVU3Z0tncVhSYlVxT1VidWY0NXYrNWFPNTdUKzlQdjBKWkllb0xyVWFPVkFtUkNwaUdPT3NSWWpFV0tYTEpHMWFnNG5MdjFuN3dTYUwzSU5NQ0FGckxYVmRVNVpKa0dMc3VlZ2ppT3lpWVFram9CTGFodVVKSC83enYrSlJuL2MwU3YwQjFKNmhZUUxoQkhBYXVBcVJlMUc5L0pzNUgxd1dwNVAzdVZBVTJPZGNBcm00UnNoY3hKWG1mUzI2bS9SOUl4ZUxUTHFJYy9IeC91c3VScFVQTkZrWVo2U0kzVXFEMVN0cGVDOW02VzI4NldkdTQzblBld2FGVnFqM1NDR29MNGlTbkVZQ2FacUFvMEVvQ1hFWGE1Ym9Cak5QbTdmem10eEZrMFh1SWFSTFczYkNCN1MxQ1JQUXFpMXljTW1wd0tRci9BQVV4Y09wd3ZjeVVRdmwzMEY5QW10cVlseENHUi9nRVYzSzlLT2cvVVJ1VVRENjkvOTlHcXozdXhMdmlaSVV6RTlZNzdtZ1NEdUNaY0VnZXJhTmhlcktLZjJ6NDZJN3lnTkJGcmtPUThTd2hKZFg4Zi85K1R0WUxvN3gyUS8vYkt3UlVQQ21UWUlyb0I0ampoakhHRE9ZWGF1RUJtd3gvU2lxYkFHcktHTU1SNkJiKzBFbWk5eGhwd0YxSTB5NWp2TzM0ZVZqb05kVEZCczBUWW1ZSVJwUElXSVFYU0ppc1daTTBBaEc0TEozVk1sa3pvMlFzaVpSRll5MjY1MEdySUVRVXJXcWlTVHo0d2JybGdoeEI0a0R4T3dRbzBQTUFJMEdDSWkxcWRmTm5VWDhaNk44RFIvLytNZTUvdnJycDlYVHFqcTdpTTBjT0VmN011d1NJTG9hWVVoc3R2bmt4ck5nOEJvR0tFM2pLU3BCNHc2d0JsSVI3UTRRd1pTZ1F3ajUraVZ6dEZGV1NMUFlIRVNsS0lhZ0ZoTXJVdnZHQ2phdVVKWU5tRUR3QWVKeFZIYUp1b1lNbHRCNEZtZ3dzb0dHR3FwL3cxdmZjZ3ViNDY5RVZibmhoaHZtMm9RNmdXdWE1aHg3bFhrb3laSGNJV2VpVU1vT05NdUloYWFKbEtzVzI3eU9RSVd3bVZ3VDNRbTgzeVZOR3JlVWhVTzlwZEZGRi9oTTVnZ2haNEJqR0ZQaENrODk5bGlXQ2V4UWlCQUlSQTNBRXE0TStEcFNEb1Y2VkU1dHpxelVvR1BDMHIvSDd5aFdhd2dsMkJGUkswSUlGRVV4TlhrSUlXQ01RWEtUMjZFZ1IzS0hIQ3NOTVM0anhRUW1VRmhEckpWZi9kM3JNUHdGQldzWUtyeS9EK3dJcXJ1eDlqaDFNMG9wbWt6bUNHUHRsYUFGTVhqcVpnZllJRXJBTUNTS0llb0tJcXRBQk85d1lxbEhJMG9Hb0gvSHd6L3IrN25waTk1S0U3K2ZlbU1NY1lKcUNjNFRRbkl4S29waTJnUGJyYmVMQ041ZmFBSkQ1cUVnUjNLSEhOVXRSRmRSczluT25pb1JmS3EvODBPR0swK0V5WmNSV0FGYm96RWdwa0JEcEpSajFIcTVPNkprTXVkamhKVmxnaW93U2RORHZTTFZBSjJjQXJlQ1FZaCtCOGVuQVgrS2xkTjh4bVAvZ0ErKzl5NmMrclJlSnlPUUlVaEVtVEFhRDZrR3FabWozeUxVOWNMT0ZaZGxEcFFjeVIxeWhHRmJnYlZHbzh0RUNwUUs0NGM0Z2RINDkvajZsMzZVaW9nTkJlZ3FHaXBjWmFqMTVFSHZmaVp6d0t6Z1hMZit0Z3c2Uk1vbGRMSUZkZzE4R25GankvZHozV2U4Z3p2dWZCbzc4V2Y0MEIvZmhhTWhSQXQyRTJTSWIwQ2pJZm9oUzRPSTFWUXh2U2h3TUxQeXl4dzhXZVFPTzJyQk5xaXBjWklLd1VKdEVPZFJJbzdBRzM3eURiejZ0cXZ3M0U3RkxxRDRTUU51NmFEM1BwTTVZSVJKY3g5d0t2bDNoZ2F0TjNHc01BeFhZKzA3K0Q5ZjkzZU1KNy9DWFI5OUswOS93dE1oQk1RRWlBVllJYkNDU3NRV0lHYVU1clpGQTlKTUo0cDA2M0tRSXJ1aUtMTFFIUkp5dXZLUUV6UjFBc0JwSkI1dm5hSWl5Z2l2eXhUNFZBcHRLN3hNS0lxSDRmeVBvYTRtK08wRDN2dE01cUJ4SUx1cDJwZ2hnK0kreHVHZHZPNjJGM0Y4M2ZIMXovMTZOTGpXZjN1RFVLOWp5eDNRNVRSR0p4Wmdkb2pCSXFaQ1JGRWFncSt3TG9JS0lqSXRPdWw2WVRPSGh5eHlsemdlaitDSThWTVU0Um9vdHJuOUYzNk43M3dCYk9sSlVyRHVjV1pBd0tPeEFWa0JKajJQeEV6bWtDSmpVcHB4aDhLVk5ENnRjeGxURU5uR3hpR0NwTTgySStBYU1CK0hlRzNiLzdaRndXY2lmSlJhYnVOUC92dy84NGdiYjJGUUhBTXpodHhzZmRtVFJlNFNKMUxqeHlWbEFVM2N3cmxWb3NCOW0yZTVkdjBXUkY5QTRWYXBmWEtjbDZwR0oydkFGcllzQ1BYbFBuUTFjeWtqeHFGUlNXSTBBc2FVUTBjOTJzS2FHNGptUHRUdjRLcnJrVmpRTktlUzJYRW9DZFN3L04wODVsRmZ3cnYrMis5eHhYR0hNTWJKZ0JqQVpOdXNJMEVXdVV1ZVNYSTFNUTdrZEdwa1ZjQ2VKUGdURk1NUzhhL0JTc0JyQXl4aGlpM0VEd2phVGFiT1pBNHJFU3NsUVQzaUNqUjZCRUZqNjh3cHRwMEZPQ0tabURkWTFxamRyVFJOZ0ZweFpkc3JxcW1JU3lXQWpGRVV3OG9CSGx2bW9TQ2Y0UzUxbWdyRUVjSUlINWJ3MFNNV0pKN0FDdmhtaStkODR4MDROVmpXZ0FGV1ZnamFZRjFPMVdRT042VWJFblFYMkVGOU82MGhObGdxd0dQVVU5Z2RZQWN6ZkRPaC9DNTI5WnVJalVLWTRJeUZPQ1JOZXRnQkFjRVN3aktTQmU1SWtDTzVTNTdJYURSaE1CelNHZmFHR0hCbUJ4aENVMEN4UWMwNng4ekxtZWoxS052QUNiQmJFSEs2TW5PWUtTaFdUdExzcklNNGJCRUlFOFhLbUtnREN1N2xpcy82ajN6aXJtMTgyS1d5UzBTZmJDcWxtQUFGcUNGR0NEcWljQlV4R0l3RjJBVnlCZkxsVG83a0xuR1Vzd3lHRVkzZ1F5b2tzY2JpZzBWRGtTWWNOT3VVUkQ3eWlYL05FNzdpN1ZSdWdETU5oT3FBOXo2VHVSQkNzMzAxd2dRWEMzUlNBMzlGNmY2SzUzempleGo1SCtLZXY5akc2QmtHWmduUmdIVVJLU0JHU3lBd2lUSDVNTHNoSWJZQ3AwRElBbmNVeUpIY0pjNTA3bFNFNE1HV0U2S0NhSlZtZVpMRzl5Q2J4R2dRczhKWGZmMHplUHRibGpINnhUUVB5cnl4VE9hQndiS01za1BKT2pYdjRMa3ZyUGo1TjcwRjBZQ1lpTVVRR3NGYWg1b05STmRwNmhwYktxSVZRY0ZhaU8xb0lrT0RFRkFWUk5vMFp1YXlKb3ZjSlU0U3VTYWxIUVZnQWxLQlRJZ1lQQVhDaENKVVlCcVlGRkJCTGJ0VWNoUHd6UWQ4QkpuTStmaHJibjd5R1o3NmxHdjV3ZTk5TmNRbU5YWEhDb3pIUzQxbGlhYjJsS1ZML3c4S2FuZUFzdlZZdG9nMWFKdk9qeUZOMmxFMG15Z2ZBYkxJSFhHZTgzVmZ3enZmOGpDaVdTZkVkYkE3b0FPSURzY09uZ0xyS2tMWUJLa2hEc0FNUWJVOTJSejBFV1FPRk5GMjZLc0ZMQ0lXcFFGdEFJUFFVTmpqMU9IdlFJWVlXVXBDaFFOR1JOdEFXRWJLTVZxWHBPRTRRN2I1MS96TzcvMHlKNjU4T0k5ODVDTnh6dVZHNjh3L2lDeHlSeHdGbnYxVnorTy8vVCtmaVpocmFOaUZXQ0J5SlNyMzRJemcvVExDRU92QSt4cVlZQXNoTko3OUoxOW5qZzV0UGpBMHFUQkVBaUh1WUsyaktJYU14MjJrNURiQWZ6cGlHalRlRFdhQzVUT1JPQ0VRc0JoODhVTVFScnp2L2YrZG14NzlDSHd6SVFSbE1CZ1FRcHB3M3BrZWR3NGptY3lGeUNKMzFOSGsrbkQzZmFkNTNDMlA1K1JIWDRKbkJZcFBRbk05SUdBMjJzbkphOEFackxXRU1NUlFFdGs5MlAzUEhDekdRbFJzS1lSNEZ2d0V4N1VZS2FsMUkzVmNSNE9VRFJvRUFwUkRpNFlsbW5xSEZhNWgyNzJRLy9KTHY4U3puL1ZNaUJNcVo2bkhLNVNEQ1pDS28vcFJYSGZLeWlLWHVUOWtrVHZ5VEtickcwRWR4NjY1aHNuSjcwNUNaOFpnenJicmZTc1FHNlJRTk5RNEdlQURwRmd3YzJTeDQ3WU54UUVPV3hSbzhNVG9jY1lTYlNBMmxzRnl3M2hIS1l3anhKcklYVkRlanA5NERCRENDTmVPc2tFTm1BMmFlaDFrNXV3UFNlQlVOYWN0TS9lYkxISkhuS2hnSktKczRYMHlvWTJtWUYxK0VNOHh2RGhVVDRNdDI1Tlp4QlNHMkhoY2FmRjEvdmdjYmRhd3hRYWgyUVNUQnBTaXA2QW9vWEhBbU1JY3A0bUN4Vk9jK0hhMjcyMHdSRVFOUVVZUUZST1hVdDJVZ1JpQW9rR3gyRjcxWTR4eGJyUk5YcVBMM0IreXlCMXhBaEJyS0FwQXRrRlhRR0NzWjdqK21wczRjL0lGRkhJdEdLR1JYY0NBOXlDdXRWUEtIR1dFaU5MTmE5c0NHN0d1SkV4cXJDa2diaUdNdWVvUnIrWnZQN3hCUVlsb2dmcE54QTFSS1ZyN3lBZzBORDVTbUNGUm9BazdWRzU1YnYydEU3YWNzc3pjWC9KWjZvaGppTGdpcEluSFlRVkNha3NZeUJWODZwTi95N3YrMzZlQS9qVk5hQ2lvd1R1Z3BGcU81RlJsUnRrQlBNWjRBSXE0aEV3OHdnZTUrbUh2NUwvK3pwUFkwZS9ta3g5dUtDZ1FMVUJCM0JySmpRU2loeGdNUGxRVURqQWpqT3hTMmVWcDlOYlJDVndJSVF0YzVuNlJJN21qanBKNjZyekRHSXVhR3RFeWlSNE5Rc1VmL2EvZjRJWFArd1grNWkrK2lJaERhWWc0bkIzamd6M29JOGdjSkhZRThUaG9SV2szcWZVZGZNTy8rZ3plZE50L0JEOEVGeUdZNUx3VHlqUWMwWjZtMWxXTUZEZzJRZGNBVUprUVFvVVZqNmdEVDFkM0FxUmhwTmJhdWZsdG1jeUZ5Q0tYT1Q4S0tnMlJndXRPUElIdCs3NlNDUU9pUkpDQWkwT1VpRm9saGwyd0VlSUtxRU5jamZyODhUcFFwRTZPTjNURkcwcFNqNFFSSWVvRTRZclUzMWFjQmIrY3d2a3lRaDJBVkpoRU5GRFlOc2ZkVU5sbENEdEUzczIvLzZFbnNiS3l3YmQ5Njc4bE5BN3JrbWdKMlRvdWM3QmtrY3VjbDNvTTVXQURqZXRnSXYvOVQrN2txWTk5RDVGakJDWkVzd1d4cEp2M1Zib2xvbnA4eUIrclE0RzB0bTdUbFluRjduMEJVK0pzaVc5T0FzY1JObkhPMC9ocmdWMHcyNGlwME9naGxoUTR0UHh0VmxlRTMvdmpWL0NvejM0TUJJYzFnc1lKWWhYQjRtUEVtU3h5bVlNbGkxem0vRVRBYkVKY28ybHFiQ1Y4OE1OM2NkUG5QNFpCZUQzajZtNW9sbElXU3NISGlESkpFWjBlZ3pnNTZDUEk3RXVhR0NybENLMDlFQkd6Z3NZeFZUbGdVamNZTEpFMDNhSVF3YWxqNUc3bEN4L3o1ZnpxTzE3SGpkZi9iNjFSVnFyOFQ1dWRBSkc2dGhSRlNjNG9aZzZhTEhLWjh4SWFVTHVGMUt2WVFhcStySnN4UlRIZ1R6L3lBYjdna2UvRFNFUFVzNEJqT0JBbVl5SFNJS1pNVi8rWkE4U1IwcE5kb1pDbEV6Z0Fnd0cyc1lXRHNFWVRhMkFKM04wUVZuQ1VxQXBoK00yY3ZPY3NWNjZ0SVpvMkZYV01hZnNsWFJIVFFGTXBBUWlobmVON0FFZWN5ZlRKSXBjNUwybjIzRXJ5cWdSRUF1RGF0YnBUdlAvUC9wWXYvSUlYVThwenFlTUFkQW5LVGFnTFJHcFVjN3JxWUNtQkdraGVrbWx0VGtpQ0YxdkhraUZ3S3FVc2c3WVNXQkRLSCtjOWYzSUhOMzNlby9EMWhFRlpBUk9hV2lsS0phaEZaSXpwV2dqVUVId2E1bVp0UVVReFdlWXlCMHdXdWN4NThRUXNsc2dPaG1WaUhHTVowSVJBVVZqd0VHV0NkWStpbEZkUTY3MWdCV01Ec2I0ZTJEam9RemppOUVYT01oTzVPaFdsT0VtOWtYNk13Vk95eEhqd2JjU1Jwb2hOR29KWHJDMGhRTzBudUtKSzQ1MGtwU25yQnNxeWMvVlBIcE14R295WUhNcGxEcHpjSjVjNUx3NExFV3hjUnBpZ3NRU0JvbEM4OTJBOVJpcWlmcGhYdnZaVERNUkRjTWtxakxzUGV2Y3pxUlN5dlcxSVFrY3FTSkVKdHJrS3dnY3B6Ri94dEsvNmJiYjFaZWhJa3k1R0lCWll0NVVDUDdkSlVWV0lqUWpRMUdNQ0U4cXFRV1dNaURJWkM2akRHRkxiUUNaendPUklMbk4rQW1BajBRdEdCS3hIMlVYaUtxZ1FMQkFuV0NrZ05QekFELzhmL01nUDNzVm8vTVZnQnhCMkR2b0lqamlHRk1WRm9FQ2tRaldBMlFHMmVQWXozc3ZiM3ZFcjRGZkJRdEFKeGxUdDh3MFMwaWE4VGhEVEVCbFFxRXVUQnN3eUt0QTBiVlRmRWtPRHRVWHVaY3NjQ3JMSVpTNE9CY1NqM2lGdWhJWWgyRTIrL1JYZnlodCsrS25zeUtuVWM4VVMxb3dKMFlOWWtBRHhDdURzd2diTnd1MDhzTTRVanRpTXdFUXNWeEhpYVZMTHhqcVkwMm1lbXdqSUJvUTFuUFZBalE5WHRDMEVpbEJTb0VUK2twdHVQczNuZlQ2ODZmWTM1V3hpNXJJbmkxem1vbEJWUk50VHBVazlXYnNqcUpaMitMSFh2Sm52K2U0N0tQUVc2aUJnQmhCWHdld2dwa2I5a0g1amNtWWZ1bVp1S1REV0UzMERqSEhWVWtvWGh3RkNRTEZBU1RHd05PTXhNS1lhWEFQMU5pRk84UHd5dC8veVYvUHBEL3RNbm5UTFAwTjBna2lEc0hMQUI1akpQTGhra2N0Y0pOM2dWRTlUVzRveVZlMTU3N0R1SlAvMWp2ZnhySC8yVW1MNEhtelpFTmlHV2tBS1VNL01pYU5QanQ0NmpBU2NIUkFDQkZXZ3hya2x2RytBbXNLc0VDTkV0OWxlTkl3d0RDbk5HbVB6bmVCSHZPdk90L1BrTC8ybm1MWXFGdHI2U3ZXSXlVTnZNNWMzdWZBa2MxRUVRbnZpbkZBVWtzcklPWXNWRUgrQ3IvektwMUdQUHNwLytQR1RVQmU0NE1CVW9CTnNjUzdmeS95eDdJZzZvZlkxUVJWakJWczJlTDhOQnFSc2FPSjlCRTZqT3NaU3NzeVZSUGN5WHY5elY2UDFLVlEzZWZJWFB4VVRYUnJWNWtGa203clpSR0lXdU16bFQ0N2tNaGVOQmhBYkdZMG1ES3RocTFIdDhFdUpRQ0NHZ2pmLzRpL3k0cTk3Si9Cb0FrTXcyMjJQRnV3VnRnaFRQNDJqVEVHcS9nRXhBelJ1WVYxQjhHMi9JbzdLV29KK21DOS83aWQ0dzArOGxhdXYybXBOa3dHVEd2cHRBWkVKUmxJL203YVA1VFc1ek9WT0Zybk14YUVRWWlwVHQ5YmlmZm9PWTBRQ2phNWdaUmNUbDZDQllNR3RDVzcwVTNqRzdacVRJWWxaWDlDeXlBRmdhb3hkSVRZZTVGTVU1Z1pDMkNKU01KQjF4dVlsVFB3T2hTNFJBcVI1b2cwK2dqRVRKdHNyREZjbWdFV2pBek1DaHRTMVVwWmJDR3NIZTN5WnpJTk1Gcm5NeFJFOGFwcldvM0RZanVlcFFaZlJBTkdCQnNVd3dWaEhESTVvdC9nblQzb3FIN2p6ZjJkaWJLb09uSm9JOTQyRXM4Z0JZTWNRQkV0RVdLRTQ5cCtvK1Fpampab0NDOTVNUnlUVlBsSlVrVW5qS0Fxd1JIeGprdmhKUTRnQmF3YXpVWUE1bE10YzV1UXpTT2JpTUFhSlF6U21qMUx3QmJBTWdCS1FBTTdXaUIwd0NRNjFEVGF1OGtlLy81czg5cFpmQnlLSTloeCtNMzBzRllRcmNlYVRQUEpMZnBvN2Z2Y2ZzN1B4WHByVFNoRUtQQWJ2eG1CS3NKNnlpc1F3WXVEQWhIU1JZSXV6U2N4aWdUVU9hRnFScXcvMDJES1poNEljeVdVT2xNQU9UMzM2aS9uamR6MlZSclpSTXlLMFpmRXdSRkJVemlJc0VYVUZvVWJ4SUdPUUpZamhRUGRmMm1oVEVjQ2tVUXhhQXdvR2pKYkVFRWlGT1ZmUk5CL0R5cldvRnFtcDN1d1M0d3BPQm5nOW0vcmRkQ1Z0UzNZWjZEdDV5ak5POE01My9pU05IMUtZcFhScHFnMVE1RWdzazdrQVdlUXlCNHA2d0kyNDllVXY0YWQvYkJYNFhBYVZZendSVXJweVFsbGVTVjNmbTd3U1RZa0dnRUVhNnhJUC9pd3ZOaUxHRTV1U1ZDVGlnQlZnaEpFR1o0ZlVYb0RUT0hzTlBuNGM5RGlZc3hCUGdEa0YwVkx4Y0lSUE1lYnRmTnZMSDg4VG4vUVludjMwNTlPb1VoWmpZRWp3WUd4QVJJbmVZdHpCSDM4bWM1akpJcGM1V0hRQ1doR1k4Tk0vODBaZWV1dHJzT0hiQ2V5QzJ3Ri9OY2dwMEZXd2JhbGdNY2FFWThUWU1GdGNPaUNNQlIyRGVFVFhNVExCaUlld1J1QnVJbGNBSTF5eGdtK0d3QmJZWFFncmlLeWszNlZCekllSWVnZXYvOWxYOEtLdmZURldsbE8wWmlOZ0NkNWhMU0NrQ2Q1cUVHeU81REtaQzVCRkxuT3c2TDBRcm01clRpWUVLcjd3bHNmeDBULzZkNHo0RzhRV2FIU28xR25kVGdMNFpXQ1hXZFIwY0RoN0RCOTJnQkVpYXloblUwOEZOd0NuVTliUmVyUXh3QVRMc1hhdzZEWWhYZzE4QjEveXBWL0V6LzdzRy9qMEd6OG51WE8xMjlZSWFrNmo0UmhXTEtQSmhPSFFBbzRZV3lldkxIS1p6SG5KSXBjNVVCUm9Ka3BaQ2xxRFZCN0ZjUGVwRVErLzZyVUV4aGhXaVZLMTYxQUdUSVdZYllwNE5YVmM5TDU4YUxFRUlpVnBDdHNBNUdUcnZuOEM2d0loQ0lTQWNSSHhCc2NxUXNPNGVDa2Yrc3NQOGNnYkhnRlJ3VWxLUlJiZGVGTUZCRXVEYU9zS0l3MVJQZEVQTVFhTXpkV25tY3lGeUNLWE9WQ2FtR0l4Z1hadzlRUXdORUZvWXNQeThoSmxjeHVlQ1JHTEt4MCtiRU1ZQTBzY2ZMN3VERVpXaURvQVlwclBKZ0pOVFdyazNzWVpDL0ZoZUY3Qi8vakFML0tvejNrTWc4SlJ5QUExMjBBMUZiSkpQYUtxQUF3eFdnd09WUmpYRTRiRFNGUXd0QTMwMGxtcVpUS1pjNUZGTG5PZ0tCTWdFb0xnYkFreHVYR0kzYWJ4aHNJTmtNSlMrcCttNFN4S0NlNE0rT05VcFdkeXdGWHdRb0hZU0F3VDRDd2kxNlBxZ0w5bXdIV0lmSkNSdVozR0IxQ0RGWWhOa21ialdwRTMwSVNHMHFWeE9FU1RCRitUVlluR05MZ2g2Z1RCa1RybUFBa1l6bVdObHNsa0lJdGM1c0NKNEUwYmtHd1E0M3Fxb3BSa0N5WVJ2RWEyZGNRVjVTdEJIZ1o2SEpGdFZEZWdpMm9PRURFR2pTVWlaM0I2RllHN09ISGpyL0Q1ajc2ZTMzckhIN1lSNmhqVUVHUEVtQUdJYnh1elFYMUU3QkEwOWNVakRZS2dPTkFkUkNwb0k3cHVEYTRKSG1mZGdjZXhtY3hoSjR0YzVwQ3pDYXloZ0ZkWVgzOHNjZk5salBsVTZwUFROS29uall6WlJDamFLRWZibVhVWGtvRUIyQTBJRldLS05GRFU3b0JmQVFvY0FXVklsUHRRSFFCTFlNWVFUNE5jRDJhQ2hJaGpDZUg5UFBvZi9RbnYrWisvaHRFVHREdVd5V1FPa0N4eW1VT04rbFNFWWR5WWlFZDFsV2QrM2MzOCtsdi9LWVpyaURhQ2xwanlMSEY4SmNnV3Jxanc5WDBZcmlKZW9NWEFHZ2d4a3FabnJ3QVRvQ1NORUpxQTAzUlRsckIyaVJEdUJiVUlTc0YxMUx5ZHh6NGVWdFkzK08xZi8wMGNJUWx0Y0VUMU9KZlh6REtaZ3lTTFhPWndFd0RySVRndzREM1lJdkliZC80U1gvR1U3NFB3TFV5dHdWU2hxS0ZacFdDQVo2dDFJamtQYmh0OGhYUEhTSFB3dGpGT2lFRkJCNENBMndVZktOMHhhbjhQSzl6SWlMZnluZC8zS0g3NGxhL0N5QUMwVEZHYlJKcEdjUzZ0bGVVUy8wem1ZTWtpbHpuY0tFU053QzVHVmtDMkNmVUsyRUJVU3ptOEJlZGZBcUtZd1RiMVJGTGhCbXZBSjduZ21wME1VLzlkM0NEWlpMV0cwV1lFMFFJV2F4UVRyNmJoMVNBTmIzenp2K0Vidi9iNVFOVTZVQU9pUkhiUXNJSzFFRTFBR1dOYkg4OU1Kbk13WkpITEhHbzhBZGpHNlRFQTZocktpcW5SU1FUKzRJOS9pMmZlY2kvYmZBU2tBaXdVTG1VZzlVTFZoMk5zdVV5b0MrQVR3RFVVcGREVWpySm9XRzZ1NFl4OEE3L3poMi9uaWYva3lha3FVZ3RpVUF3K1ZUOHFpSmtrUTJxV1VMYnhvYUhnQ25MeFl5WnpzT1JPMHN5aFJyQVFqcUd5ZzhxRW9vS29JeUlqZ280eElmQ2t4eitOT3ovd0NEQS9SYW1maHRIcmtUZ0F2WENqdUMxWENmVU9sYlBBbFF4a0xiVzQ4VzYrNHZudjQzOTg1SkhFc01PVC85SFRzZFFZQlNJWUsyQUxvb3lKQmdJRnNKUmNTc0lLaFYzSy8xMlp6Q0VnUjNLWlE0MW5FMHVCYjRiNHVNMmdzb0JCUXBWOEhiMEJ0d0Z4SFRWZ1NtSFEzTTZZVDJEZGNZTDM1OTIrb1FhT1lSbmhHRE9xdnBkNnJBZ0JiU3pXZWd6dHNORTRCRE9pM2gxU0xtMkNyb0hzRVB3eXhzR2syYUFzQmhnNm8rYUcxTENleVdRT2lueXRtVG5VT0lab002UndNQ3hYYUpxSWFKV2NVZFNncnFGdVZsTnZIWkZRVDdqdHJhc2dkNElmWEhEN2xncFovaEVhKzEyYzFlOGhqaFNuVzdqR1VoVGJxRkdpUU5NWU1CSENrSElKWUVpZ2hyQ01GWkNvRE53NndnQWZBMUNBWm9ITFpBNmFMSEtaUTA2QktXZ3JGNkVzbHR2ZXN5b0pteHBLbXhhK1lveXoxbSt5QUFBQTAwbEVRVlFZR3A3L25HZndmNy8ybTFnWi9CeU9nSkUwbXc0TVVna0dROGxacnYrTUgrVzM3M3dzOWVaSFVkOGdQcVJ4YnJxY2pFZmlFcFlDSTFBVUZXbGUzR3kvckpUcFp3c1lhWVVXbk9tOEpoL0N0eW1UeWV4TFRsZG1MbkU4b1RHSU1SZ0xJWTRSTVFocDd0eUx2K1A1L09KUFBCWXhobEg4RzR3N3llYzg3dDM4NlIvOUpRYURCb08xRmxWRjJucC83MU4vVy8rK1RDWnphWkpGTG5PSjQxRzFTQmMyQ2FTYXk1aCtqbzRmK0ErdjRKWGY5enE4bnNFM1F1WEtaS0VWUU5xZ3F5OXNxb294T2NtUnlWd08vUCtmZjFiSVZmQlk2QUFBQUFCSlJVNUVya0pnZ2c9PSIgcHJlc2VydmVBc3BlY3RSYXRpbz0ibm9uZSIgaGVpZ2h0PSIxIiB3aWR0aD0iMSIvPiYjeGE7ICAgIDwvZz4mI3hhOyAgPC9nPiYjeGE7PC9zdmc+;fontFamily=Times New Roman;fontSize=10.5;" parent="XvH5OOQSZUMB8_Yw51Nm-32" vertex="1">
          <mxGeometry x="5.763358778625954" y="29.166666666666668" width="64.54961832061069" height="34.58015267175573" as="geometry" />
        </mxCell>
        <mxCell id="XvH5OOQSZUMB8_Yw51Nm-25" value="&lt;font face=&quot;宋体&quot;&gt;先验分布&lt;/font&gt;`p(\mathbf{z})`" style="text;html=1;strokeColor=none;fillColor=none;align=center;verticalAlign=middle;whiteSpace=wrap;rounded=0;fontSize=10.5;fontFamily=Times New Roman;" parent="XvH5OOQSZUMB8_Yw51Nm-32" vertex="1">
          <mxGeometry x="0.5763358778625954" width="74.92366412213741" height="23.333333333333336" as="geometry" />
        </mxCell>
        <mxCell id="XvH5OOQSZUMB8_Yw51Nm-33" value="&lt;div style=&quot;text-align: center; font-size: 10.5px;&quot;&gt;&lt;span style=&quot;background-color: initial; font-size: 10.5px;&quot;&gt;`p(\mathbf{x}|\mathbf{z})`&lt;/span&gt;&lt;/div&gt;" style="text;whiteSpace=wrap;html=1;fontSize=10.5;verticalAlign=middle;fontFamily=Times New Roman;" parent="1" vertex="1">
          <mxGeometry x="245" y="15" width="40" height="15" as="geometry" />
        </mxCell>
      </root>
    </mxGraphModel>
  </diagram>
</mxfile>
